<svg fill="none" xmlns="http://www.w3.org/2000/svg" viewBox="0 0 303 307">
  <g clip-path="url(#clip0)">
    <path d="M113.194 304.789l7.082-7.705a2.412 2.412 0 000-3.136c-4.831-5.974-18.005-36.139-7.202-74.906" stroke="#506336" stroke-width="1.49" stroke-miterlimit="10" stroke-linecap="round"/>
    <path d="M15.411 180.769c.362-2.131-2.79-4.436-7.039-5.15-4.249-.714-7.986.435-8.348 2.566-.361 2.13 2.79 4.436 7.04 5.15 4.249.714 7.986-.435 8.347-2.566z" fill="#366338"/>
    <path d="M7.713 179.469s36.01 18.248 69.56-25.447" stroke="#506336" stroke-width="1.39" stroke-miterlimit="10"/>
    <path d="M164.538 38.976s-18.725 4.48-13.294 33.48" stroke="#366338" stroke-width="1.49" stroke-miterlimit="10" stroke-linecap="round"/>
    <path d="M262.42 110.796c.874-4.2-.141-7.959-2.267-8.398-2.126-.438-4.558 2.611-5.432 6.811-.874 4.2.141 7.959 2.267 8.397 2.126.439 4.558-2.611 5.432-6.81z" fill="#366338"/>
    <path d="M149.955 72.158a.817.817 0 00.58.504.812.812 0 00.741-.205c3.301-3.256 16.055-14.067 32.62-6.93a48.618 48.618 0 0118.747 14.667 48.305 48.305 0 019.491 21.771c2.611 16.666-2.581 43.725-15.695 68.694-9.272 17.651-68 69.201-68 69.201l-42.342-64.99s-28.239-48.982-4.712-85.927c23.527-36.945 47.054-30.195 47.054-30.195s17.285 4.779 21.516 13.41z" fill="#4A8E44"/>
    <path d="M127.749 235.559S116.075 134.49 151.246 72.427M125.947 198.465a135.403 135.403 0 00-11.134 20.548M125.947 175.556s25.328 25.506 24.367 44.502M131.948 127.531c-20.19 8.031-36.524 23.453-45.643 43.098" stroke="#AADEA6" stroke-width="1.05" stroke-miterlimit="10" stroke-linecap="round"/>
    <path d="M149.685 135.684a3.562 3.562 0 003.571-3.554 3.562 3.562 0 00-3.571-3.554 3.563 3.563 0 00-3.571 3.554 3.563 3.563 0 003.571 3.554zM111.902 130.368a3.563 3.563 0 003.571-3.554 3.563 3.563 0 00-3.571-3.554 3.563 3.563 0 00-3.571 3.554 3.563 3.563 0 003.571 3.554zM136.24 142.286a8.333 8.333 0 01-3.128 5.576 8.418 8.418 0 01-6.175 1.741 8.396 8.396 0 01-5.602-3.114 8.32 8.32 0 01-1.75-6.145l16.655 1.942z" fill="#313330"/>
    <path d="M143.472 88.555s45.013 22.489 57.017 71.082" stroke="#AADEA6" stroke-width="1.05" stroke-miterlimit="10" stroke-linecap="round"/>
    <path d="M200.488 162.295s39.012 13.739 56.837-46.293" stroke="#506336" stroke-width="1.39" stroke-miterlimit="10"/>
    <path d="M153.225 206.02s-21.606-9.199-16.985 12.992a145.176 145.176 0 0012.964 36.886 1.101 1.101 0 01-.36 1.404l-6.452 4.569" stroke="#506336" stroke-width="1.49" stroke-miterlimit="10" stroke-linecap="round"/>
    <path d="M251.655 193.954a36.49 36.49 0 019.843 19.742l6.872-1.732-7.382-28.851-9.333 10.841zM89.755.717l6.663 1.822s-7.443 5.973-6.873 10.095c.57 4.122-4.44 8.721-4.44 8.721l-7.023-1.792 2.49-2.986a22.757 22.757 0 004.112-7.497c1.4-2.952 3.1-5.754 5.072-8.363z" fill="#29DEC0"/>
    <path d="M187.166 79.834c1.778.186 3.574-.06 5.236-.714a11.07 11.07 0 004.307-3.049s3.961-5.973 7.952-5.973l3.001 4.659s-6.482 2.03-8.312 5.555c-1.831 3.524-9.183 6.332-9.183 6.332l-3.001-6.81z" fill="#FFA344"/>
    <path d="M79.014 83.686c3.66 2.121 4.651.389 6.932 7.02 2.28 6.63 6.392 7.735 6.392 7.735l3.15-1.524s-4.26-5.973-4.29-8.96c0-3.852-5.222-8.96-6.873-9.438l-5.311 5.167zM212.764 19.802S227.498 10.214 226.208 0l5.611 1.135s-4.441 21.623-11.733 20.13l-7.322-1.463zM257.476 259.542s-8.613 16.576-19.596 16.307l1.83 5.794s22.537-7.019 20.166-14.575l-2.4-7.526z" fill="#FFA6A6"/>
    <path d="M18.996 62.152s6.002 17.204 18.005 16.337l3.752-4.3s-12.004-11.947-10.954-17.92l-10.803 5.883zM286.676 103.189s9.513 12.246 13.594 8.961l2.731-2.121s-9.393-3.614-9.543-12.215l-6.782 5.375z" fill="#A264FB"/>
    <path d="M188.815 164.685s-14.134 19.682-20.706 14.933l-4.381-3.136s14.434-6.182 14.164-19.533l10.923 7.736z" fill="#F6E6C5"/>
    <path d="M18.484 149.782l5.522 2.001s-9.003 10.423-13.084 8.392l-.87-4.718s6.992-1.315 6.992-4.69a1.07 1.07 0 01.468-.858 1.083 1.083 0 01.973-.127z" fill="#446577"/>
    <path d="M27.938 242.488s21.426 15.232 25.867 4.63l-4.171-2.987s-8.373-.597-15.275-10.752l-6.422 9.109z" fill="#FFA344"/>
    <path d="M178.823 252.971l-6.843 2.479s11.134 12.933 16.235 10.424l1.081-5.974s-8.673-1.642-8.673-5.824a1.337 1.337 0 00-1.203-1.178 1.347 1.347 0 00-.597.073z" fill="#A264FB"/>
  </g>
  <defs>
    <clipPath id="clip0">
      <path fill="#fff" d="M0 0h303v307H0z"/>
    </clipPath>
  </defs>
</svg>
