<svg version="1.1" id="Layer_1" xmlns="http://www.w3.org/2000/svg" xmlns:xlink="http://www.w3.org/1999/xlink" x="0" y="0" viewBox="0 0 600.7 600.9" xml:space="preserve"><style>.st0{fill:none;stroke:#aeb9c1;stroke-width:.9998;stroke-linecap:round;stroke-miterlimit:10}.st1,.st2,.st3{fill-rule:evenodd;clip-rule:evenodd;fill:#e2e2e2}.st2,.st3{fill:#506336}.st3{fill:#798e44}.st4{fill:none;stroke:#aeb9c1;stroke-width:1.4563;stroke-linecap:round;stroke-miterlimit:10}.st5{fill:#506336}.st10,.st9{fill:none}.st10{stroke:#91a553;stroke-width:1.6435;stroke-linecap:round;stroke-linejoin:round;stroke-miterlimit:10}.st11{fill-rule:evenodd;clip-rule:evenodd;fill:#aeb9c1}.st14,.st18,.st19,.st23,.st24,.st25{fill-rule:evenodd;clip-rule:evenodd;fill:#313330}.st18,.st19,.st23,.st24,.st25{fill:#446577}.st19,.st23,.st24,.st25{fill:#9ab7c1}.st23,.st24,.st25{fill:#8c6f60}.st24,.st25{fill:#6d5241}.st25{fill:#3a3c39}.st26,.st27{fill:none;stroke:#313330;stroke-width:1.1037;stroke-linecap:round;stroke-miterlimit:10}.st27{stroke:#201600;stroke-width:1.64}</style><g id="Слой_x0020_1"><path class="st0" d="M48.7 510.5s2.1 1.4 2.7 3.2"/><path class="st1" d="M588.3 312c0-7.5-8.3-13.5-18.2-13.3-.2-12-15.4-21.5-34.3-21.5-10.9.2-20.5 3.6-26.7 8.8-4.9-4.5-11.4-6.9-18-6.8-11.4.2-21 7.3-24.3 17-3.5-1.4-7.3-1.9-11.1-1.9-13.3 0-24.1 8.8-24.1 19.6.2 7.3 5.4 13.7 12.8 16.8-.2.7-.2 1.6-.2 2.4 0 10.7 16.6 19.1 36.8 18.9 9.5-.2 18.4-2.3 24.8-5.5 7.5 5.2 18.9 8.5 31.6 8.3 22.2-.2 40-10.7 39.9-23.2-.2-2.1-.7-4.3-1.7-6.2 7.5-2 12.9-7.2 12.7-13.4zM430.9 342.8c.3-2.6-2.3-5-5.9-5.2h-.9c-2.9-1.7-6.6-.9-8.3 1.9-1.7 2.6-.7 6.4 1.9 8.1 1 .7 2.3.9 3.5.9.5.3 1.2.5 1.9.5 1.9.2 3.8-.9 4-2.1 2.3-.6 3.6-2.2 3.8-4.1zM50.9 416.6c-.3-2.7-3.2-4.6-6.5-4.5-.3 0-.6.1-1 .1-2.9-1.3-6.2 0-7.3 2.9-1 3 .5 6.4 3.5 7.7 1 .5 2.2.6 3.2.5.6.1 1.2.2 1.8.2 2-.1 3.4-1.3 3.5-2.5 1.9-.9 3-2.6 2.8-4.4z"/><path class="st0" d="M509.1 286.1s-9.7 6.2-13.5 12.3c0 0-28.8-3.8-32.6 17M506 346.5s-8.8-4-14.2-10.4"/><g id="_1009785424"><path class="st2" d="M502.4 587.7c-3-3.9 10.6-68.9 41.2-68 33 1.2 7.1 42.1 7.1 42.1s11.9-19.7 25-12.1c12.9 7.7-2.7 24.6-2.7 24.6s29.2-6.6 27 6c-2.2 12.1-89.8 7.4-97.6 7.4z"/><path class="st3" d="M502.9 588.4c15.9 0 32.3-.7 45.9-8.1 7.5-4.2 19.8-19.7 9.4-30.9 0 0-11.8-22.7-47.9 10.4 0 0 16.8-17.6 8.3-20.1-8.7-2.3-17 10.4-17 10.4s25.8-50.9-7.2-50.1c-33.1.8-44.2 59.6-44.2 59.6s7.9-39.3-16.6-32.4c-24.3 6.9-20.6 36.4-20.6 36.4s-5.8-25.2-17.8-18.5c-12.1 6.6 3.7 27 3.7 27s-27.8-30.5-37.9-11.4c-5.2 9.6 1.9 16.6 10.3 21 8.5 4.6 17.9 6.6 27.5 6.6h104.1z"/></g><path class="st1" d="M213.4 52.5c0-6.5-7.2-12.2-16.9-13.8-5.2-7.2-16.9-12-30.2-12-9.5 0-17.8 2.5-23.9 6.1-6.1-3.6-14.4-6.1-23.7-6.1-16.9 0-30.9 7.7-33.2 17.6-1.6-.2-3.2-.2-5-.2-13.1 0-23.5 6.3-23.5 14.4 0 7.9 10.4 14.4 23.5 14.4 1.6 0 3.2-.2 4.7-.2v.3c0 11.3 14.9 20.5 33.4 20.5 10.6 0 20.1-3.2 25.9-7.7 5.6 1.1 11.3 2 17.1 1.8 23.9 0 43.3-10.8 43.3-24.1 5.1-2.4 8.5-6.5 8.5-11z"/><path class="st4" d="M115.5 57.7s19.8-1.4 26.8 12M137.2 63.3s12-13.8 30.9-8.3M85.5 44.4s6.1.9 9.2 4.3"/><path class="st5" d="M357.6 487.6c.5-.5 1.2-.5 1.5-.2.5.5.5 1.2.2 1.5l-1.7-1.3zm-18.2 24.5l-1.2-1.8.7-.5.8-.5.7-.7.7-.5.7-.7.7-.7.8-.8.7-.7.7-.7.7-.8.7-.8.7-.7.5-.8.7-.8.7-.8.7-.8.5-.8.7-.8.7-.7.5-.8.7-.8.5-.8.5-.7.7-.8.5-.7.5-.7.5-.7.5-.7.5-.7.5-.7.5-.5.3-.5 1.7 1.3-.5.5-.5.5-.3.7-.5.5-.5.7-.5.7-.5.7-.5.8-.7.7-.5.8-.5.7-.7.8-.5.8-.7.8-.5.8-.7.8-.7.8-.7.8-.7.8-.7.8-.7.8-.7.7-.7.8-.7.8-.7.7-.8.8-.7.7-.8.7-.7.7-.8.7-.7.5-.9.8zm-35.3 14.4l-.5-2 1-.3 1-.2 1-.3 1-.3 1-.3 1.2-.3 1.2-.3 1.2-.5 1.2-.3 1.2-.5 1.3-.3 1.2-.5 1.3-.5 1.2-.5 1.3-.5 1.2-.5 1.3-.5 1.2-.5 1.3-.5 1.2-.5 1.2-.5 1.2-.7 1-.5 1.2-.5 1-.5 1-.5.8-.5 1-.3.7-.5.8-.5.7-.3.7-.5 1.2 1.8-.7.3-.8.5-.7.5-.8.5-1 .5-1 .5-1 .5-1 .5-1 .5-1.2.5-1.2.5-1.2.5-1.3.5-1.2.7-1.2.5-1.3.5-1.2.5-1.3.5-1.3.5-1.2.5-1.3.3-1.2.5-1.3.5-1.2.3-1.2.5-1.2.3-1.2.3-1.2.3-1 .3-1 .3-1 .3-1.1.2zm0 0c-.5.2-1-.2-1.2-.8-.2-.5.2-1.2.7-1.2l.5 2z"/><path d="M296.3 485.2s-1.2-13-12-12.4" fill="none" stroke="#798e44" stroke-width="1.547" stroke-linecap="round" stroke-linejoin="round" stroke-miterlimit="10"/><path class="st5" d="M280.4 566.6c-.5-.2-.7-.8-.5-1.3.3-.5.8-.8 1.5-.5l-1 1.8zm13.9 9.3l-2 .3-.2-.2v-.3l-.2-.2-.2-.3-.2-.2-.2-.3-.3-.3-.3-.3-.3-.3-.3-.3-.3-.5-.3-.3-.5-.3-.3-.3-.5-.3-.3-.3-.5-.5-.5-.3-.5-.3-.5-.3-.5-.3-.3-.3-.5-.3-.5-.2-.5-.3-.5-.3-.5-.2-.3-.3-.5-.2-.3-.2-.3-.2-.5-.3 1-1.8.3.2.5.2.3.3.5.2.5.3.5.2.5.3.5.3.5.3.5.3.5.3.5.3.5.3.5.3.5.3.5.5.3.3.5.3.5.3.5.5.3.3.5.5.3.3.3.3.3.5.3.3.3.3.2.5.3.3.2.5.2.3v.6zm-1 14.9l-2-1 .2-.3v-.3l.2-.3.2-.3.2-.3v-.5l.2-.3v-.5l.2-.3v-.5l.2-.5v-1.3l.2-.3V579.2l-.2-.5v-.8l-.2-.3v-.8l2-.3.2.3v.8l.2.5v1l.2.3v5l-.2.5v.8l-.2.5v.5l-.2.5v.5l-.2.5v.3l-.2.5-.2.5-.2.3v.5l-.2.3-.2.2zm0 0c-.3.5-.8.7-1.5.5-.5-.2-.8-.8-.5-1.5l2 1zm-.2-.2l-.2 2.2h-.4l-.2-.2h-.2l-.2-.2h.1v-.2h-.2v-.2h-.2v-.2h-.2v-.2l-.2-.2v-.4h-.2v-1.4l.2-.2v-.2l2 1v-.2.2l-.1.4zm.2.2c.7 0 1 .7.8 1.2-.2.7-.8 1-1.3.8l.5-2zm-.3 0l.7 2h-.7l.2-2.2h.2v.2h.2-.6zm.5 0c.5 0 1 .5.8 1.2 0 .5-.5 1-1.2.8l.4-2zm10-.9l-9.9 2.8-.7-2 9.9-3 .7 2.2zm-.7-2.1c.5-.2 1.2.2 1.3.8.2.5-.2 1.2-.7 1.3l-.6-2.1zM255.7 557.9c.5-.2 1.2.2 1.3.7.2.7-.2 1.2-.8 1.3l-.5-2zm-34.1-.5l.7-2 .3.2 1.2.8 1 .7 1 .7 1 .7 1 .7 1 .5 1 .3.8.3 1 .3.8.3.8.3 1 .2.8.2h1.8l.8.2.8-.2h2l.8-.2 1-.2 1-.2 1.2-.3 1-.2 1.2-.3 1-.2 1.3-.3 1.2-.3 1.2-.3 1.3-.5 1.3-.3 1.5-.3.5 2-1.3.3-1.3.5-1.3.3-1.3.3-1.2.3-1.2.3-1.2.3-1.2.2-1.2.3-1 .2-1.2.3-1 .2h-1l-1 .2h-4l-1-.2-1-.2-1-.2-1-.2-1-.3-1-.5-1-.3-1-.5-1-.5-1-.7-1.2-.7-1-.7-1.2-.8-1.2-.8.7.3zm-.3-.2c-.5-.3-.5-1-.2-1.5s1-.5 1.5-.2l-1.3 1.7zm.2.2l-2.2-.5v-.2l.2-.2v-.2l.2-.2.2-.2.2-.2.2-.2h.2v-.2h.4l.2-.2h.4l.2-.2h.8l.2.2h.2l-.7 2h-.7v.5h-.2l.2-.2zm-.2.1c-.2.5-.8.8-1.3.7-.5-.3-.8-.8-.7-1.5l2 .8zm0 0l-2-.3v-.2.2-.2.2-.2.2-.4l2.2.5h-.2.2-.2.2-.2.2-.2v.2-.2.2-.2.2zm0 0c0 .7-.7 1-1.2.8-.7 0-1-.7-.8-1.2l2 .4zm-3.2 6.2l1.2-6.5 2 .3-1.2 6.5-2-.3zm2 .4c0 .7-.7 1-1.2.8-.7 0-1-.7-.8-1.2l2 .4z"/><path d="M297 514.1s-6.5 2.2-9.7-7.8c-3.3-9.9 27.4-28.4 25.6-31.6" fill="none" stroke="#506336" stroke-width="1.289" stroke-linecap="round" stroke-linejoin="round" stroke-miterlimit="10"/><path class="st3" d="M296.1 485.9s16.9-13.5 25.9 13c9 26.6-22.4 74.8-68 82 0 0 5.3-23.7-.2-37.4-5.5-13.5-5.7-41.6 14.4-58 20.3-16.1 27.9.4 27.9.4z"/><defs><path id="SVGID_1_" d="M296.1 485.9s16.9-13.5 25.9 13c9 26.6-22.4 74.8-68 82 0 0 5.3-23.7-.2-37.4-5.5-13.5-5.7-41.6 14.4-58 20.3-16.1 27.9.4 27.9.4z"/></defs><clipPath id="SVGID_2_"><use xlink:href="#SVGID_1_" overflow="visible"/></clipPath><g clip-path="url(#SVGID_2_)"><path id="_x31__1_" class="st9" d="M296.3 482.7s19.4-16.5 24.5 10.2c5.2 26.6-26.6 80.5-67 87.8 0 0 8.4-25.2 2.7-37.6s-10.5-44.3 12-60.6c22.5-16.1 27.8.2 27.8.2z"/><path class="st10" d="M296.3 482.7c-4 24.5 0 50.6-42.9 98.7M280.6 544c-9.2 3.8-15.4 11-23.2 18.4M295.5 488.6c-1.5 3.2 21.7 7.3 25.2 39.2M285.4 535.2s6.2 19.5-3.8 37.2M277.1 550.5c-.3 7.3-2.7 20.4-6.8 27.1M294.1 500.4c-6.8 14.5-34.9 12-43.9 39.7"/></g><path class="st9" d="M296.1 485.9s16.9-13.5 25.9 13c9 26.6-22.4 74.8-68 82 0 0 5.3-23.7-.2-37.4-5.5-13.5-5.7-41.6 14.4-58 20.3-16.1 27.9.4 27.9.4z"/><ellipse transform="rotate(-48.463 313.935 474.513)" class="st2" cx="313.9" cy="474.5" rx="4" ry="2.4"/><ellipse transform="rotate(-53.015 359.524 486.244)" class="st2" cx="359.6" cy="486.3" rx="4.4" ry="2.2"/><g><path class="st1" d="M237.3 408.4l-31.8-46.7-36 27.4c-5.5-5.8-18-11.6-24.5-6.4-2.6 2-4.4 4.8-5.1 7.7-4.2-.2-11.1 5.3-12 10.9-9.1-3.7-20.1-.1-24.5 8.1-2.1 4.1-2.4 8.4-1.1 12.4-.3 0-.9-.1-1.5 0-7.9.7-14 7-13.6 14.1.1.9.2 1.8.5 2.4-9.7-.6-18.6 7.3-20 17.8-.4 3.6.1 7.3 1.6 10.7-7.3 2-13.3 7.3-15.5 14-2.8.4-5.6 1.6-7.6 3.6-4.2 3.4-5.3 8.9-2.9 13.1-4.6-.2-9.3.5-13.5 2-6.4 2.4-11.9 6.8-15.1 12.4-2.7-2.6-6.4-4-10.4-4.3-6.6-.4-12.6 2.8-15.2 7.7-2.3-1.3-4.9-2.1-7.6-2.3-1.5-.2-3 .1-4.6.3-.1-.1 0-.3 0-.5.7-5.8-4.5-10.9-11.6-11.3h-2.2c.4-3.9 0-7.7-1.3-11.3-.7-1.9-1.4-3.7-2.4-5.4 1.3-1.8 2.2-3.8 2.7-5.8 2.3.6 4.8-.6 5.5-2.6 0-.2.1-.4.1-.6.9.1 1.7 0 2.7 0 4.1-.3 8.1-1.9 11.1-4.5 6.2 2 13.3-.8 15.8-6.6 1.3-2.8 1.3-6-.2-8.7-1.5-2.6-.9-5.7 1.4-8.2 4.1-4.5 3.6-11.1-1.1-14.9.4-3.2-.2-6.5-1.5-9.6-2.6-5.7-7.3-9.5-12-10 0-4.3-2.1-8-6-9.6-6.1-2.6-13.9.9-17.8 7.7-.1.4-.5.8-.6 1.1-5.4.7-14 5-18 12-2.4 4.4-1.3 9.7-1.1 13.5-6.9.2-13.3 4.8-15.4 11.7-1.5 5.3.2 10.7 4.6 14.3-1.5 1-2.8 2.4-3.8 4-.8.1-1.7.3-2.4.5-8 2.5-13.2 8.5-11.7 13.6-2.1.2-4.1 1-5.8 2-5.7 3.6-7.8 10-5.8 16.1-2.6.6-5.1 1.5-7.4 2.6-11 4.7-18.1 11.9-16 16.2.3.5.6.9 1.2 1.4l-.4.1c-3.2.6-6.3 1.6-9.4 2.8-3.1-1-8-.9-13.5-.2-.9.1-2.1.2-3.2.6-6.4 1.4-9.4 3.5-10.2 5.7-4.2-.5-10.4 2.3-15.7 7-2.8 2.6-5 5.7-6 8.8-4 1.4-7.4 3.6-10.2 6.3-4.6 4.2-7 9-6.5 12.1-4.6 5.9-2.2 11.1 5.3 7.8 4.4 2.8 14.5-1.1 22.6-8.7 2-1.8 3.7-3.8 5.2-5.8 3.6-.8 7.8-3.2 11.4-6.5 2.8-2.4 4.7-5.1 5.7-7.6 4.1-.8 8-2.1 11.5-3.9 5.8-.1 11.6-.7 17.1-2.1 4.4-1 8.7-2.5 12.9-4.2 5.6-1.1 11.1-2.8 16.3-5 5.7-2.4 10.9-5.5 15.5-9.2 1.5 1.4 3.5 2 5.5 2 .9-.1 1.8-.4 2.6-.8 1 2.7 3.5 4.8 6.8 5.6.3 3.4 1.5 6.8 3.5 9.7 5.8 8.6 16.8 12 24.5 7.6 1.4-.8 2.5-1.8 3.7-3.1 1.8.6 3.8 1 5.8.9.3 3.6 1.8 7 4.6 9.6 5.5 7 20.8 7.3 33.7-.1 4.2-2.4 8.1-6.1 10.3-8.2-.9 1.5-1.2 3-1.1 4.6.3 3.6 2.7 6.5 6.3 8.3 6 3.2 16.3 2.2 25.6-3.2 4.1-2.2 7.8-5.3 10.5-8.8 2.9-.3 5.4-1 7.9-2.4 6.3-3.7 9.2-10.2 6.9-15.1 3.2-1.4 6.2-3.1 8.8-5.4 1-.8 1.7-1.7 2.6-2.5 4.5 2.3 10.5 1.5 14.1-2.1 2-1.6 3.1-3.9 3.6-6.1 6.5 3.9 17.9 2.5 27.7-4.1 6.4-4.3 10.9-10 12.4-15.2 7.2 5.1 17.8 3.9 23.7-2.6 4.9-5.5 5.3-12.9 1-18.5h.2c6.3-.6 11.3-5.6 11-11.4-.2-2.3-1.2-4.5-2.9-6.1 11.1-4 19.4-10.4 15.3-20.2l36.4-22.4zm-270.1 44.5c1.4-2.5 2.1-4.9 1.8-7.1 0-.3.2-.5.3-.7 2.1 1.6 4.7 2.6 7.3 3.1.7.2 1.5.4 2.2.4.4 2.1-.2 4.1-1.8 5.5-.8.9-1.4 1.9-1.9 2.9-1.9-.5-3.8-.6-5.8-.4-2.3.2-4.5.9-6.7 1.7 1.1-1.6 3.6-3.6 4.6-5.4z"/><path class="st11" d="M-73.8 518.7s-5.4-7.6-6.2-13.2c-.9-5-.3-9.6 1.5-12.4-1.5-2.6-2.9-4.4-2.9-6.9 0-1.9.7-3.7 1.7-5.2-2.9-8.4 2.5-7.9 5.6-12.8l-2.8.7s-12.4 9-5.8 25.3c.4.9-5.3 13.8 4.9 27.3.1 0 1.9-.6 4-2.8zM-34 457.2s1.4 8.6-2.9 13.3c1.2 4.7.3 9.1-2.4 12.1.3-1.6.6-3.1.6-4.9.1-3.3-.9-6.9-2.5-10.3 2-1.4 3-4.3 2.7-8.2.5-.3.8-.6 1.2-1 1-.3 2.1-.7 3.3-1z"/><path class="st0" d="M43.3 497.8c.9 2.3 2.9 4.2 5.3 5.1 1.2.7 2.6 1.3 4 1.3M-27.3 540c2.6-1.3 4.8-3.7 5.6-7 1.2-3.9 0-7.9-2.9-9.8"/><g id="_1066938480"><path class="st0" d="M-79.4 492.9c2.2 3.6 6.8 5.4 11.1 4.6M-62.9 506c-5.7-4.8-7.2-12.6-2.9-18"/></g><g id="_1009796656"><g id="gs3"><ellipse id="gfs3e2" transform="rotate(-31.185 287.36 393.63)" class="st1" cx="287.3" cy="393.6" rx="20.2" ry="19.5"/><ellipse id="gfs3e1" transform="rotate(-31.185 219.735 385.65)" class="st1" cx="219.7" cy="385.6" rx="29.7" ry="20.2"/></g><g id="gs1"><ellipse id="gfs1e1" transform="rotate(-31.185 200.893 358.232)" class="st1" cx="200.9" cy="358.2" rx="20.6" ry="21.5"/><ellipse id="gfs1e2" transform="rotate(-31.185 276.284 342.388)" class="st1" cx="276.3" cy="342.4" rx="20.9" ry="20.5"/></g><g id="gs2"><ellipse id="gfs2e2" transform="rotate(-31.185 234.837 406.238)" class="st1" cx="234.8" cy="406.2" rx="22.4" ry="20.8"/><ellipse id="gfs2e1" transform="rotate(-31.185 249.121 324.429)" class="st1" cx="249.1" cy="324.4" rx="21.9" ry="20.2"/></g><g id="gs5"><ellipse id="gfs5e2" transform="rotate(-31.185 260.96 411.052)" class="st1" cx="260.9" cy="411" rx="22.4" ry="20.8"/><ellipse id="gfs5e1" transform="rotate(-31.185 219.616 328.15)" class="st1" cx="219.6" cy="328.1" rx="21.9" ry="20.2"/></g><g id="gs4"><ellipse id="gfs4e1" transform="rotate(-31.185 287.878 365.35)" class="st1" cx="287.9" cy="365.3" rx="19.9" ry="18.2"/></g><ellipse id="smk_cntr" transform="rotate(-31.185 246.687 368.582)" class="st1" cx="246.7" cy="368.6" rx="35.2" ry="45.4"/></g><path id="rck_smoke" class="st1" d="M384.2 300.8l-45.9-43.4-85.6 76.8 29.4 43.4z"/><path class="st0" d="M307.2 297.4L287 315.9M302.3 310.9l9.7-8.4M329.9 330.5l-21.2 15.9M292.1 325.2l5.7-5.2M332.1 320.8l-16.8 12.6M177.6 469.4c-2.2-3.4-6.6-6-11.7-6.5-1.4-.2-2.9-.2-4.3 0-.1-.1 0-.3 0-.5.6-7.8-5.6-14.7-13.9-15.6-4.7-.5-9.1 1-12.1 4.1"/><g id="_1009808528"><path id="le3" class="st0" d="M233.6 311.3c-9.7 11 1.5 21.2 6.3 21.7"/><path id="le5" class="st0" d="M273.7 374.9c6 13.3 20 7.3 22.3 3.2"/></g><path class="st0" d="M224.9 386.5c-2.4 8.4 2.2 18.7 10.4 22.9 6.4 3.3 15.8 3.4 19.7-1.5M101.2 497.9s.2 8.9 11.3 11.5M-51.8 447.8s2.1-7.1-7.2-9.2M-180 545.1s-2.7 3.5.7 7.4M13.9 522c-1.9-3.8-1.6-7.8.7-10.1M87.6 437.8s.3 8.9 11.4 11.5"/><path id="le3_0" class="st0" d="M292.7 349.7c4.7 2.6 6.7 6 7.2 9.4"/><path class="st1" d="M-103.7 577.5c-2.8-2.5-7.5-1.7-10.6 1.7-.4.4-.5.7-.9 1.2-4.2 1.6-6.2 6.2-4.7 10.3 1.6 4.2 6.1 6.4 10.4 4.8 1.5-.5 2.8-1.6 3.7-2.8.8-.4 1.5-.8 2-1.6 1.8-2.1 2.4-4.7 1.2-6.2 1.1-2.7.8-5.6-1.1-7.4z"/></g><g><g id="_1009824272"><path class="st5" d="M165.9 473.6c.5-.5 1.2-.7 1.7-.3.5.3.7 1.2.3 1.7l-2-1.4zM111 508.3l.8-2.2 3.3 1.2 3.2.8 3 .8 2.8.3 2.7.3h2.5l2.3-.2 2.2-.2 2.2-.5 2-.7 1.8-.8 1.8-.8 1.7-1 1.7-1.2 1.5-1.3 1.3-1.3 1.5-1.5 1.3-1.5 1.2-1.7 1.2-1.7 1.2-1.8 1.2-1.8 1.2-1.8 1-1.8 1-1.8 1.2-1.8 1-1.8 1-1.8 1-1.8 1.2-1.8 1-1.7 1-1.7 2 1.3-1.2 1.5-1 1.8-1 1.7-1 1.8-1 1.8-1 1.8-1.2 1.8-1 1.8-1.2 1.8-1 2-1.2 1.8-1.3 1.7-1.2 1.8-1.3 1.7-1.3 1.7-1.5 1.5-1.5 1.5-1.7 1.3-1.8 1.3-1.8 1.2-1.8 1-2.2.8-2.2.7-2.2.5-2.5.3-2.5.2h-2.7l-2.8-.3-3-.5-3.2-.7-3.2-1-3.5-1zm0 0c-.7-.3-.8-1-.7-1.5.2-.7.8-.8 1.5-.7l-.8 2.2z"/><path d="M106.8 466.3c.2.7-.5 1.3-1.2 1.5-.8 0-1.5-.5-1.5-1.3l2.7-.2zm-18-13.2v-2.8h1.5l1.3.2 1.3.3 1.3.2 1 .5 1.2.3 1 .5 1 .5.8.7.8.7.8.7.7.7.7.7.5.7.7.8.5.7.3.8.5.7.3.7.3.8.2.7.3.5.2.7.2.7.2.5v.5l.2.3v.3l.2.3V466.6l-2.7.2h-.1v-.8l-.2-.3v-.3l-.2-.5-.2-.5-.2-.5-.2-.5-.3-.7-.2-.7-.3-.5-.3-.7-.3-.7-.5-.7-.5-.5-.5-.7-.5-.7-.5-.5-.7-.5-.7-.7-.8-.3-.7-.5-.8-.5-1-.3-1-.3-1-.2-1.2-.2-1.2-.2h-1.2zm0 0c-.7 0-1.3-.7-1.3-1.5 0-.7.7-1.3 1.3-1.3v2.8z" fill="#798e44"/><path class="st5" d="M87.8 546.3c-.5-.2-.8-.8-.7-1.5.3-.5 1-.8 1.5-.7l-.8 2.2zm15.3 9l-2.2.7-.2-.2v-.3l-.2-.2-.3-.3-.2-.3-.3-.3-.2-.3-.5-.3-.3-.3-.3-.3-.5-.5-.3-.3-.5-.3-.5-.3-.5-.3-.5-.3-.5-.5-.5-.3-.5-.3-.5-.3-.5-.3-.7-.3-.5-.2-.5-.3-.5-.3-.5-.2-.5-.3-.5-.2-.3-.3-.5-.2-.5-.2-.3-.2.8-2.2.5.2.5.3.3.2.5.2.5.3.5.2.7.3.5.3.5.3.5.2.7.3.5.5.5.3.7.3.5.3.5.3.5.5.7.3.5.3.5.5.3.3.5.3.5.5.3.3.5.5.3.3.3.3.3.5.2.3.3.5.2.3.2.5zm1 16.3l-2.1-.6v-.3l.2-.3v-.5l.2-.3v-1.1l.2-.3v-3.5l-.2-.5v-1.5l-.2-.5v-1l-.2-.5v-.5l-.2-.5-.2-.5v-.5l-.2-.5v-.3l-.2-.5-.2-.5v-.3l-.2-.5 2.2-.7.2.5.2.5v.5l.2.3.2.5.2.5v.5l.2.7v.5l.2.5v.5l.2.5v.5l.2.7v1.5l.2.7v3.2l-.2.5v1.5l-.2.3v.5l-.2.5-.3.3zm0 0c0 .5-.7 1-1.3.8-.7-.2-1-.8-.8-1.5l2.1.7zm0 0l-.1 2.4h-.4l-.2-.2h-.2l-.2-.2-.2-.2-.2-.2-.2-.2-.2-.2v-.2l-.2-.2v-.2l-.2-.2v-.2.2-1l2.3.6h.2v.2l-.2-.2zm.2.2c.7 0 1 .7 1 1.3-.2.5-.8 1-1.5.8l.5-2.1zm-.7.2l1.3 1.8-.7.2h-.2l.2-2.3h.2l.2.2-.2-.2v.2h.2l-1 .1zm.9-.2c.7 0 1 .5 1 1.2s-.5 1.2-1.2 1l.2-2.2zm7.8-2.8l-7.3 4.8-1.3-1.8 7.3-4.8 1.3 1.8zm-1.3-1.9c.7-.3 1.3-.3 1.7.3.3.5.2 1.2-.3 1.5l-1.4-1.8zM58.9 534.9c.5-.2 1.2 0 1.5.7.2.5 0 1.2-.7 1.5l-.8-2.2zm-32.7-2l1.2-2 .3.3 1 1 .8 1.2.8 1 .8.8.8.8.8.8.7.7.8.7.7.7.7.5.7.3.7.3.7.3.7.3.7.2.7.2H42l.8-.2.8-.2 1-.2 1-.3 1.2-.3 1.2-.3 1.3-.5 1.3-.5 1.3-.7 1.7-.7 1.5-.7 1.8-.8 1.8-.8.8 2.2-1.8.8-1.7.8-1.7.7-1.5.7-1.5.7-1.3.5-1.3.5-1.3.3-1.2.5-1.2.2-1 .3-1 .2-1 .2h-2l-.8-.2-1-.2-.8-.2-.8-.3-.8-.3-.8-.5-.7-.5-.8-.5-.8-.7-.7-.8-.8-.7-.8-.8-.8-.8-.8-1-.8-1-1-1.2-1-1 .2.2zm-.4-.2c-.3-.5-.3-1.3.2-1.7.5-.5 1.2-.3 1.7.2l-1.9 1.5zm.4 0L24 532v-.2l.2-.2v-.2h.2v-.2h.2v-.2h.2v-.2h.2l.2-.2h.2l.2-.2H26.2l.2-.2H27v.2h.4-.4l.2.2h.2l-1.2 2H26v.2-.2h.2v.1zm0 .2c-.3.7-1 .8-1.7.7-.5-.3-.8-1-.5-1.7l2.2 1zm-2.2 7l-2.2-.7v-.4l.2-.3v-.2l.2-.2v-.5l.2-.2v-.3l.2-.2v-.5l.2-.2v-.2l.2-.3v-.4l.2-.3v-.2l.2-.3v-.2l.2-.2v-.5l.2-.2v-.3l.2-.2v-.5l.2-.2v-.2l.2-.3 2.2.7-.2.3v.4l-.2.3v.2l-.2.2v.5l-.2.2v.3l-.2.2v.5l-.2.2v.2l-.2.3v.4l-.2.3v.2l-.2.2v.5l-.2.3v.2l-.2.2v.5l-.2.2v.3l-.2.2v.2zm0 0c-.2.7-.8 1-1.5.8-.5-.2-1-.8-.7-1.5l2.2.7z"/><path class="st3" d="M105.1 466.9s23-16 25.9 20.2c2.5 31.7-39.1 80.7-84.5 74.3 0 0 12-25.4 7.3-41.2-7.8-70.3 44.3-71.1 51.3-53.3z"/><defs><path id="SVGID_3_" d="M105.1 466.9s23-16 25.9 20.2c2.5 31.7-39.1 80.7-84.5 74.3 0 0 12-25.4 7.3-41.2-7.8-70.3 44.3-71.1 51.3-53.3z"/></defs><clipPath id="SVGID_4_"><use xlink:href="#SVGID_3_" overflow="visible"/></clipPath><g clip-path="url(#SVGID_4_)"><path id="_x31_" class="st9" d="M105 466.6s23.4-11.5 25.9 20.2c2.3 31.9-39.2 80.7-84.7 74.3 0 0 12.2-25.4 7.5-41.2-4.7-15.9-6-53.6 20.7-63.6s30.6 10.3 30.6 10.3z"/><path class="st10" d="M104.8 459.2c1.8 6.8 10.7 65.8-59.3 102.4M84.1 531.7c-10.5 1-22.2 4.5-31.7 10M91.3 523s3.3 16.4-4.3 30.7M75.9 540.4c-1.5 8.2-4.8 14.5-10.4 20.5M99.5 506.3c-10.4 10.2-27.9 1.8-66 24"/></g><path class="st9" d="M105.1 466.9s23-16 25.9 20.2c2.5 31.7-39.1 80.7-84.5 74.3 0 0 12-25.4 7.3-41.2-7.8-70.3 44.3-71.1 51.3-53.3z"/><ellipse transform="rotate(-49.233 166.93 474.242)" class="st2" cx="166.9" cy="474.3" rx="4.6" ry="2.3"/><ellipse transform="rotate(-81.628 97.62 479.458)" class="st14" cx="97.6" cy="479.4" rx="2.2" ry="2"/><ellipse transform="rotate(-84.62 116.7 478.05)" class="st14" cx="116.7" cy="478.1" rx="2.3" ry="2"/><path d="M83.9 467.4s-52.1 23.2-30.7 45.3" fill="none" stroke="#506336" stroke-width="1.388" stroke-linecap="round" stroke-linejoin="round" stroke-miterlimit="10"/><ellipse transform="rotate(-32.438 85.29 466.442)" class="st2" cx="85.3" cy="466.4" rx="4.2" ry="2.6"/></g><path class="st14" d="M112.3 498.2c-.5 4.7-6.7 5-5.3-.5.7-2.3 1.5-1.8 2.8-1.5 1.1.4 2.6-.1 2.5 2z"/></g><g id="_1009777648"><g id="left_hand"><path class="st14" d="M530.3 18c.4-.8-9.6-9.8-15.3-6.9-1 .5-.5.7-.2 1 8.5 4.4 12.5 7.2 11.5 11.4l4-5.5z"/><path d="M517.6 36c6-10.2 9.2-16.8 11.9-19.3 1.5-1.2 5-1.9 7-2 2.2 0 2.4.3 3.6 1.6 1.7 2.2 1.3 9.7 1.3 9.7s-.4 10.7-2 12c0 0-.5.7-1-.7 0 0-4.9 21.6-7 21.9 0 0-.6.1-.8-1.3 0 0-8.2 22.2-16 29.2l-44.7 28.7L445 87.5c40.1-15 49.3-15.7 72.6-51.5z" fill-rule="evenodd" clip-rule="evenodd" fill="#513d30"/><path class="st14" d="M535.7 29.5s6.4-5.5 7.7-8.8c-.4-1.3-1-2.4-1.8-3.5-.9-.8-7.5 11.8-5.9 12.3zM532.5 29.4c1.3-2.3 5.4-9.2 6.5-13.4.2-.7-.1-1.6-.5-2.2-.8-.8-1.9-1.6-3.1-1.8-1.2 0-4.2 13.3-3.8 17.1.2.2.4.3.5.3.2-.1.3.1.4 0z"/></g><path d="M436.5 280.5c-5.6 3.9-11.2 7.4-16.7 11-2.7 1.7-5.3 3.4-8 4.9-5.3 3-10.4 6.1-15.6 8.6-11.8-1.8-28.3-12.3-43.1-28.4-14.8-16.1-23.7-33.4-24.6-45.4 3.2-4.8 6.5-9.8 10.1-14.7 1.8-2.5 3.5-5 5.4-7.5l.1-.1c4-5.3 8.1-10.6 12.5-15.8 32.9-40.1 69.4-69.6 98.3-82 0 0 28.4-13.7 60.4-19.6 9.1 15.5 21.3 28.6 35.6 39.2-8.6 30.9-24.1 58.8-24.1 58.8-14.9 28-47.5 61.8-90.3 91z" fill-rule="evenodd" clip-rule="evenodd" fill="#d6e2ea"/><path class="st18" d="M396.2 305c-3.8 1.9-7.4 3.8-10.9 5.6-7.9 3.8-15.6 7.1-23 10-11-1.9-23.7-9.4-34.5-20.9-5.3-5.9-9.8-12.4-13.3-19.5-.5-1.5-1.3-3.2-1.9-4.7-1.4-3.7-2.4-7.5-2.7-11.4v-.2c3.5-7.4 7.7-14.9 12.4-22.6 1.8-3.1 3.7-6.2 5.7-9.2.3-.4.3-.5.6-.9 0 .3 0 .7.1.8.5 5.6 2.6 12.1 6.4 19.2 4.9 9.2 10.9 17.6 18.1 25.3 14.7 16 31.2 26.7 43 28.5zM551.2 131.1c-14.5-10.5-26.6-23.7-35.6-39.2 13.8-2.4 28.1-3.4 41.3-1.3.6 12.6-1.9 26.8-5.7 40.5z"/><path class="st19" d="M309.9 263.8c-5.3-1.4-13.2.8-21.5 6-.8.4-1.7.2-2.2-.5-.2-.2-.2-.7-.2-1 1.2-7.1 6.4-16 14.8-23.5 9.4-8.6 19.9-13.3 27.3-12.7-2 3.1-3.9 6.1-5.8 9.3-4.6 7.6-8.7 15.1-12.4 22.4zM362 320.8c1 5.3-1.9 13.1-7.7 21-.5.7-.4 1.6.3 2.2.3.1.6.4 1.1.3 7-.4 16.5-5 24.7-12.6 9.4-8.6 14.9-18.7 15-26.1-3.3 1.8-6.5 3.3-9.7 4.9-8.1 3.8-16 7.3-23.7 10.3zM337.2 301.5c-7.1 6.5-14.1 11.5-19.6 14.3-.8.4-1.5 0-1.9-.7-.2-.3-.2-.8-.1-1.3 3.3-5.2 8.9-11.8 16-18.3 8.9-8 17.7-13.9 23.4-16-2.4 5.7-9.1 13.9-17.8 22z"/><path d="M532.6 114.6S456 209.8 355.7 279.2" fill="none" stroke="#9ab7c1" stroke-width="1.548" stroke-miterlimit="10"/><circle class="st18" cx="369.4" cy="283.5" r="2"/><circle class="st18" cx="390.9" cy="298" r="2"/><circle class="st18" cx="352.2" cy="264.8" r="2"/><circle class="st18" cx="339" cy="242" r="2"/><circle class="st19" cx="437.6" cy="220.3" r="2.5"/><circle class="st19" cx="478.4" cy="180.6" r="2.5"/><circle class="st19" cx="518.1" cy="139.7" r="2.5"/><circle class="st19" cx="394.5" cy="257.5" r="2.5"/><path class="st19" d="M465.8 106.1L430 120l-58.7 70-51.4 22c13.3 12.5 51.6 10.4 69.6-1.5 10.3-6.8 24.3-18.1 30.7-34.3 8.7-21.7 25.3-42.9 40.4-57.2 8.3-7.8 17.6-14.6 27.5-20.4l-22.3 7.5zM331.2 227.3s23.1 13.6 31.4 12.2l-28.5-16.6-2.9 4.4zM451.7 196.9s14.2 18.2 26.5 21.9c3.6 1.1 6.9 1.8 9 3.6 2.4 2 4.1 3.8 5 5.9.7 1.9.8 3.9.7 5.8l4.3-4.3-3-9L479 206l-27.3-9.1z"/><path d="M411.4 72.8c-3.8-3.7-8.9-5.5-14.1-5.3" fill="none" stroke="#506336" stroke-width="1.671" stroke-miterlimit="10"/><path class="st2" d="M398.2 68c.3-.9-6.9-1.8-12.5 4.1.1 0 10.6 2.2 12.5-4.1z"/><path class="st2" d="M383.9 65.6s9.8-5.5 15.1 1.9c0 0-6 3.7-15.1-1.9z"/><path d="M384.8 65.6c4.8-.4 8.5.4 13.1 1.9" fill="none" stroke="#364222" stroke-width=".45" stroke-linecap="round" stroke-miterlimit="10"/><path class="st23" d="M470.3 103.3S435.9 128.9 419 171c-8.7 21.7-30.2 35.8-40.3 38.7l-10.9-22.2 61-72.6 41.5-11.6z"/><path class="st24" d="M496.2 48.4c-5.4-10-19.4-10.7-19.4-10.7-1.8-.3-3.7-.4-5.5-.1-1-.5-4.2-1.9-7-.9-2 .7.8 1.3 3 1.6-2.6.6-5.2 1.4-7.6 2.2-1.6.6-3.2 1-4.9 1.5-3 .9-8.3 3.4-9 4.4-.9 1.3 4.8-.4 4.8-.4-2 2.1-4.1 3.9-6.6 5.4-5.5 3.5-9.4 5.5-16.7 9.8-4.6 2.7-9.5 3.9-9.6 4.6-.2 1.2 3 1.8 3 1.8-3.8 1.4-7.7 2.6-11.8 3.4-7.4 1.4-16.1 2.8-23.4 3.8-16.5 2.5-45.4 13-33.3 13.1 0 0-36.6 20-35.6 21.5.7.7 1.6 1.1 2.6.8 0 0-23 21-26.3 31.7 0 0 3.5.3 5.1-2.4 0 0-9.1 19.9.5 43 7.2 17.5 35.9 50.9 67 57.7 0 0 21.5-14.4 24.9-22.6.4-.6.2-1.5-.5-1.9-1-.5-2.7-.9-5.3.1l-12.3-25.7s10.1-5.3 36.6-43.3c0 0 27.9-30.8 53.5-40.6 1.6-.6 6.6-2.7 9.5-3.9 3.9-1.5 7.6-3.3 11.2-5.4 5-3.1 9-7.4 11.8-12.6 5.6-2 6.4-16.5 6.4-16.5.6-6.7-1.3-13.6-5.1-19.4z"/><path class="st25" d="M493 215c-2.2-1.7 6.5 4.9 7.5 8.9.7 2.4-.7 6.1-.4 7.1.3 1 4.9-3.5 4-9.6-.8-6.1-10.3-12.1-10.3-12.1l-.8 5.7z"/><path class="st25" d="M488.6 207.7c-2.8-.1 8 0 11.2 2.6 2 1.7 3.2 5.3 4 5.9.9.6 1.7-5.8-2.5-10.2-4.3-4.5-12-4.1-12-4.1l-.7 5.8zM487 218.3c-2.1-1.8 6.6 4.9 7.7 8.8.6 2.5-.6 6.2-.4 7.1.3 1 4.9-3.5 4-9.6s-6.1-8.8-6.1-8.8l-5.2 2.5z"/><path class="st24" d="M493.5 216.2c1.7-2 1.2-7.3.3-9.9-2.5-6.6-9.8-19-20-31.4-15.1-18.3-32.8-42.2-39.3-62.5l-29.6 33.7c3.6 6 14 19.6 16.6 24.6 1.3 2.3 2.4 5 3.1 7.6.1.4.4.6.7.5.1-.1.3-.2.4-.4.5-1.5.9-3 1.3-4.7 0 0 2.5 5.8 5.5 4.7 0 0 .9 10.6 3.8 9.1l2.4-3.7c2.9 1.9 5.5 4 8 6.4 2.3 2.3 3.5 5.2 3.8 8.4 0 .7.1 1.3.1 1.8-.1.6.8.4 1.1.1l1.7-2.5c3.5 2.6 6.7 5.5 9.7 8.8 3.6 4.2 8.2 7.4 13.4 9.2 5.5 1.9 12.9 5.1 17 .2z"/><path class="st26" d="M437.5 121.7c-2.3-3.5-3.4-8.3-4.9-12.1M406.6 150l-10-16.5s-.2 0-.1.1c-.3.7-2.2 4.4-3 2.6-.8-1.8-3.2-8.8-3-11.9"/><path class="st23" d="M496.5 61.8c-3.6.5-7.1.5-10.9.1-3.8-.3-5.1-2.4-5.4-4.1-.2-1.9 1.1-3.8 2.9-4.6 4.6-1.7 9.4 1.6 11.9 3.6.1.1.3.1.3 0 .1-.1.1-.3.1-.4-1.4-3.5-4.1-6.2-7.6-7.5-3.8-1.5-9.2-1.9-17-.2-8 1.5-12.7 4.2-15.6 6.9-2.6 2.6-4.1 6.4-4 10.1 0 .2.2.2.4.3.1.1.2 0 .3 0 1.5-2.9 4.5-7.9 9.3-8.2 2.1-.1 3.9 1.2 4.6 3.1.5 1.5-.1 4-3.4 5.9-3.2 1.7-6.6 3.2-10 4.2-.2 0-.3.2-.3.4 6.4 8 5.4 12.1 6.1 12.1 1 0 1.5-2.9 1.5-2.9 8.6 6.5 5.2 9.7 6 9.9.9.4 1.6-.6 1.9-1.4 0-.2.4-.4.7-.3 2.2 1 4.2 2.2 6.3 3.2 1.1.8 2 1.7 2.7 2.7.2.2.3.5.5.3 1-.8 4.1-2.4 5.7-4.3 1.1-1.3 2-3.1 2.2-4.7 0 0-.2 1.9.5 1.9.9.1 5.5-6.7 7.3-14.6 0 0-.2 2.2.1 2.6.5.5 4.1-6.3 3.1-14.1h-.2z"/><path class="st14" d="M480 62.2c-.5-1.4-2.1-2.3-3.5-2l-2.9.5-2.9.5c-1.6.1-2.8 1.6-2.8 3.1-.1 1.1.6 2.3 2.7 3.4l3.7 1.7c.3.1.8.1.9-.1l3.2-2.7c1.7-2 2-3.3 1.6-4.4z"/><path class="st27" d="M459.1 63.8s.2-3.1 3.6-2.2M486.9 57.5s-1.5-2.7-4.3-.3M478.3 70c-.4 1.8-2 2.9-3.8 2.6-1-.2-1.9-.7-2.3-1.6"/></g></g></svg>