<?xml version="1.0" encoding="utf-8"?>
<!-- Generator: Adobe Illustrator 24.3.0, SVG Export Plug-In . SVG Version: 6.00 Build 0)  -->
<svg version="1.1" id="Слой_2" xmlns="http://www.w3.org/2000/svg" xmlns:xlink="http://www.w3.org/1999/xlink" x="0px" y="0px"
	 viewBox="0 0 100.9 100.1" style="enable-background:new 0 0 100.9 100.1;" xml:space="preserve">
<style type="text/css">
	.st0{fill:#513D30;}
	.st1{fill:#313330;}
	.st2{fill:#222322;}
	.st3{fill:none;stroke:#506336;stroke-width:1.03;stroke-miterlimit:10;}
	.st4{fill:#506336;}
	.st5{clip-path:url(#SVGID_2_);}
	.st6{fill:none;stroke:#364222;stroke-width:0.72;stroke-linecap:round;stroke-miterlimit:10;}
	.st7{fill:#6D5241;}
	.st8{fill:#8C6F60;}
	.st9{fill:none;stroke:#313330;stroke-width:0.78;stroke-linecap:round;stroke-miterlimit:10;}
</style>
<path class="st0" d="M41.4,200.2l14.3,27.9h-8.8c-8.1,0.4-19.5-0.1-18.4-2.1c1-1.7,3.5-2.4,3.5-2.4l-11.3-25.7L41.4,200.2z"/>
<path class="st1" d="M25.1,61.8c2.1-11.5,2.7-15.6,2.7-17.4c0-0.2-0.1-0.3-0.3-0.5c-0.3-0.2-0.7-0.1-0.9,0.1
	c-2.2,3.2-5.8,14.2-5.8,14.2L25.1,61.8z"/>
<path class="st2" d="M13.1,59.7c4.8-10.1,5.6-11,6.6-12.4c0.1-0.1,0.2-0.2,0.4-0.2c0.3,0,0.6,0.2,0.6,0.5
	c-0.1,3.8-2.2,10.2-2.2,10.2L13.1,59.7z"/>
<path class="st1" d="M17,56.1l3.7,3l0,0c3.1-10.6,3.8-14.2,3.9-16c0-0.2-0.1-0.4-0.2-0.5c-0.3-0.2-0.7-0.2-0.9,0.1
	C21.2,45.5,17.1,55.6,17,56.1C16.9,56,17,56.1,17,56.1z"/>
<path class="st0" d="M55.3,129.6c0,0-3.1,7.6-13.9,16.2s-29.2-0.3-29.2-0.3c2,1.3,0.4,2.1,0.4,2.1C-4.3,141.2-3,124.1-3,124.1
	c0,0,0,0,0,0c-0.2,0.4-0.7,0.6-1.2,0.4c-2.1-2.4,2-15.5,2-15.5c-2.1-0.4-1.1-4.5-1.1-4.5c3-16.2,15.3-47.6,18.8-49s6.7,0.5,10,5.7
	c3.1,4.8,1.7,48.5,1.7,48.5L40.2,97L55.3,129.6z"/>
<path class="st3" d="M85.9,64.7c-1.5,5.3-3.1,7-3.1,7"/>
<path class="st4" d="M86,65.1c-9.2-4.1-2.4-15.7-2.4-15.7C91.1,58.2,86,65.1,86,65.1z"/>
<path class="st4" d="M92.2,52.6c-8.1,5-7,12.3-6,12.1C93.4,63.4,92.2,52.6,92.2,52.6z"/>
<g>
	<defs>
		<path id="SVGID_1_" d="M86,65.1c-9.2-4.1-2.4-15.7-2.4-15.7C91.1,58.2,86,65.1,86,65.1z"/>
	</defs>
	<clipPath id="SVGID_2_">
		<use xlink:href="#SVGID_1_"  style="overflow:visible;"/>
	</clipPath>
	<g class="st5">
		<path class="st6" d="M85.9,64.7c-1.8-5.1-2.5-10.4-2.2-15.8"/>
	</g>
</g>
<path class="st7" d="M27.2,53L27.2,53c-0.1,1.2-1.1,0.3-1.1,0.3c-1.7-2.9-0.7-16.3-0.7-16.3l-0.8-0.4c-1.7-3.5,3.8-11.1,3.8-11.1
	s-1.2,0.6-0.9-1.5s7.1-5.8,7.1-5.8s-4.5-0.3-2.4-2c2.1-1.7,10.8-1.4,10.8-1.4s-3.9-2.8-1.8-3.8s8.2,3.6,8.2,3.6s4.2-8.6,6.5-5.9
	c0,0,1.3,2.1-1.6,4.7c0,0,10.1-2.7,11.6,1.2c0,0-0.6,0.9-3.1,0.8c0,0,8.3,3.9,8.5,7c0,0.6-0.4,1.2-1,1.3c0,0,6.5,9.7,4.8,14.3
	c0,0-0.3,0.3-1.1,0c0,0,1.8,18.1,6.8,27.4s12,25,14.3,29.2c0,0,3,5.5,3.5,8c0,0.2,0,0.4-0.2,0.6c-0.3,0.3-0.7,0.3-1,0.1l-1.8-1.5
	c0,0,11.2,24.2,9.2,49.8c0,0-0.7,16-2.3,16.9s-1.2-2.6-1.2-2.6s-8.8,39.7-23.8,61.8c-0.2,0.3-0.5,0.5-0.9,0.6
	c-3.2,0.5-18.6,2.9-27.9,0.7c-0.1,0-0.2-0.1-0.3-0.1c-0.3-0.2-0.3-0.7-0.1-0.9c0.9-1.1,2.2-1.9,3.6-2.2L41.7,204
	c0,0-36.7-4.4-45.7-29.1s15-63.4,15-63.4s5.9-11.6,11-23C26.9,77.3,28.7,65.1,27.2,53z"/>
<path class="st8" d="M11,111.4c0,0,5.9-11.6,11-23c1-2.3,2.2-4.3,3-6.6c0.8-2.2,2.1-4.2,3.8-5.8c2.9-2.7,7-3.9,10.9-3
	c4,0.7,7.4,3.5,8.7,7.4c1.2,4.2,1.5,8.5,1.1,12.8c-0.9,12.6-2,21.8-2.7,26.4c-0.4,2.8-0.7,5.6-0.8,8.4c-0.4,8.8-0.9,27,1.9,37.1
	c3.7,13.6,5.8,30.6-6.1,38.7c0,0-36.6-4.4-45.7-29.1S11,111.4,11,111.4z"/>
<path class="st8" d="M32.2,36.7c3.7-1.5,3-5.4,1.5-6.4c-1.3-0.8-3.4-0.6-4.2-0.5c0,0-0.1,0-0.1,0c-0.1-0.1-0.1-0.2-0.1-0.2
	c3.9-6.3,12.9-5.7,12.9-5.7C55.2,24,57.8,29.1,58.8,31c0,0.1,0,0.2,0,0.3c-0.1,0.1-0.2,0.2-0.4,0.1c-1.6-0.8-5.7-2.7-8.7-1.1
	c-3.8,2-3,6.4,1,7.7c2.7,0.7,5.4,0.9,8.2,0.6c0,0,0.1,0,0.1,0c0.3,0,0.5,0.3,0.4,0.6c-0.4,2.2-1.8,9.4-4,10.5
	c-0.5-0.3-0.9-0.9-0.8-1.5c0,0-5.6,10.1-11.2,11.3c-0.7,0.2-0.6-1.4-0.6-1.4s-2.7,4-5.1,4.2c-1.3-1.4-2.3-3.1-2.9-5
	c0,0-0.6,1.1-1,1.1s-5.2-6.7-4.1-13c0,0-0.6,1.2-1.2,1.2S27,39.7,28,37.2c0,0,0,0,0,0c0-0.1,0.2-0.2,0.3-0.1
	C28.7,37.3,30,37.6,32.2,36.7z"/>
<path class="st1" d="M37.5,37.9l2.4,1.8c0.2,0.1,0.5,0.1,0.7,0l2.5-1.5c1-0.5,1.6-1.6,1.6-2.7c-0.1-1.1-1-2-2.1-2l-2-0.1l-2-0.1
	c-1.1-0.1-2.1,0.7-2.3,1.8C36.1,36.1,36.6,37.3,37.5,37.9z"/>
<path class="st1" d="M37.8,62.5c1.5-11.6,1.9-15.7,1.7-17.5c0-0.2-0.1-0.3-0.3-0.4c-0.3-0.2-0.7-0.1-0.9,0.2
	c-2.1,3.3-5.1,14.5-5.1,14.5L37.8,62.5z"/>
<path class="st1" d="M40.8,67.8c1.4-11.1,1.3-12.3,1.1-14c0-0.2-0.1-0.3-0.3-0.4c-0.3-0.2-0.6-0.1-0.8,0.2c-2,3.2-3.7,9.7-3.7,9.7
	L40.8,67.8z"/>
<path class="st1" d="M29.2,58.3l4.2,2.3l0,0c1.2-10.9,1.3-14.7,1.1-16.4c0-0.2-0.1-0.4-0.3-0.5c-0.3-0.2-0.7-0.1-0.8,0.2
	C31.5,47.2,29.2,57.8,29.2,58.3L29.2,58.3z"/>
<path class="st7" d="M69.7,131.3c0,0-3.1,7.6-13.9,16.2s-29.2-0.3-29.2-0.3c2,1.3,0.4,2.1,0.4,2.1c-17-6.4-15.6-23.5-15.6-23.5
	c0,0,0,0,0,0c-0.2,0.4-0.7,0.6-1.2,0.4c-2.1-2.4,2-15.5,2-15.5c-2.1-0.4-1.1-4.5-1.1-4.5c3-16.2,15.3-47.6,18.8-48.9s6.7,0.5,10,5.7
	c3.1,4.8,1.7,47.4,1.7,47.4l12.9-11.7L69.7,131.3z"/>
<ellipse transform="matrix(3.838781e-02 -0.9993 0.9993 3.838781e-02 -4.3394 60.7324)" class="st2" cx="29.4" cy="32.6" rx="0.8" ry="0.8"/>
<ellipse transform="matrix(3.996804e-02 -0.9992 0.9992 3.996804e-02 13.6331 81.403)" class="st2" cx="49.2" cy="33.6" rx="0.8" ry="0.8"/>
<ellipse transform="matrix(3.838781e-02 -0.9993 0.9993 3.838781e-02 -2.2364 83.1372)" class="st1" cx="42.1" cy="42.7" rx="0.7" ry="0.7"/>
<line class="st9" x1="54.6" y1="98.7" x2="41.7" y2="110.4"/>
<line class="st9" x1="40.7" y1="115.6" x2="40.7" y2="105.6"/>
<path class="st9" d="M68.7,131.3c-8.7,19.4-23.7,20-23.7,20"/>
</svg>
