<svg fill="none" xmlns="http://www.w3.org/2000/svg" viewBox="0 0 689 446">
  <path d="M439.121 271.14a66.926 66.926 0 01.128 16.661.67.67 0 00.364.699c.085.04.178.062.273.064h3.823M423.106 272.857a57.894 57.894 0 010 15.029.657.657 0 00.637.763h3.824" stroke="#506336" stroke-width=".71" stroke-miterlimit="10" stroke-linecap="round"/>
  <path d="M474.379 354.51s-19.646-25.437-27.207-7.059c-7.562 18.379 9.111 45.258 21.005 52.295 0 0-24.574-19.798-33.069-12.019-8.496 7.78 12.17 25.077 12.17 25.077s-25.848 1.06-24.34 8.84c1.508 7.779 26.23 5.871 26.23 5.871h180.533s32.114-25.14 15.526-38.558c-6.966-5.639-18.074 3.476-18.074 3.476s24.637-41.251 6.945-48.161c-17.692-6.911-35.406 13.482-35.406 13.482l-124.313-3.244z" fill="#798E44"/>
  <path d="M420.346 214.394s6.371 1.526 4.502 11.362" stroke="#506336" stroke-width=".71" stroke-miterlimit="10" stroke-linecap="round"/>
  <path d="M610.437 305.459a512.209 512.209 0 01-4.078 24.674c-.744 3.9-1.508 7.758-2.337 11.553-1.571 7.376-3.271 14.584-5.118 21.558-11.767 9.284-35.364 15.601-62.571 15.601-27.208 0-50.804-6.359-62.571-15.622a490.77 490.77 0 01-5.14-21.537 556.05 556.05 0 01-2.272-11.277v-.17a547.675 547.675 0 01-4.099-24.78c-9.027-64.145-5.438-122.587 7.455-159.789a337.417 337.417 0 0133.154-72.072 156.642 156.642 0 0033.515 3.477 157.06 157.06 0 0032.666-3.286 395.466 395.466 0 0133.983 71.839c12.85 37.244 16.439 95.686 7.413 159.831z" fill="#B1CDD8"/>
  <path d="M598.904 363.244a346.582 346.582 0 01-4.248 14.839 381.178 381.178 0 01-10.174 29.676c-11.044 8.479-28.651 14.012-48.467 14.012a96.713 96.713 0 01-29.162-4.239 62.963 62.963 0 01-5.904-2.12 57.686 57.686 0 01-12.744-7.101.763.763 0 000-.191c-3.696-9.497-7.2-19.672-10.407-30.419a376.415 376.415 0 01-3.674-13.1c0-.361-.192-.742-.298-1.124.276.212.552.445.85.636a68.984 68.984 0 0023.044 10.239 150.237 150.237 0 0038.677 4.748c27.144-.254 50.74-6.571 62.507-15.856zM569.424 73.831a157.067 157.067 0 01-32.666 3.286 156.638 156.638 0 01-33.516-3.476c9.345-14.839 20.539-28.914 33.516-39.216 12.276 9.9 23.299 24.335 32.666 39.406z" fill="#252347"/>
  <path d="M488.013 407.865c-5.713 3.646-10.365 12.867-12.743 24.823a1.951 1.951 0 01-1.449 1.556 1.954 1.954 0 01-2.013-.687c-5.586-6.995-9.303-19.375-9.303-33.471 0-15.772 4.651-29.38 11.384-35.74a366.88 366.88 0 003.674 13.1 423.735 423.735 0 0010.45 30.419zM584.652 407.865c5.714 3.646 10.365 12.867 12.744 24.823a1.95 1.95 0 001.448 1.556 1.957 1.957 0 002.014-.687c5.586-6.995 9.303-19.375 9.303-33.471 0-15.772-4.652-29.38-11.385-35.74a364.792 364.792 0 01-3.674 13.1 423.244 423.244 0 01-10.45 30.419zM545.656 414.585a117.737 117.737 0 01-3.398 30.122 1.744 1.744 0 01-3.377 0 117.187 117.187 0 01-3.398-30.143c0-14.839 2.124-27.981 5.097-34.977 3.037 7.017 5.076 20.053 5.076 34.998z" fill="#6A8A92"/>
  <path d="M538.457 77.117s23.066 150.801 2.464 301.665" stroke="#9AB7C1" stroke-width=".5" stroke-miterlimit="10"/>
  <path d="M556.489 372.359a2.568 2.568 0 002.57-2.565 2.567 2.567 0 00-2.57-2.565 2.567 2.567 0 00-2.57 2.565 2.568 2.568 0 002.57 2.565z" fill="#446577"/>
  <path d="M588.008 364.791c1.42 0 2.57-1.148 2.57-2.564a2.567 2.567 0 00-2.57-2.565 2.567 2.567 0 00-2.57 2.565 2.567 2.567 0 002.57 2.564zM524.652 372.359a2.568 2.568 0 002.57-2.565 2.567 2.567 0 00-2.57-2.565 2.567 2.567 0 00-2.57 2.565 2.568 2.568 0 002.57 2.565zM488.884 366.911c1.42 0 2.57-1.148 2.57-2.565a2.567 2.567 0 00-2.57-2.565 2.568 2.568 0 00-2.57 2.565 2.567 2.567 0 002.57 2.565z" fill="#252347"/>
  <path d="M555.746 256.831a3.161 3.161 0 003.164-3.158 3.162 3.162 0 00-3.164-3.159 3.162 3.162 0 00-3.165 3.159 3.162 3.162 0 003.165 3.158zM553.622 185.819a3.162 3.162 0 003.164-3.159 3.161 3.161 0 00-3.164-3.158 3.162 3.162 0 00-3.165 3.158 3.162 3.162 0 003.165 3.159zM549.374 114.786a3.162 3.162 0 003.164-3.159 3.161 3.161 0 00-3.164-3.158 3.162 3.162 0 00-3.165 3.158 3.162 3.162 0 003.165 3.159zM553.622 327.844a3.162 3.162 0 003.164-3.159 3.161 3.161 0 00-3.164-3.158 3.162 3.162 0 00-3.165 3.158 3.162 3.162 0 003.165 3.159z" fill="#6A8A92"/>
  <path d="M498.251 289.073h-92.922v8.034h92.922v-8.034z" fill="#6D5241"/>
  <path d="M496.658 297.107l11.151 137.192M427.588 297.107l-11.15 137.192M406.922 297.107l-11.151 137.192M405.139 324.558h20.219M402.653 351.988h20.114M400.189 379.418h20.751M398.427 406.869h20.028" stroke="#513D30" stroke-width=".75" stroke-miterlimit="10" stroke-linecap="round"/>
  <path d="M369.329 427.876s3.887-23.89-3.016-23.89c-6.903 0-9.919 5.999-10.789 9.179 0 0-2.124-23.318-12.086-25.437-9.961-2.12-5.607 23.677-5.607 23.677s-26.336-52.294-49.211-36.036c-22.875 16.259 29.735 52.507 29.735 52.507h50.974z" fill="#506336"/>
  <path d="M425.294 225.65a.272.272 0 01-.223.113.28.28 0 01-.223-.113 10.027 10.027 0 00-5.158-2.877 10.048 10.048 0 00-5.886.524 16.463 16.463 0 00-6.344 4.973 16.419 16.419 0 00-3.214 7.385c-.892 5.66.871 14.838 5.31 23.317 3.143 5.999 23.002 23.487 23.002 23.487l14.337-21.918s9.557-16.598 1.592-29.147c-7.964-12.549-15.929-10.238-15.929-10.238s-5.841 1.568-7.264 4.494z" fill="#798E44"/>
  <path d="M466.881 255.348c1.454 0 2.633-.598 2.633-1.336 0-.737-1.179-1.335-2.633-1.335-1.455 0-2.634.598-2.634 1.335 0 .738 1.179 1.336 2.634 1.336z" fill="#506336"/>
  <path d="M450.06 252.91l5.139 5.956a2.13 2.13 0 002.783.255l7.157-5.088" stroke="#506336" stroke-width=".71" stroke-miterlimit="10" stroke-linecap="round"/>
  <path d="M449.749 262.851c.082-.733-1.023-1.458-2.469-1.619-1.445-.161-2.683.303-2.765 1.036-.082.733 1.023 1.457 2.469 1.618 1.445.161 2.683-.302 2.765-1.035z" fill="#506336"/>
  <path d="M471.256 241.463c-.234 1.971-1.614 3.413-3.08 3.222a3.226 3.226 0 01-2.124-3.879M468.177 244.728l-1.445 11.658" stroke="#313330" stroke-width=".75" stroke-miterlimit="10" stroke-linecap="round"/>
  <path d="M652.83 365.809l5.586 68.49M673.984 365.215l14.231 69.084M616.447 365.215l-14.23 69.084" stroke="#513D30" stroke-width=".75" stroke-miterlimit="10" stroke-linecap="round"/>
  <path d="M677.637 357.775h-64.865v8.034h64.865v-8.034z" fill="#6D5241"/>
  <path d="M626.132 228.49l10.513 129.285M646.798 228.49l10.513 129.285M648.583 254.351h-20.22M651.068 280.213h-20.114M652.065 306.053H632.78M654.615 331.914h-19.349" stroke="#513D30" stroke-width=".75" stroke-miterlimit="10" stroke-linecap="round"/>
  <path d="M649.941 219.947h-64.079v8.543h64.079v-8.543z" fill="#6D5241"/>
  <path d="M639.152 144.928s-6.372 1.526-4.503 11.362M620.652 203.307a48.086 48.086 0 00-.404 15.029.657.657 0 01-.637.763h-3.823M636.752 204.134a45.099 45.099 0 00-.255 14.308.657.657 0 01-.637.763h-3.802M649.963 189.635v20.668" stroke="#506336" stroke-width=".71" stroke-miterlimit="10" stroke-linecap="round"/>
  <path d="M650.005 213.609c.739 0 1.338-1.177 1.338-2.628 0-1.452-.599-2.629-1.338-2.629-.739 0-1.338 1.177-1.338 2.629 0 1.451.599 2.628 1.338 2.628zM592.617 185.904c1.455 0 2.634-.598 2.634-1.336 0-.737-1.179-1.335-2.634-1.335-1.454 0-2.634.598-2.634 1.335 0 .738 1.18 1.336 2.634 1.336z" fill="#506336"/>
  <path d="M609.46 183.445l-5.14 5.956a2.124 2.124 0 01-2.782.255l-7.158-5.088" stroke="#506336" stroke-width=".71" stroke-miterlimit="10" stroke-linecap="round"/>
  <path d="M634.182 156.185a.28.28 0 00.223.113.274.274 0 00.223-.113 10.035 10.035 0 0111.044-2.353 16.441 16.441 0 019.558 12.358c.892 5.66-.871 14.839-5.31 23.318-3.143 5.999-23.002 23.487-23.002 23.487l-14.336-22.088s-9.558-16.598-1.593-29.147c7.964-12.549 15.929-10.239 15.929-10.239s5.883 1.739 7.264 4.664z" fill="#798E44"/>
  <path d="M.043 427.028s-1.7-38.41 21.24-39.555c22.938-1.145-5.162 33.111-5.162 33.111s12.51-14.245 19.498-9.878c6.987 4.366-4.63 10.747-4.63 10.747s19.794-5.342 18.626 1.696c-1.168 7.037-49.572 3.879-49.572 3.879z" fill="#506336"/>
  <path d="M223.245 166.869s13.594-16.153 20.964-16.535c5.734-.296 13.295 2.12 15.568 1.505 2.272-.614-7.498-11.446-20.793-10.302-13.296 1.145-19.774 13.1-19.774 13.1l4.035 12.232z" fill="#222322"/>
  <path d="M224.733 155.506a17.864 17.864 0 016.094-6.201 17.91 17.91 0 018.306-2.596c7.837-.424 18.159 2.523 21.239 1.696 3.08-.827-10.131-13.969-28.312-12.443-18.181 1.526-27.186 17.276-27.186 17.276l19.859 2.268z" fill="#313330"/>
  <path d="M178.006 240.212c12.595-16.428 24.85-36.354 38.019-55.114 3.674-5.257 11.83-20.964 9.578-26.963-2.421-6.359-6.18-14.839-9.727-15.792-5.628-1.527-50.273 27.557-56.985 39.152-.467.614 12.616 67.196 19.115 58.717z" fill="#513D30"/>
  <path d="M83.322 136.301s-2.442-10.599-12.361-11.044" stroke="#506336" stroke-width=".71" stroke-miterlimit="10"/>
  <path d="M60.956 105.098s17.799 8.182 10.28 20.71c-.021 0-11.894-4.091-10.28-20.71z" fill="#506336"/>
  <path d="M71.13 125.151c.213-1.505-10.62-2.628-17.373 9.539 0 0 15.866 1.081 17.373-9.539z" fill="#506336"/>
  <path d="M60.426 104.462a59.531 59.531 0 0110.62 20.795" stroke="#364222" stroke-width=".5" stroke-miterlimit="10" stroke-linecap="round"/>
  <path d="M112.059 375.39c0 17.552 9.6 45.13 9.6 45.13 22.301 5.618 60.192 3.752 60.192 0s-9.091-7.016-9.091-7.016l22.599-43.9-83.3 5.786z" fill="#513D30"/>
  <path d="M53.757 334.881a285.226 285.226 0 01-10.173-40.742h-.128a18.323 18.323 0 01-2.782 3.54.214.214 0 01-.18.101.214.214 0 01-.18-.101c-1.212-5.829.53-18.717 1.273-23.593a.168.168 0 00-.16-.11.168.168 0 00-.158.11 19.217 19.217 0 01-2.486 3.858 1.166 1.166 0 01-1.827.136 1.162 1.162 0 01-.296-.623c-3.547-24.611 12.17-70.122 14.336-76.27a.21.21 0 00-.08-.224.214.214 0 00-.239-.009c-.47.348-.994.62-1.55.806a1.561 1.561 0 01-1.52-.379 1.546 1.546 0 01-.413-1.508c2.953-11.362 15.717-32.008 15.717-32.008s7.243-17.637 15.059-33.535c7.816-15.899 15.908-41.633 15.93-41.633 2.845-15.495 6.945-32.284 6.945-32.284-1.912 2.12-3.038.318-3.038.318-1.593-6.529 7.179-26.455 7.179-26.455s-1.72 1.739-2.23 2.12a1.956 1.956 0 01-2.421.276 1.546 1.546 0 01-.51-1.802c2.676-7.483 21.473-17.297 24.361-18.76-1.699.382-8.283 1.738-9.578.445-.744-.742.531-2.438.531-2.438 11.384-9.072 26.251-5.702 30.095-4.62a.234.234 0 00.192-.403c-4.609-4.388-5.586-6.91-5.735-8.12A.86.86 0 01139.9.32a.86.86 0 01.619-.299c5.353 0 9.877 7.25 11.172 9.56a.96.96 0 001.105.445c3.016-.848 14.867-3.391 28.673 4.77a1.612 1.612 0 01.412 2.285c-.17.235-.401.42-.667.534a11.001 11.001 0 01-6.202 0s-.149 0 0 .127c4.248 1.845 22.577 8.755 25.126 26.286a2.123 2.123 0 01-2.804 2.12 6.62 6.62 0 01-2.803-2.863c.403 2.12 4.863 25.862-3.292 41.866a.621.621 0 01-.799.198.627.627 0 01-.221-.198 8.113 8.113 0 01-1.593-4.07 106.974 106.974 0 01-4.248 13.27 122.09 122.09 0 00-.467 36.884 134.112 134.112 0 0018.202 51.956l2.379 3.582c35.087 52.994 82.514 142.618-11.682 185.226l-34.471 6.804-19.625 38.156s9.09 3.264 9.09 7.016c0 3.752-37.869 5.618-60.192 0 0 0-5.67-14.244-10.258-29.316a370.71 370.71 0 00-15.271-40.848l-8.326-18.93z" fill="#6D5241"/>
  <path d="M195.55 171.362s-22.556-43.158-33.091-41.759c-10.535 1.399-19.413 12.718-18.945 43.158a205.078 205.078 0 005.671 42.65 233.099 233.099 0 016.371 58.696c-.382 16.959-2.315 36.037-7.837 51.617-13.126 36.948 10.62 53.121 10.62 53.121s70.365-1.611 85.211-55.707c14.847-54.097-13.932-96.704-29.203-120.827-15.271-24.123-18.797-30.949-18.797-30.949zM187.16 54.923a.384.384 0 01.51.233c1.465 4.79-1.168 17.361-2.124 17.276-.956-.085-2.124-2.332-2.124-2.332 1.147 11.871-8.326 23.53-9.048 23.53-.722 0-1.741-2.12-1.741-2.12a22.39 22.39 0 01-5.799 8.967c-4.248-.742-8.729-8.48-8.729-8.48s0 2.926-1.211 2.544c-10.003-2.989-18.903-22.3-18.903-22.3a2.947 2.947 0 01-1.699 2.629c-3.844-2.247-5.586-15.708-6.032-19.905a.915.915 0 011.084-1.017c4.92.905 9.969.847 14.867-.17 7.455-1.886 9.409-10.026 2.697-14.139-5.288-3.243-12.998-.381-16.014.975a.489.489 0 01-.637-.7c2.124-3.476 7.391-12.59 31.137-11.17 0 0 16.354 0 22.704 12.104a.32.32 0 01.027.166.323.323 0 01-.198.26.321.321 0 01-.169.019 11.98 11.98 0 00-7.752.381 7.075 7.075 0 001.997 11.998 9.225 9.225 0 007.157 1.25z" fill="#8C6F60"/>
  <path d="M172.696 49.115a3.882 3.882 0 00-3.866-3.286h-6.924a3.894 3.894 0 00-2.523.994 3.876 3.876 0 00-1.257 2.398 5.314 5.314 0 002.57 4.875l4.248 2.798a1.018 1.018 0 001.146 0l4.248-2.904a5.32 5.32 0 002.358-4.875z" fill="#313330"/>
  <path d="M139.648 46.444s2.124-4.727 7.116-1.166M185.673 47.504s-2.4-4.6-7.157-.785M170.871 59.735a5.474 5.474 0 01-5.137 3.756 5.49 5.49 0 01-3.197-.979 5.471 5.471 0 01-2.031-2.65" stroke="#201600" stroke-width=".71" stroke-miterlimit="10" stroke-linecap="round"/>
  <path d="M278.638 187.79c-5.564 3.032 16.355-8.373 19.71-16.449 2.124-5.299.192-13.439 1.232-15.559 1.041-2.12 9.983 9.348 6.542 22.236-3.441 12.889-16.375 17.149-16.375 17.149l-11.109-7.377z" fill="#222322"/>
  <path d="M289.83 189.571a17.88 17.88 0 007.161-4.891 17.83 17.83 0 004.011-7.679c1.784-7.631.68-18.294 2.124-21.198 1.445-2.904 12.022 12.38 7.349 29.995-4.673 17.615-21.791 23.699-21.791 23.699l1.146-19.926z" fill="#313330"/>
  <path d="M138.863 174.224s17.798 19.799 30.775 34.998a22.925 22.925 0 0013.05 7.619 22.964 22.964 0 0014.965-2.15c18.393-9.518 42.818-20.647 61.317-24.823 6.266-1.399 22.896-4.875 28.44-1.611 5.947 3.498 13.55 8.67 13.89 12.316.531 5.787-36.107 44.515-48.553 49.179a1.068 1.068 0 01-1.304-.558 1.06 1.06 0 01-.098-.502 10.443 10.443 0 012.57-6.36s-20.793 24.781-28.29 28.49a1.313 1.313 0 01-1.21-.047 1.32 1.32 0 01-.659-1.013 30.96 30.96 0 01.509-4.981c3.186-3.392-37.954 32.284-66.669 22.724-28.716-9.56-39.527-26.434-39.527-26.434l20.794-86.847z" fill="#6D5241"/>
  <path d="M155.004 286.53s-23.851-9.391-36.935-25.438M143.79 179.735l-4.928-5.49" stroke="#313330" stroke-width=".66" stroke-miterlimit="10" stroke-linecap="round"/>
  <path d="M211.245 142.66s61.849 23.869 100.801 56.747l53.799-64.378s-47.257-39.83-107.151-52.549l-47.449 60.18z" fill="#EBEDF7"/>
  <path d="M242.256 131.235c.679-1.081-.468-2.947-1.615-2.629-7.37 2.12-21.069 11.617-25.996 15.157a3.112 3.112 0 00-.977 3.794 15.58 15.58 0 001.72 3.074 8.317 8.317 0 004.715 2.565 3 3 0 002.591-.573 106.05 106.05 0 0019.562-21.388zM311.622 174.097c1.126-.593 2.91.7 2.485 1.823-2.697 7.165-13.274 20.032-17.204 24.674a3.125 3.125 0 01-3.865.657 15.533 15.533 0 01-2.931-1.95 8.277 8.277 0 01-2.124-4.897 2.976 2.976 0 01.765-2.522 106.173 106.173 0 0122.874-17.785z" fill="#3A3C39"/>
  <path d="M311.58 159.152a10.25 10.25 0 013.059 7.886c0 .466.764.827 1.231.572a12.454 12.454 0 005.841-8.034 11.855 11.855 0 00-1.805-10.598 90.461 90.461 0 01-2.294 3.137 90.378 90.378 0 01-6.032 7.037v0zM290.999 148.617a52.243 52.243 0 01-2.634 2.417l-1.296 1.081a68.595 68.595 0 01-2.548 1.95 29.96 29.96 0 01-11.831-4.854 28.835 28.835 0 01-9.387-8.479c.24-1.004.509-2.014.807-3.032a45.045 45.045 0 011.741-4.854c3.484-8.373 8.666-14.838 13.763-17.679a43.833 43.833 0 0111.257-4.791 44.25 44.25 0 005.416 3.901 45.209 45.209 0 005.799 3.095c.552 3.949.602 7.951.148 11.913-.722 5.744-4.694 12.888-11.235 19.332z" stroke="#252347" stroke-width=".27" stroke-miterlimit="10" stroke-linecap="round"/>
  <path d="M284.521 154.065l-1.847 1.271a44.334 44.334 0 01-4.036 2.332 22.136 22.136 0 01-9.324-3.54 27.004 27.004 0 01-4.609-3.603 30.133 30.133 0 01-.828-.87 13.13 13.13 0 01-1.614-2.119M302.17 117.498a45.132 45.132 0 01-5.798-3.094 44.355 44.355 0 01-5.416-3.964 28.115 28.115 0 018.751-.954 25.391 25.391 0 012.463 8.012v0zM262.199 147.43a5.437 5.437 0 00-4.099 1.526c-.191.148-.574 0-.658-.276a6.004 6.004 0 011.04-4.854 6.176 6.176 0 014.737-2.925 30.147 30.147 0 00-.404 1.908 43.551 43.551 0 00-.616 4.621v0z" stroke="#252347" stroke-width=".27" stroke-miterlimit="10" stroke-linecap="round"/>
  <path d="M278.595 157.711a4.95 4.95 0 01.212 4.239c0 .233.234.509.51.467a6.372 6.372 0 004.248-2.883 5.742 5.742 0 00.871-5.342l-1.657 1.123a47.18 47.18 0 01-4.184 2.396v0z" stroke="#252347" stroke-width=".27" stroke-miterlimit="10" stroke-linecap="round"/>
  <path d="M270.736 153.874a11.94 11.94 0 01-2.931 3.116c-.212.149-.616-.106-.573-.36a11.5 11.5 0 011.784-3.837 10.216 10.216 0 013.61-3.498 9.816 9.816 0 01-1.89 4.579z" fill="#EBEDF7" stroke="#252347" stroke-width=".27" stroke-miterlimit="10" stroke-linecap="round"/>
  <path d="M296.288 114.361L272.67 149.21M305.313 122.755h21.962M334.093 121.632s14.506 7.695 19.816 11.977M332.33 124.091s14.506 7.695 19.816 11.977M330.334 126.487s14.506 7.695 19.816 11.977M279.488 112.687l1.465-14.712-4.651-1.971M260.245 88.84a107.874 107.874 0 0114.995 4.239M257.695 91.764a107.835 107.835 0 0114.995 4.24M247.246 105.798a107.983 107.983 0 0114.995 4.239M244.677 108.744a107.888 107.888 0 0114.995 4.24M241.745 112.687a107.849 107.849 0 0114.995 4.24M239.132 115.612a107.983 107.983 0 0114.995 4.239M236.245 119.173a107.849 107.849 0 0114.995 4.24M233.675 122.099a107.845 107.845 0 0114.995 4.239M320.521 174.881l-19.519-14.775 14.166-18.675 20.178 13.969-14.825 19.481zM284.203 158.304l15.887 10.832 11.49-1.017" stroke="#252347" stroke-width=".27" stroke-miterlimit="10" stroke-linecap="round"/>
  <path d="M424.849 225.756s13.274 22.999 7.816 56.259M427.844 277.817s3.058-6.592 6.138-7.567M432.176 247.419s10.343 5.681 11.554 17.361" stroke="#91A553" stroke-width=".5" stroke-miterlimit="10" stroke-linecap="round"/>
  <path d="M426.08 248.628a1.21 1.21 0 10-1.211-1.208 1.21 1.21 0 001.211 1.208zM438.867 246.826a1.21 1.21 0 001.211-1.208 1.21 1.21 0 00-1.211-1.208 1.21 1.21 0 00-1.211 1.208 1.21 1.21 0 001.211 1.208zM430.646 250.853a2.843 2.843 0 003.114 2.227 2.846 2.846 0 002.515-2.884l-5.629.657z" fill="#313330"/>
  <path d="M407.984 254.5s7.285-17.701 19.859-20.181M433.96 259.545a24.867 24.867 0 00-10.237 13.969" stroke="#91A553" stroke-width=".5" stroke-miterlimit="10" stroke-linecap="round"/>
  <path d="M424.891 258.57l5.904 6.804a3.208 3.208 0 003.547.912l10.131-3.773" stroke="#506336" stroke-width=".71" stroke-miterlimit="10" stroke-linecap="round"/>
  <path d="M626.706 211.659s-3.951-34.297 7.943-55.368M626.133 199.067a45.912 45.912 0 00-3.78 6.974M626.09 191.288s8.496 8.649 8.241 15.114M628.171 174.987a28.75 28.75 0 00-15.483 14.626" stroke="#91A553" stroke-width=".5" stroke-miterlimit="10" stroke-linecap="round"/>
  <path d="M635.542 179.163a1.21 1.21 0 001.21-1.208 1.21 1.21 0 00-2.421 0 1.21 1.21 0 001.211 1.208zM622.755 177.361a1.21 1.21 0 001.211-1.208 1.21 1.21 0 00-2.421 0 1.21 1.21 0 001.21 1.208zM630.995 181.41a2.845 2.845 0 01-3.113 2.226 2.836 2.836 0 01-2.515-2.884l5.628.658z" fill="#313330"/>
  <path d="M632.058 161.759s15.207 7.631 19.306 24.123" stroke="#91A553" stroke-width=".5" stroke-miterlimit="10" stroke-linecap="round"/>
</svg>
