<svg version="1.1" id="Слой_2" xmlns="http://www.w3.org/2000/svg" xmlns:xlink="http://www.w3.org/1999/xlink" x="0" y="0" viewBox="0 0 539.1 525.2" xml:space="preserve"><style>.st3{fill:#506336}.st7{fill:#446577}.st8{fill:#9ab7c1}.st10{fill:#6d5241}.st11{fill:#8c6f60}.st12{fill:#313330}.st14{fill:none;stroke:#313330;stroke-linecap:round;stroke-miterlimit:10}.st15{fill:#201600}.st19{fill:none;stroke:#aeb9c1;stroke-linecap:round;stroke-miterlimit:10}</style><path d="M538.7 470.9c-4.8-11.7-19.9-8-19.9-8s21.5-31.7 6.2-42.6c-15.3-11-43.8 10.5-43.8 10.5s29.3-69.8 5.7-96.8-56.7 19.8-56.7 19.8 6.9-33.3-3.6-45.8-38.8 22-38.8 22l-6.8 44.2-211.8-5.2s-31.3-46.4-60.1-26.3C80.3 362.8 118 402 118 402s-25.2-10.7-44.3-3.2-1.7 25-1.7 25-51.3-17.6-69.4 21.9c-17.4 37.9 59.9 26.4 59.9 26.4-13.9 10.3 7.8 11.5 7.8 11.5l315.8.6.1-1.1c33.3.3 94.4.8 106.5-.3 16.6-1.4 50.8-.2 46-11.9z" fill="#798e44"/><path d="M466 479.4c2.8-2.5 4.5-5.6 4.5-9 0-7.1-7.5-13.1-17.5-14.7 1.7-2.9 2.6-6.1 2.6-9.5 0-11.6-10.7-21-23.8-21s-23.8 9.4-23.8 21c0 3.5 1 6.9 2.8 9.8-2.7-.5-5.4-.8-8.2-.8-9.7 0-18.3 3.1-23.6 7.9-3.5.9-6.7 2.6-9.4 4.9v-15l-111.9 2.3v12.9c-4.1-3.7-10.7-6.1-18.1-6.1-5.1-.1-10.2 1.2-14.7 3.6-.1-1.9-.3-3.8-.7-5.6-3-14.2-14.7-24-26-21.9-6.7 1.2-11.8 6.4-14.2 13.4-2.5-.5-5.2-.6-7.7-.1-12.3 2.3-19.8 15.6-16.7 29.8 2.5 11.8 11.6 20.5 21.6 21.8-1.1.8-1.7 2-1.8 3.3 0 4 7.3 7.2 16.2 7.2 2.4 0 4.9-.2 7.2-.8-.3.6-.5 1.4-.5 2.1 0 5.7 11.1 10.3 24.8 10.3h211.3c9.5 0 17.4-4.6 20-11 2.1.4 4.2.6 6.4.6 13.4 0 24.3-8 24.3-17.8-.2-9.3-10.4-17.1-23.1-17.6z" fill="#e2e2e2"/><path d="M123.2 200.3c2.2-2.1-6.6-11.2-15-10.3" fill="none" stroke="#506336" stroke-width="1.77" stroke-miterlimit="10"/><path class="st3" d="M81.9 188.6s17 15.4 27.1 1.5c0-.1-9.9-10.9-27.1-1.5z"/><path class="st3" d="M108.2 190.2c-1.5.9-7.8-10.2 2.2-23.1 0 .1 8.6 16.6-2.2 23.1z"/><defs><path id="SVGID_1_" d="M81.9 188.6s17 15.4 27.1 1.5c0-.1-9.9-10.9-27.1-1.5z"/></defs><clipPath id="SVGID_2_"><use xlink:href="#SVGID_1_" overflow="visible"/></clipPath><g clip-path="url(#SVGID_2_)"><path d="M81 188.3c8.9 2.4 18.2 2.9 27.3 1.7" fill="none" stroke="#364222" stroke-width="1.23" stroke-linecap="round" stroke-miterlimit="10"/></g><path d="M403.9 331.8c-1.5 10.2-3.3 20.3-5.2 30.1-1 4.8-1.9 9.5-3 14.1-2 9-4.1 17.8-6.5 26.3-14.4 11.2-43.3 18.7-76.4 18.4s-61.9-8.2-76.1-19.7c-2.2-8.6-4.2-17.3-6-26.4-.9-4.5-1.8-9.1-2.7-13.8v-.2c-1.8-9.9-3.4-20-4.7-30.3-10.3-78.4-5.4-149.8 10.8-195.1 0 0 14.4-45.9 41.2-87.6 13.4 3 27.1 4.5 40.8 4.6 13.4.2 26.7-1.1 39.8-3.7 25.5 41.8 40.7 88.1 40.7 88.1 15.2 45.5 18.9 117 7.3 195.2z" fill="#d6e2ea"/><path class="st7" d="M389.2 402.2c-1.7 6.1-3.4 12.1-5.2 18-3.9 12.8-8.2 24.8-12.7 36.1-13.5 10.3-35.1 16.8-59.2 16.6-12 0-24-1.9-35.5-5.6-2.4-.8-4.8-1.7-7.2-2.7-5.5-2.3-10.8-5.2-15.6-8.8 0-.1-.1-.2-.1-.2-4.4-11.6-8.6-24.1-12.4-37.3-1.5-5.2-3-10.6-4.3-16-.1-.4-.2-.9-.3-1.4.3.3.7.5 1 .8 6.7 5.1 16.4 9.5 28 12.7 15.4 4.1 31.2 6.2 47.1 6.2 33.2.3 62-7.2 76.4-18.4zM356.3 48.4c-13.1 2.6-26.5 3.8-39.8 3.7-13.7 0-27.4-1.6-40.8-4.6C287.2 29.6 301 12.4 317-.1c14.7 12.4 28 30 39.3 48.5z"/><path class="st8" d="M253.6 455.5c-7 4.4-12.8 15.6-15.8 30.2-.3 1.3-1.5 2.1-2.8 1.9-.6-.1-1.1-.4-1.4-.9-6.7-8.6-11.1-23.8-11-41 .2-19.3 6-35.8 14.2-43.5 1.4 5.4 2.8 10.8 4.3 16 3.9 13.3 8.1 25.7 12.5 37.3zM371.4 456.5c6.9 4.5 12.5 15.8 15.2 30.5.2 1.3 1.5 2.2 2.8 1.9.6-.1 1.1-.4 1.4-.8 6.9-8.5 11.5-23.6 11.7-40.8.2-19.3-5.4-35.9-13.5-43.8-1.5 5.4-3 10.8-4.6 16-4.1 13.1-8.4 25.5-13 37zM323.8 464.4c-.1 14.6-1.8 27.8-4.5 36.8-.3 1.1-1.5 1.8-2.6 1.5-.7-.2-1.3-.8-1.5-1.5-2.5-9.1-4-22.2-3.8-36.8.2-18.2 2.8-34.2 6.6-42.7 3.6 8.5 6 24.4 5.8 42.7z"/><path d="M318.5 52.1s26.5 184.4-.1 368.4" fill="none" stroke="#9ab7c1" stroke-width="1.29" stroke-miterlimit="10"/><circle class="st7" cx="338.8" cy="410.6" r="3.1"/><circle class="st7" cx="376" cy="400.9" r="3.1"/><circle class="st7" cx="300" cy="410.2" r="3.1"/><circle class="st7" cx="255.2" cy="402.5" r="3.1"/><circle class="st8" cx="339.1" cy="268.5" r="3.9"/><circle class="st8" cx="336" cy="181.2" r="3.9"/><circle class="st8" cx="331.5" cy="94.4" r="3.9"/><circle class="st8" cx="334.5" cy="354.7" r="3.9"/><path class="st10" d="M179.6 54.9c-18.3 1.4-26.3 10.3-26.3 10.3-14.1 10.5-15.2 39.1-15.2 39.1.4 5.2.3 10.4-.4 15.6-1.1 9.6-2.2 24.7-2.2 24.7-1.2 5.9-2.5 19.8-4.7 25.5-4.5 11.8-9.7 24-15.2 36.1-10.3 22.6-27 64.3-15.5 50.5 0 0-11.8 60.9-9.2 61 1.5.1 2.8-.8 3.3-2.1 0 0 2.3 46.3 11.5 60 0 0 3.6-3.5 2-8.1 0 0 14.2 29.4 49.7 40.3 26.9 8.2 92.4 7 129.7-22.2 0 0 3.7-38.3-2.3-50.2-.5-1-1.6-1.4-2.6-1-1.5.6-3.5 2.2-4.9 6.1l-41.1-10.3s3.5-16.4-15-82.8c0 0-7.6-52.9 5.5-91.4.9-2.5-1.2-18.5.2-22.9 1.7-5.4 1.4-10.5 2.4-17.8 1.2-8.7.6-17.6-1.5-26.1-1.3-9.4-5.9-18-13-24.3-13-8.3-19.8-11.2-35.2-10z"/><path class="st11" d="M266.3 337.7l-29.8-7.4s-2.2-28-5-42.4-8.6-22-15.9-45-9.3-51.7-6.3-67 17.7-19.8 17.7-19.8 1.3 26.5 4.3 39.2 22.7 47.7 25 53.7 16.3 27 15.3 54.3-5.3 34.4-5.3 34.4z"/><path class="st7" d="M133.8 88.6v39.7c-5.6 0-10.2-4.6-10.2-10.2V98.7c0-5.6 4.6-10.1 10.2-10.1zM232.2 128.2V88.6c5.6 0 10.2 4.6 10.2 10.2v19.3c0 5.6-4.6 10.1-10.2 10.1z"/><path class="st12" d="M357.6 228.7s11.8 23 19.7 22.7l-13-25.1-6.7 2.4z"/><path d="M364.7 227.8s9.6 23.7 13.7 24.1-9.2-31.8-9.2-31.8l-4.5 7.7z" fill="#3a3c39"/><path class="st10" d="M189.6 189.6s43.7 1.3 78-5.3 59.6-5.4 72.2-1c10.8 3.8 29.1 23.6 29.5 34.3 0 0 1.3 8.4 0 10.4-.7 1.1-3.8 2.5-6.6 3.7-2.6 1.1-5.6.8-8-.8-4.8-3.3-14.6-8.5-29-8.2-21 .3-45.9 13.3-45.9 13.3s3 1.9 0 4.9-20 2.5-20 2.5 3.5 3-1 5-37 4.2-65.8 2c0 0 2.2 2.2.5 3.8s-17.2 0-19-2.2"/><path class="st14" d="M218.5 251.2c-8.3 0-17.1-.3-25.5-.9 0 0 2.2 2.2.5 3.8s-17.2 0-19-2.2M189.6 189.6s7.3.2 18.3 0"/><path class="st11" d="M217.8 102.7c-5.5-.7-10.9-1.9-16.1-3.6-5.4-1.8-6.8-5.1-6.5-7.4.5-2.9 3-5.2 5.9-5.4 7.3-.7 13.2 5.3 16.1 9 .2.2.5.2.7.1.1-.1.2-.3.2-.5-.9-5.4-4-10.1-8.6-13.1-5-3.3-12.9-5.9-25.1-6.1v-.1c-12.2-.6-20.2 1.5-25.5 4.4-4.7 2.7-8.1 7.2-9.4 12.4-.1.3.1.5.4.6.2 0 .4 0 .5-.2 3.1-3.5 9.4-9.1 16.7-7.9 3 .4 5.3 2.8 5.6 5.8.2 2.4-1.5 5.5-7 7-5.3 1.4-10.8 2.2-16.3 2.5-.2 0-.4.2-.4.4.5 11.2 6.7 19.6 7.3 18.7s.5-3.5.5-3.5c4.8 10.6 12.5 18.8 13.6 18.6s1.4-2.7 1.4-2.7 1.6 4.5 5 6c2.4 1 4.6 3.7 5.3 4.6.1.1.2.1.3 0 1.6-1.8 3.5-3.2 5.7-4.2 3.6-1.3 5.4-5.7 5.4-5.7s.2 2.4 1.2 2.8 9.2-7.3 14.8-17.6c0 0-.3 2.6.2 3.6s7.3-7 8.5-18.2c0-.1-.2-.3-.4-.3z"/><path class="st12" d="M192.5 94.6c-.4-2.2-2.3-3.8-4.5-3.7h-8.2c-2.2 0-4.1 1.5-4.5 3.7-.2 1.6.3 3.5 3 5.4l5 3.2c.4.3.9.3 1.4 0l5-3.2c2.5-2 3-3.9 2.8-5.4z"/><circle class="st15" cx="201.3" cy="92.2" r="1.6"/><circle class="st15" cx="166.2" cy="92.2" r="1.6"/><path d="M188.3 105.4c-.8 2.6-3.6 4.1-6.2 3.3-1.6-.5-2.8-1.7-3.3-3.3" fill="none" stroke="#201600" stroke-width="1.05" stroke-linecap="round" stroke-miterlimit="10"/><path class="st8" d="M182.8 49.2c-28.4 0-51.5 23.1-51.5 51.5v47.8s15.2 4 51.5 4.1c38 .1 51.5-4.1 51.5-4.1v-47.8c0-28.4-23.1-51.5-51.5-51.5zm34.4 66c0 5.8-4.7 10.5-10.5 10.5h-47.5c-5.8 0-10.5-4.7-10.5-10.5V87.1c0-5.8 4.6-10.5 10.4-10.5h47.6c5.8 0 10.5 4.7 10.5 10.5v28.1z"/><path d="M131.3 141.6s15.2 4 51.5 4.1c38 .1 51.5-4.1 51.5-4.1" fill="none" stroke="#446577" stroke-miterlimit="10"/><path d="M155.3 75.6h54.3c4.8 0 8.7 3.9 8.7 8.7V118c0 4.8-3.9 8.6-8.7 8.6h-54.3c-4.8 0-8.7-3.9-8.7-8.6V84.2c0-4.7 3.9-8.6 8.7-8.6z" opacity=".18" fill="#d6e2ea"/><path class="st7" d="M208.6 72.8H157c-6.5 0-11.7 5.3-11.7 11.7v32.8c0 6.5 5.3 11.7 11.7 11.7h51.5c6.5 0 11.7-5.3 11.7-11.7V84.6c.1-6.5-5.2-11.8-11.6-11.8zm8.5 42.2c0 5.8-4.7 10.5-10.5 10.5H159c-5.8 0-10.5-4.7-10.5-10.5V86.9c0-5.8 4.7-10.5 10.5-10.5h47.5c5.8 0 10.5 4.7 10.5 10.5l.1 28.1z"/><path class="st19" d="M183.8 451.6s11.2 3.9 13.8 14.6"/><path d="M196.1 462.1s6.9-8.2 15.9-3.2" fill="none" stroke="#aeb9c1" stroke-width=".75" stroke-linecap="round" stroke-miterlimit="10"/><path class="st19" d="M207.7 506.3c3.1-4.2 9.5-7 16.8-7 4 0 7.9.9 11.4 2.7"/><path class="st19" d="M234.6 504.5c3.5-9.6 14.2-14.5 23.8-11 5.1 1.9 9.1 5.9 11 11M466 479.4s-16 .4-22.3 8.3"/><path class="st19" d="M448.9 483.5s-8.9-7.3-21.9-3c-5.9 2.1-10.8 6.3-13.7 11.8"/></svg>