<svg id="Слой_2" data-name="Слой 2" xmlns="http://www.w3.org/2000/svg" viewBox="0 0 1039.87 470.42">
  <defs>
    <clipPath id="clip-path" transform="translate(-134.05 -179.98)">
      <path class="cls-1" d="M1103.27 321.28s-18.14 8.34-10.47 21.15c.01 0 12.1-4.17 10.47-21.15z"/>
    </clipPath>
    <clipPath id="clip-path-2" transform="translate(-134.05 -179.98)">
      <path class="cls-1" d="M373.39 533.64s7.71-20.55 28.26-5.14 24 67-8.14 91.63c0 0-7.71-21-20.12-26.55s-36-24.83-25.26-46.67 25.26-13.27 25.26-13.27z"/>
    </clipPath>
    <style>
      .cls-1,.cls-19,.cls-20,.cls-22,.cls-25,.cls-3{fill:none}.cls-2{fill:#506336}.cls-3{stroke:#446577;stroke-width:1.5px}.cls-19,.cls-20,.cls-22,.cls-25,.cls-3{stroke-linecap:round;stroke-miterlimit:10}.cls-4{fill:#d6e2ea}.cls-5{fill:#446577}.cls-6{fill:#9ab7c1}.cls-8{fill:#d6bfb9}.cls-9{fill:#313330}.cls-11{fill:#222322}.cls-12{fill:#513d30}.cls-16{fill:#6d5241}.cls-17{fill:#8c6f60}.cls-19{stroke:#313330;stroke-width:1.43px}.cls-20{stroke:#222322}.cls-22{stroke:#798e44;stroke-width:1.93px}.cls-23{fill:#798e44}.cls-25{stroke:#91a553;stroke-width:1.28px}
    </style>
  </defs>
  <path class="cls-2" d="M1115.64 648.07s-2-45.22 25-46.59-6.16 39-6.16 39 14.71-16.76 22.92-11.63-5.4 12.65-5.4 12.65 23.26-6.29 21.89 2-58.25 4.57-58.25 4.57zM183.34 631.33c-13.32 0-26.92-2.17-38.13-8.47-6.19-3.48-16.55-14.85-7.79-24.19 0 0 9.9-11.34 40 16.33 0 0-14.09-14.66-6.86-16.66s14.1 8.66 14.1 8.66-29-53.36-1.52-52.68 44.19 53 44.19 53-6.48-32.67 13.71-27 17.14 30.33 17.14 30.33 5-21 14.86-15.33-3 22.55-3 22.55 23.24-25.55 31.62-9.55c4.19 8-1.71 13.75-8.67 17.5a48.37 48.37 0 01-22.88 5.5z" transform="translate(-134.05 -179.98)"/>
  <path class="cls-3" d="M450.33 436.33s-5.27 7-2.9 13.48" transform="translate(-134.05 -179.98)"/>
  <path class="cls-4" d="M568.6 533.77c-.95 6.7-2 13.29-3.25 19.71-.59 3.12-1.2 6.2-1.86 9.23a362.67 362.67 0 01-4.08 17.22c-9.38 7.41-28.19 12.46-49.87 12.46s-40.49-5-49.87-12.48q-2.21-8.38-4.1-17.2c-.63-3-1.24-6-1.81-9v-.14q-1.83-9.68-3.27-19.79c-7.19-51.23-4.33-97.9 5.94-127.61 0 0 9.14-30.08 26.43-57.53a130.2 130.2 0 0052.75.15c16.88 27.19 27.09 57.37 27.09 57.37 10.23 29.71 13.09 76.38 5.9 127.61z" transform="translate(-134.05 -179.98)"/>
  <path class="cls-5" d="M559.39 579.92q-1.57 6-3.3 11.78c-2.49 8.36-5.21 16.27-8.11 23.67-8.8 6.79-22.84 11.19-38.63 11.19a76.93 76.93 0 01-23.24-3.45 49.89 49.89 0 01-4.71-1.73 46 46 0 01-10.23-5.67.6.6 0 00-.07-.15c-2.95-7.58-5.74-15.71-8.3-24.29q-1.52-5.13-2.93-10.46c-.08-.29-.15-.59-.24-.9.22.17.44.36.68.51 4.44 3.32 10.75 6.13 18.37 8.18a119.54 119.54 0 0030.83 3.79c21.7-.01 40.49-5.05 49.88-12.47zM535.9 348.79a130.2 130.2 0 01-52.75-.15c7.45-11.78 16.37-23.09 26.71-31.32 9.78 7.97 18.57 19.43 26.04 31.47z" transform="translate(-134.05 -179.98)"/>
  <path class="cls-6" d="M471 615.56c-4.56 2.92-8.27 10.27-10.13 19.83a1.56 1.56 0 01-2.75.69c-4.45-5.59-7.41-15.48-7.41-26.74 0-12.6 3.71-23.46 9.07-28.54q1.4 5.33 2.93 10.46c2.56 8.59 5.35 16.74 8.29 24.3zM548 615.56c4.56 2.92 8.27 10.27 10.13 19.83a1.56 1.56 0 002.75.69c4.45-5.59 7.41-15.48 7.41-26.74 0-12.6-3.71-23.46-9.07-28.54q-1.4 5.33-2.93 10.46c-2.52 8.59-5.29 16.74-8.29 24.3zM517 620.92c0 9.57-1 18.16-2.71 24.06a1.39 1.39 0 01-2.69 0c-1.67-5.91-2.72-14.5-2.72-24.07 0-11.94 1.63-22.35 4.06-27.93 2.4 5.6 4.06 16.02 4.06 27.94z" transform="translate(-134.05 -179.98)"/>
  <path d="M377.16 171.43s18.38 120.43 2 240.92" stroke-width=".85" stroke="#9ab7c1" stroke-miterlimit="10" fill="none"/>
  <circle class="cls-5" cx="391.55" cy="405.17" r="2.05"/>
  <circle class="cls-5" cx="416.68" cy="399.13" r="2.05"/>
  <circle class="cls-5" cx="366.18" cy="405.17" r="2.05"/>
  <circle class="cls-5" cx="337.66" cy="400.82" r="2.05"/>
  <circle class="cls-6" cx="390.97" cy="312.42" r="2.53"/>
  <circle class="cls-6" cx="389.27" cy="255.71" r="2.53"/>
  <circle class="cls-6" cx="385.89" cy="198.99" r="2.53"/>
  <circle class="cls-6" cx="389.27" cy="369.14" r="2.53"/>
  <path class="cls-8" d="M459.87 450.43l-20.67-9.33-12.45 14-14 31.06 30.86 13.92 14-31.06zm-13.49 2.33a2.1 2.1 0 112.78-1 2.1 2.1 0 01-2.78 1z" transform="translate(-134.05 -179.98)"/>
  <path class="cls-3" d="M544.13 363.8S495.5 443.19 448 450.19" transform="translate(-134.05 -179.98)"/>
  <path class="cls-9" d="M442.24 460.82l.29.14q.42.2.26.93l-.91 1.89a6.22 6.22 0 012.45 2.87q.3.7.22.86l-.14.29q-.18.37-1 .12-.24-.12-.7-1.38a6.27 6.27 0 00-1.42-1.62l-3.15 6.52a7.08 7.08 0 012.44 4.34 5.4 5.4 0 01-.42 2.88q-1.61 3.34-6.21 3l-.63-.2-.89 1.85q-.51.57-1 .34-.71-.52-.48-1l.64-1.33q.17-.36-1.29-1.3a6.65 6.65 0 01-2.3-3.74l.06-.19a.75.75 0 011-.28q.4.2.82 1.64a7.34 7.34 0 002.47 2.29l3.85-8a5.71 5.71 0 01-2-2.72 4.18 4.18 0 010-3.51l.17-.36q1.08-2.23 4.35-2.35a4.17 4.17 0 011.64.35l1-2.05q.49-.47.88-.28zm-6.56 5.26l-.19.4q-.86 1.77 1.2 4.36l3.06-6.32q-3.25-.15-4.07 1.56zm1.8 6.8l-3.58 7.41.5.24q3.14-.09 4.09-2.07l.24-.5q.97-1.96-1.26-5.08z" transform="translate(-134.05 -179.98)"/>
  <path class="cls-3" d="M780.88 342.11c-2.29-4.77-4.87-8.81-9-11.86" transform="translate(-134.05 -179.98)"/>
  <path class="cls-4" d="M776.26 486.88c-1.34 9.5-2.88 18.84-4.61 27.94-.84 4.42-1.7 8.79-2.64 13.08-1.78 8.35-3.7 16.51-5.78 24.41-13.3 10.51-40 17.67-70.71 17.67s-57.41-7.15-70.71-17.69q-3.14-11.89-5.81-24.39c-.89-4.2-1.75-8.47-2.57-12.77v-.19q-2.59-13.72-4.63-28.06c-10.2-72.63-6.14-138.81 8.42-180.93 0 0 13-42.65 37.47-81.56a184.59 184.59 0 0074.79.22c23.93 38.55 38.4 81.34 38.4 81.34 14.52 42.12 18.58 108.29 8.38 180.93z" transform="translate(-134.05 -179.98)"/>
  <path class="cls-5" d="M763.21 552.31q-2.21 8.53-4.68 16.69c-3.53 11.86-7.39 23.07-11.5 33.56-12.48 9.62-32.38 15.87-54.77 15.87a109.07 109.07 0 01-33-4.9 70.74 70.74 0 01-6.67-2.45 65.15 65.15 0 01-14.5-8 .85.85 0 00-.1-.22c-4.18-10.75-8.14-22.27-11.76-34.44q-2.16-7.27-4.15-14.83c-.12-.41-.22-.84-.34-1.27.31.24.62.5 1 .72 6.29 4.7 15.24 8.69 26 11.59A169.49 169.49 0 00692.5 570c30.75 0 57.41-7.18 70.71-17.69zM729.9 224.6a184.59 184.59 0 01-74.79-.22c10.56-16.71 23.21-32.74 37.88-44.4 13.86 11.31 26.32 27.55 36.91 44.62z" transform="translate(-134.05 -179.98)"/>
  <path class="cls-6" d="M637.9 602.83c-6.46 4.13-11.72 14.56-14.37 28.12a2.22 2.22 0 01-3.9 1C613.32 624 609.12 610 609.12 594c0-17.86 5.26-33.27 12.87-40.47q2 7.56 4.15 14.83c3.62 12.2 7.58 23.72 11.76 34.47zM747.1 602.83c6.46 4.13 11.72 14.56 14.37 28.12a2.22 2.22 0 003.9 1C771.69 624 775.88 610 775.88 594c0-17.86-5.26-33.27-12.87-40.47q-2 7.56-4.15 14.83c-3.62 12.2-7.58 23.72-11.76 34.47zM703 610.44c0 13.56-1.48 25.74-3.84 34.12a2 2 0 01-3.81 0c-2.37-8.38-3.85-20.56-3.85-34.12 0-16.92 2.3-31.68 5.76-39.6 3.49 7.92 5.74 22.68 5.74 39.6z" transform="translate(-134.05 -179.98)"/>
  <path d="M560.85 48.34s26.1 170.75 2.78 341.58" stroke-width="1.2" stroke="#9ab7c1" stroke-miterlimit="10" fill="none"/>
  <circle class="cls-5" cx="581.24" cy="379.75" r="2.9"/>
  <circle class="cls-5" cx="616.87" cy="371.18" r="2.9"/>
  <circle class="cls-5" cx="545.27" cy="379.75" r="2.9"/>
  <circle class="cls-5" cx="504.84" cy="373.58" r="2.9"/>
  <circle class="cls-6" cx="580.42" cy="248.24" r="3.59"/>
  <circle class="cls-6" cx="578.02" cy="167.83" r="3.59"/>
  <circle class="cls-6" cx="573.22" cy="87.42" r="3.59"/>
  <circle class="cls-6" cx="578.02" cy="328.66" r="3.59"/>
  <path class="cls-11" d="M802 360.45c-1.37-1-3.08.21-2.37 1.63 4.52 9.1 19 26.67 24.32 33 1.25 1.49 3.08 2.17 4.42 1.62a10.12 10.12 0 002.84-1.7c1.29-1.15 1.44-3.64 1.37-5.37a5.16 5.16 0 00-1.4-3.17A203.51 203.51 0 00802 360.45z" transform="translate(-134.05 -179.98)"/>
  <path class="cls-11" d="M808.66 354.79c-1.41-.94-3.08.26-2.34 1.68 4.79 9.06 19.78 26.46 25.32 32.76 1.3 1.47 3.15 2.13 4.48 1.54a10 10 0 002.8-1.76c1.27-1.18 1.35-3.69 1.23-5.42a5.24 5.24 0 00-1.49-3.16 207.32 207.32 0 00-30-25.64z" transform="translate(-134.05 -179.98)"/>
  <path class="cls-8" d="M787.7 328.27l-20.5 19.55 10.63 21.27 29.9 31.35 30.61-29.19-29.9-31.35zm-3.52 16.83a2.67 2.67 0 11.06-3.74 2.64 2.64 0 01-.06 3.74z" transform="translate(-134.05 -179.98)"/>
  <path class="cls-9" d="M826.64 361.6c-1-.67-2.28.23-1.77 1.25 3.24 6.57 13.72 19.11 17.59 23.65a2.94 2.94 0 003.25 1.08 8 8 0 002.12-1.32c1-.87 1.11-2.71 1.07-4a3.59 3.59 0 00-1-2.3 139.83 139.83 0 00-21.26-18.36z" transform="translate(-134.05 -179.98)"/>
  <path class="cls-12" d="M975.57 387.12s-16.6 14.78-30 27.36c-7.14 6.72-9 10.14-17.41 5.11-16.61-9.89-42.95-24-64-33.26-7.06-3.1-12.83-8.09-23.9-4.69-6 1.85-14.45 9.17-15.13 12.48-1.08 5.26 28.2 44.78 39.11 50.33a1 1 0 001.39-.82 9.74 9.74 0 00-1.68-6.07s16.37 25 22.8 29.16a1.2 1.2 0 001.8-.78 28.9 28.9 0 000-4.73c-2.56-3.45 31.2 33.69 58.32 27.94 26.93-5.71 38.66-20 38.66-20z" transform="translate(-134.05 -179.98)"/>
  <path d="M946.43 173.17s2.48-10.71 12.6-11.27" stroke="#506336" stroke-width="1.54" stroke-miterlimit="10" fill="none"/>
  <path class="cls-2" d="M1103.27 321.28s-18.14 8.34-10.47 21.15c.01 0 12.1-4.17 10.47-21.15z" transform="translate(-134.05 -179.98)"/>
  <path class="cls-2" d="M1092.9 341.76c-.22-1.53 10.84-2.68 17.7 9.73 0 0-16.17 1.1-17.7-9.73z" transform="translate(-134.05 -179.98)"/>
  <g clip-path="url(#clip-path)">
    <path d="M969.76 140.66a60.8 60.8 0 00-10.73 21.23" stroke="#364222" stroke-width="1.07" stroke-miterlimit="10" stroke-linecap="round" fill="none"/>
  </g>
  <path class="cls-12" d="M1051.19 597.19c-.06 17.92-9.77 46.06-9.77 46.06-22.73 5.73-61.31 3.82-61.31 0s9.26-7.16 9.26-7.16l-23-44.81z" transform="translate(-134.05 -179.98)"/>
  <path class="cls-16" d="M1110.6 555.85c4.44-11.64 10.38-39.37 10.37-41.6 0-.07.09-.08.13 0a18.75 18.75 0 002.83 3.62.22.22 0 00.37-.1c1.23-5.95-.54-19.1-1.29-24.07a.17.17 0 01.31-.09 19.68 19.68 0 002.54 3.93 1.2 1.2 0 002.12-.5c3.75-24.92-12.36-71.37-14.56-77.56a.21.21 0 01.33-.24 5.68 5.68 0 001.58.82 1.58 1.58 0 002-1.92c-3-11.6-16-32.68-16-32.68s-7.38-18-15.34-34.23-16.22-42.5-16.22-42.51c-2.89-15.81-7.08-33-7.08-33 1.95 2.11 3.08.32 3.08.32 1.62-6.66-7.31-27-7.31-27s1.75 1.78 2.27 2.16a2 2 0 002.48.28 1.59 1.59 0 00.53-1.84c-2.72-7.63-21.88-17.65-24.81-19.14a.05.05 0 010-.1c1.74.38 8.45 1.76 9.76.45.77-.77-.54-2.49-.54-2.49-11.59-9.26-26.74-5.83-30.65-4.73a.24.24 0 01-.2-.41c4.69-4.47 5.69-7 5.83-8.28a.88.88 0 00-.84-1c-5.46-.07-10.07 7.41-11.37 9.75a1 1 0 01-1.13.46c-3.07-.87-15.14-3.46-29.21 4.87a1.65 1.65 0 00.27 2.88c1.1.46 3 .64 6.31 0 .09 0 .14.1.06.14-4.39 1.89-23 8.93-25.59 26.82a2.09 2.09 0 002.86 2.23 6.75 6.75 0 002.63-2.93h.05c-.41 2.06-5 26.4 3.35 42.74a.63.63 0 001 .1 8.28 8.28 0 001.62-4.15s.05-.05.06 0a109.42 109.42 0 004.39 13.55 124.85 124.85 0 01.46 37.6c-2.17 15.16-7.17 34.92-18.54 53l-2.43 3.65C921.36 458.77 873 550.28 969 593.78l35.12 6.94 20 38.9s-9.26 3.34-9.26 7.16 38.58 5.73 61.31 0c0 0 5.77-14.54 10.46-29.92a378.83 378.83 0 0115.49-41.68z" transform="translate(-134.05 -179.98)"/>
  <path class="cls-17" d="M966.14 388.93s23-44 33.72-42.63 19.77 13 19.29 44.06a209.76 209.76 0 01-5.79 43.55 238.37 238.37 0 00-6.5 59.91c.39 17.28 2.36 36.81 8 52.69 13.37 37.72-10.72 54.21-10.72 54.21s-71.68-1.65-86.8-56.87 14.19-98.71 29.75-123.39 19.05-31.53 19.05-31.53zM974.69 270.13a.39.39 0 00-.51.24c-1.5 4.88 1.2 17.71 2.23 17.63.77-.06 2.11-2.38 2.11-2.38-1.17 12.13 8.48 24 9.22 24s1.77-2.14 1.77-2.14a22.85 22.85 0 005.92 9.16c4.4-.75 8.9-8.61 8.9-8.61s-.07 3 1.23 2.6c10.19-3.06 19.25-22.77 19.25-22.77a3 3 0 001.73 2.69c3.91-2.29 5.69-16 6.15-20.31a.94.94 0 00-1.1-1c-2.68.46-9.29 1.33-15.19-.17-7.6-1.93-9.59-10.25-2.76-14.44 5.39-3.3 13.23-.38 16.32 1a.51.51 0 00.64-.72c-2.11-3.55-7.53-12.84-31.71-11.4 0 0-16.65 0-23.12 12.35a.32.32 0 00.35.46c1.54-.36 5.4-1 7.9.38 2.83 1.62 4.69 8.92-2 12.25-4.02 2-6.46 1.5-7.33 1.18z" transform="translate(-134.05 -179.98)"/>
  <path class="cls-9" d="M989.42 266.18a4.18 4.18 0 014.16-3.54h7.46a4.18 4.18 0 014.07 3.64c.19 1.51-.36 3.35-2.76 5.24l-4.56 3a1.09 1.09 0 01-1.24 0l-4.55-3.03c-2.31-1.95-2.81-3.81-2.58-5.31z" transform="translate(-134.05 -179.98)"/>
  <path class="cls-20" d="M841.2 81.94h5.25"/>
  <path class="cls-11" d="M842.29 81.94h2.46v2.44a1.23 1.23 0 01-1.23 1.23 1.23 1.23 0 01-1.23-1.23v-2.44z"/>
  <path class="cls-20" d="M881.77 81.94h5.25"/>
  <path class="cls-11" d="M882.85 81.94h2.46v2.44a1.23 1.23 0 01-1.23 1.23 1.23 1.23 0 01-1.23-1.23v-2.44z"/>
  <path d="M999.25 278.08a4.32 4.32 0 013.58-2.08" transform="translate(-134.05 -179.98)" stroke="#313330" stroke-miterlimit="10" stroke-linecap="round" fill="none"/>
  <path class="cls-11" d="M981.25 307.83s4.45-8.23 11.6-7.2l-1.27 8.83zM993.17 309.47s8.93 1.7 10 14.53a38.34 38.34 0 01-.38 10.33s-4-13.67-6.73-16l-3.69-5.17z" transform="translate(-134.05 -179.98)"/>
  <path class="cls-9" d="M984.5 308.79s5.59-20.7 9.39-26.91a1.14 1.14 0 012.11.47c.31 3.32 0 10.49-2.67 32z" transform="translate(-134.05 -179.98)"/>
  <path class="cls-16" d="M975.25 307.83s-21.25 34.72-23.58 51.28c0 0 .58 1.14 3.08-1.11 0 0-20.75 50.84-14.75 57.5a9.61 9.61 0 003.5-3s-7.68 31-4.59 34c0 0 1.84.5 3.09-1.75 0 0-5.75 30.5 29.25 47.25 0 0 3.75 1 1-3.25 0 0 25.52 12.57 49.13 4.74S1058 455 1058 455l-31.74-63.14-25.59 27.14 2.06-80.56a25.26 25.26 0 00-1.4-9c-2-5.56-5.88-14.26-12.08-17.61-8.49-4.62-14-4-14-4z" transform="translate(-134.05 -179.98)"/>
  <path class="cls-19" d="M885.12 219.41l7.1-7.53M866.74 234.53v12.99"/>
  <path class="cls-19" d="M1006.92 496.06S1038 499.25 1058 455" transform="translate(-134.05 -179.98)"/>
  <path class="cls-3" d="M624.56 285.16S688.5 338 756.5 346.27c0 0 22.38 3.1 24.39-3.7" transform="translate(-134.05 -179.98)"/>
  <path class="cls-9" d="M790.21 361.3l.23-.21q.34-.31.94.1l1.39 1.53a6.12 6.12 0 013.52-1.18q.75 0 .87.11l.22.24q.27.3-.25.92a3.17 3.17 0 01-1.52.13 6.17 6.17 0 00-2 .7l4.79 5.27a7 7 0 014.86-.63 5.31 5.31 0 012.48 1.44q2.46 2.7.42 6.76l-.41.51 1.36 1.5q.34.67 0 1-.73.46-1.09.07l-1-1.07q-.26-.29-1.66.7a6.55 6.55 0 01-4.26.72l-.15-.12a.74.74 0 01.11-1q.33-.3 1.8-.15a7.22 7.22 0 003-1.41l-5.86-6.45a5.62 5.62 0 01-3.23.85 4.12 4.12 0 01-3.2-1.29l-.26-.29q-1.64-1.81-.54-4.84a4.1 4.1 0 01.93-1.37l-1.51-1.66q-.29-.6.02-.88zm2.39 7.92l.29.32q1.3 1.43 4.42.51l-4.65-5.12q-1.31 2.91-.06 4.29zm6.87.86l5.44 6 .41-.37q1.07-2.9-.38-4.49l-.37-.4q-1.46-1.63-5.1-.74zM800.82 351.71l.23-.21q.34-.31.94.1l1.39 1.53a6.12 6.12 0 013.52-1.18q.75 0 .87.11l.22.24q.27.3-.25.92a3.17 3.17 0 01-1.52.13 6.17 6.17 0 00-2 .7l4.79 5.27a7 7 0 014.86-.63 5.31 5.31 0 012.48 1.44q2.46 2.7.42 6.76l-.41.51 1.36 1.5q.34.67 0 1-.73.46-1.09.07l-1-1.07q-.26-.29-1.66.7a6.55 6.55 0 01-4.26.72l-.15-.12a.74.74 0 01.11-1q.33-.3 1.8-.15a7.22 7.22 0 003-1.41l-5.86-6.45a5.62 5.62 0 01-3.23.85 4.12 4.12 0 01-3.2-1.29l-.26-.29q-1.64-1.81-.54-4.84a4.1 4.1 0 01.93-1.37l-1.51-1.66q-.3-.59.02-.88zm2.39 7.92l.29.32q1.3 1.43 4.42.51l-4.65-5.12q-1.32 2.91-.07 4.29zm6.87.86l5.44 6 .41-.37q1.07-2.9-.38-4.49l-.37-.4q-1.47-1.63-5.11-.74z" transform="translate(-134.05 -179.98)"/>
  <path class="cls-22" d="M373.39 533.64s-4.12-10.87-16.81-7.28M407 604.45s3 12.81-.65 25.63a1 1 0 001 1.25h6.25M384.31 602.18s1.7 16.22-1.95 27.9a1 1 0 001 1.25h6.25" transform="translate(-134.05 -179.98)"/>
  <path class="cls-22" d="M231.18 407.03l-1.49 33.81"/>
  <ellipse class="cls-23" cx="363.62" cy="621.95" rx="4.32" ry="2.17" transform="rotate(-87.48 202.56 602.005)"/>
  <ellipse class="cls-23" cx="451.17" cy="545.63" rx="4.11" ry="2.28" transform="rotate(-67.01 248.223 556.886)"/>
  <path class="cls-23" d="M373.39 533.64s7.71-20.55 28.26-5.14 24 67-8.14 91.63c0 0-7.71-21-20.12-26.55s-36-24.83-25.26-46.67 25.26-13.27 25.26-13.27z" transform="translate(-134.05 -179.98)"/>
  <g clip-path="url(#clip-path-2)">
    <path class="cls-25" d="M373.39 533.64s39.68 26.57 20 87.18M398.77 582.13a65.76 65.76 0 00-13 23.91M378.7 537.13s22-9.29 35.18 7.81M397.11 571.07s13.52 7.74 17.46 20M399 590.42a31.25 31.25 0 016.55 18" transform="translate(-134.05 -179.98)"/>
  </g>
  <circle class="cls-9" cx="380.01" cy="552.54" r="1.97" transform="rotate(-23.61 -117.603 783.218)"/>
  <circle class="cls-9" cx="395.21" cy="545.41" r="1.97" transform="rotate(-23.61 -102.404 776.083)"/>
  <ellipse class="cls-9" cx="391.03" cy="554.32" rx="2.1" ry="1.36" transform="rotate(-20.81 -165.956 829.435)"/>
  <path class="cls-22" d="M417.37 566s21.69 4.45 31.41-17" transform="translate(-134.05 -179.98)"/>
</svg>
