<svg id="Слой_2" data-name="Слой 2" xmlns="http://www.w3.org/2000/svg" xmlns:xlink="http://www.w3.org/1999/xlink" viewBox="0 0 526.4 236.64"><defs><style>.cls-1,.cls-11,.cls-13,.cls-16,.cls-17,.cls-18,.cls-20,.cls-21,.cls-22,.cls-23,.cls-24,.cls-25,.cls-26,.cls-27,.cls-7{fill:none;}.cls-2{fill:#506336;}.cls-3{fill:#798e44;}.cls-4{fill:#9ab7c1;}.cls-5{fill:#d6e2ea;}.cls-6{fill:#446577;}.cls-7{stroke:#9ab7c1;stroke-width:0.59px;}.cls-11,.cls-13,.cls-16,.cls-17,.cls-18,.cls-20,.cls-21,.cls-22,.cls-23,.cls-24,.cls-25,.cls-26,.cls-27,.cls-7{stroke-miterlimit:10;}.cls-8{fill:#513d30;}.cls-9{fill:#313330;}.cls-10{fill:#222322;}.cls-11,.cls-18,.cls-22{stroke:#506336;}.cls-11{stroke-width:1.03px;}.cls-12{clip-path:url(#clip-path);}.cls-13{stroke:#364222;stroke-width:0.72px;}.cls-13,.cls-16,.cls-17,.cls-18,.cls-20,.cls-21,.cls-22,.cls-23,.cls-24,.cls-25{stroke-linecap:round;}.cls-14{fill:#6d5241;}.cls-15{fill:#8c6f60;}.cls-16,.cls-21,.cls-25,.cls-26,.cls-27{stroke:#313330;}.cls-16{stroke-width:0.78px;}.cls-17,.cls-23{stroke:#798e44;}.cls-17{stroke-width:1.09px;}.cls-18{stroke-width:0.94px;}.cls-19{clip-path:url(#clip-path-2);}.cls-20,.cls-24{stroke:#91a553;}.cls-20{stroke-width:0.72px;}.cls-21{stroke-width:0.84px;}.cls-22{stroke-width:1.05px;}.cls-23{stroke-width:1.12px;}.cls-24{stroke-width:0.75px;}.cls-25{stroke-width:0.93px;}.cls-26{stroke-width:1.2px;}.cls-27{stroke-width:1.16px;}</style><clipPath id="clip-path" transform="translate(-55.54 -56)"><path class="cls-1" d="M109.78,97.16s6.79,11.56-2.36,15.67C107.42,112.82,102.37,105.88,109.78,97.16Z"/></clipPath><clipPath id="clip-path-2" transform="translate(-55.54 -56)"><path class="cls-1" d="M207.66,237s4.35-11.6,15.95-2.9S237.14,272,219,285.85c0,0-4.35-11.84-11.36-15s-20.3-14-14.26-26.34S207.66,237,207.66,237Z"/></clipPath></defs><title>not found</title><path class="cls-2" d="M523.27,264.62c-2.28-7.33-23.77-7.44-35.75-6.91,3.62-.61,7.09-1.91,7.1-4.65,0-8.25-23.08-4.71-23.08-4.71s14.32-9.12,8-14.21-21.05,0-21.05,0,29.76-24.88,11.46-34.87c-10.21-5.57-26.11,1.4-38.19,8.66,6.22-9.51,11.4-22.24,4.78-33-12.35-20-43.82,30.58-43.82,30.58l4.91,21.23-2,.83-22.74,46s63.66-.07,91.83,0S526.46,274.84,523.27,264.62Z" transform="translate(-55.54 -56)"/><path class="cls-2" d="M320.16,221.46s-20.94-16.78-25.67-5.44,3.78,23.58,3.78,23.58-13.54-2.72-19.36,9.52c0,0-27.87-8.16-33.86,7.25s21.41,15.87,21.41,15.87h53.69l14-32.19Z" transform="translate(-55.54 -56)"/><path class="cls-3" d="M333.61,225s-1-22.19,8-33.31a13.08,13.08,0,0,1,22,2.9c2.35,5,4.22,6.14,3.61,17.83,0,0,11.1-25.64,26.32-19.84s11.86,17.61,11.86,17.61,9.85-11.62,16.25-6a11.84,11.84,0,0,1,3.6,12.82s12.81-19.42,24.42-8.11-8.41,33.73-8.41,33.73,13.21-6.8,15.21,0-6.4,14.06-6.4,14.06,21.62-11.93,28.82-1.19c2.93,4.37,2,8.5-.23,11.87a18.53,18.53,0,0,1-15.61,8.22H294c-4.17,0-9.69-.27-13.09-2.69a9,9,0,0,1-2.55-12.17c6.48-10.85,19.61-3,19.61-3s-14.81-11.91-4.4-21.92,24.82,2.3,24.82,2.3-5.6-12.71,2-17.11S333.61,225,333.61,225Z" transform="translate(-55.54 -56)"/><ellipse class="cls-4" cx="326.9" cy="29.4" rx="18.35" ry="1.77"/><path class="cls-5" d="M423.76,214c-.66,4.66-1.41,9.24-2.26,13.71-.41,2.17-.84,4.31-1.3,6.42-.87,4.1-1.81,8.1-2.84,12-6.52,5.16-19.61,8.67-34.69,8.67s-28.17-3.51-34.69-8.68q-1.54-5.83-2.85-12c-.44-2.06-.86-4.16-1.26-6.27,0,0,0-.06,0-.09q-1.27-6.73-2.27-13.77c-5-35.64-3-68.1,4.13-88.77,0,0,6.36-20.93,18.38-40a86.69,86.69,0,0,0,18.58,1.93,86.92,86.92,0,0,0,18.11-1.83c11.74,18.91,18.84,39.91,18.84,39.91C426.77,145.92,428.76,178.39,423.76,214Z" transform="translate(-55.54 -56)"/><path class="cls-6" d="M417.36,246.13q-1.1,4.19-2.3,8.2c-1.73,5.82-3.63,11.32-5.64,16.46-6.12,4.72-15.89,7.78-26.87,7.78a53.51,53.51,0,0,1-16.17-2.4,34.7,34.7,0,0,1-3.27-1.2A32,32,0,0,1,356,271a.42.42,0,0,0,0-.11c-2-5.28-4-10.93-5.77-16.9q-1.06-3.57-2-7.28c-.06-.2-.11-.41-.16-.62.15.12.31.25.47.35a38.21,38.21,0,0,0,12.78,5.69,83.16,83.16,0,0,0,21.44,2.64C397.75,254.79,410.83,251.28,417.36,246.13Z" transform="translate(-55.54 -56)"/><path class="cls-4" d="M355.87,270.92c-3.17,2-5.75,7.14-7,13.79a1.09,1.09,0,0,1-1.91.48c-3.1-3.89-5.16-10.77-5.16-18.6,0-8.76,2.58-16.32,6.31-19.85q1,3.71,2,7.28C351.88,260,353.82,265.64,355.87,270.92Z" transform="translate(-55.54 -56)"/><path class="cls-4" d="M409.45,270.92c3.17,2,5.75,7.14,7,13.79a1.09,1.09,0,0,0,1.91.48c3.1-3.89,5.16-10.77,5.16-18.6,0-8.76-2.58-16.32-6.31-19.85q-1,3.71-2,7.28C413.44,260,411.5,265.64,409.45,270.92Z" transform="translate(-55.54 -56)"/><path class="cls-4" d="M387.84,274.65A65.54,65.54,0,0,1,386,291.39a1,1,0,0,1-1.87,0,65.23,65.23,0,0,1-1.89-16.74c0-8.3,1.13-15.54,2.83-19.43C386.71,259.1,387.84,266.35,387.84,274.65Z" transform="translate(-55.54 -56)"/><path class="cls-7" d="M383.84,87.17s12.79,83.78,1.36,167.59" transform="translate(-55.54 -56)"/><circle class="cls-6" cx="338.31" cy="193.77" r="1.42"/><circle class="cls-6" cx="355.79" cy="189.56" r="1.42"/><circle class="cls-6" cx="320.66" cy="193.77" r="1.42"/><circle class="cls-6" cx="300.82" cy="190.74" r="1.42"/><circle class="cls-4" cx="337.9" cy="129.25" r="1.76"/><circle class="cls-4" cx="336.72" cy="89.79" r="1.76"/><circle class="cls-4" cx="334.37" cy="50.34" r="1.76"/><circle class="cls-4" cx="336.72" cy="168.7" r="1.76"/><path class="cls-2" d="M93.38,278.69s1.29-29.37-16.26-30.26,4,25.33,4,25.33-9.55-10.89-14.88-7.55,3.55,8.22,3.55,8.22-15.11-4.09-14.22,1.29S93.38,278.69,93.38,278.69Z" transform="translate(-55.54 -56)"/><path class="cls-8" d="M171.78,245.58l-11.31,25.67s2.53.7,3.49,2.44c1.07,1.94-10.28,2.44-18.39,2.09h-8.8l14.29-27.89Z" transform="translate(-55.54 -56)"/><path class="cls-9" d="M172.62,106s-3.61-11-5.84-14.2a.62.62,0,0,0-1.12.32c-.07,1.8.57,5.9,2.66,17.4Z" transform="translate(-55.54 -56)"/><path class="cls-10" d="M174.9,105.57s-2.09-6.43-2.16-10.18a.59.59,0,0,1,1-.38c1.06,1.36,1.84,2.26,6.63,12.38Z" transform="translate(-55.54 -56)"/><path class="cls-9" d="M176.5,103.74c-.17-.42-4.26-10.49-6.66-13.38a.62.62,0,0,0-1.09.43c.13,1.75.88,5.43,3.95,16a0,0,0,0,0,0,0l3.74-3S176.5,103.76,176.5,103.74Z" transform="translate(-55.54 -56)"/><path class="cls-8" d="M153.25,144.7l12.9,12.72s-1.35-43.65,1.74-48.46c3.34-5.21,6.49-7.11,10-5.72s15.82,32.74,18.78,48.95c0,0,1,4.12-1.07,4.51,0,0,4.12,13.14,2,15.49a.86.86,0,0,1-1.18-.39s1.35,17.08-15.64,23.53c0,0-1.57-.78.44-2.09,0,0-18.52,8.89-29.24.26s-13.86-16.21-13.86-16.21Z" transform="translate(-55.54 -56)"/><path class="cls-11" d="M110.59,119.42s-1.62-1.74-3.1-7" transform="translate(-55.54 -56)"/><path class="cls-2" d="M109.78,97.16s6.79,11.56-2.36,15.67C107.42,112.82,102.37,105.88,109.78,97.16Z" transform="translate(-55.54 -56)"/><path class="cls-2" d="M107.25,112.43c1,.19,2.11-7.2-6-12.15C101.24,100.28,100,111.09,107.25,112.43Z" transform="translate(-55.54 -56)"/><g class="cls-12"><path class="cls-13" d="M109.73,96.6a40.82,40.82,0,0,1-2.25,15.81" transform="translate(-55.54 -56)"/></g><path class="cls-14" d="M171.42,136.17c5.08,11.44,11,23,11,23s24.06,38.7,15,63.45-45.71,29.11-45.71,29.11l-10.42,21.61a6,6,0,0,1,3.65,2.16.66.66,0,0,1-.32,1.07c-9.28,2.17-24.67-.17-27.85-.69a1.37,1.37,0,0,1-.92-.58C100.8,253.23,92,213.55,92,213.55s.35,3.49-1.22,2.61-2.27-16.91-2.27-16.91c-1.92-25.62,9.24-49.77,9.24-49.77L96,151a.69.69,0,0,1-1.13-.67c.49-2.5,3.51-8,3.51-8,2.35-4.16,9.37-19.83,14.34-29.15s6.8-27.37,6.8-27.37c-.87.26-1.13,0-1.13,0-1.74-4.62,4.79-14.29,4.79-14.29a1.25,1.25,0,0,1-1-1.31c.17-3.14,8.45-7,8.45-7-2.44.17-3.05-.78-3.05-.78,1.48-3.83,11.55-1.18,11.55-1.18-2.88-2.61-1.57-4.71-1.57-4.71,2.35-2.75,6.54,5.88,6.54,5.88s6.14-4.53,8.24-3.57-1.83,3.75-1.83,3.75,8.72-.35,10.81,1.39-2.44,2-2.44,2,6.71,3.75,7.06,5.84-.87,1.48-.87,1.48,5.49,7.58,3.75,11.07l-.78.44s1,13.42-.7,16.3c0,0-1,.87-1.13-.35h0A66.65,66.65,0,0,0,171.42,136.17Z" transform="translate(-55.54 -56)"/><path class="cls-15" d="M197.42,222.6c-9.06,24.75-45.7,29.11-45.7,29.11-11.9-8.11-9.81-25.1-6.15-38.7,2.71-10.07,2.27-28.3,1.85-37.1a79.86,79.86,0,0,0-.83-8.36c-.7-4.63-1.83-13.86-2.73-26.45a34.52,34.52,0,0,1,1.08-12.84,11.17,11.17,0,0,1,8.71-7.43,12.21,12.21,0,0,1,10.92,3,14.45,14.45,0,0,1,3.84,5.77c.84,2.28,2,4.26,3,6.57,5.08,11.44,11,23,11,23S206.48,197.85,197.42,222.6Z" transform="translate(-55.54 -56)"/><path class="cls-15" d="M165.16,84.8a.21.21,0,0,1,.28.11c1,2.52,0,9.37-.58,9.36s-1.22-1.18-1.22-1.18c1.06,6.35-3.71,12.95-4.11,13s-1-1.07-1-1.07a12,12,0,0,1-2.86,5c-2.4-.24-5.09-4.22-5.09-4.22s.14,1.58-.57,1.42c-5.59-1.25-11.16-11.31-11.16-11.31a1.59,1.59,0,0,1-.83,1.48c-2.18-1.07-3.62-8.25-4-10.48a.5.5,0,0,1,.55-.58,21.64,21.64,0,0,0,8.16-.63c4-1.28,4.8-5.74,1-7.7-3-1.55-7.13.27-8.74,1.11a.27.27,0,0,1-.37-.36c1-1.94,3.59-7,16.65-7.13,0,0,9-.57,12.87,5.69a.17.17,0,0,1-.17.26c-.84-.14-2.94-.36-4.23.48-1.47,1-2.21,4.86,1.52,6.38C163.42,85.34,164.7,85,165.16,84.8Z" transform="translate(-55.54 -56)"/><path class="cls-9" d="M157.2,82.73a2.24,2.24,0,0,0-2.31-1.78l-2,.1-2,.1a2.23,2.23,0,0,0-2.12,2,3,3,0,0,0,1.59,2.71l2.52,1.5a.6.6,0,0,0,.67,0l2.35-1.75A3,3,0,0,0,157.2,82.73Z" transform="translate(-55.54 -56)"/><path class="cls-9" d="M160.08,106.95s-3-11.15-5.06-14.49a.62.62,0,0,0-1.14.25c-.17,1.79.24,5.92,1.71,17.52Z" transform="translate(-55.54 -56)"/><path class="cls-9" d="M156.31,111s-1.72-6.54-3.69-9.74a.59.59,0,0,0-1.09.25c-.15,1.71-.33,2.89,1.12,14Z" transform="translate(-55.54 -56)"/><path class="cls-9" d="M164.28,106c-.1-.44-2.39-11.06-4.26-14.33a.62.62,0,0,0-1.15.24c-.17,1.75-.07,5.5,1.14,16.41a0,0,0,0,0,0,0l4.2-2.32S164.28,106,164.28,106Z" transform="translate(-55.54 -56)"/><path class="cls-14" d="M138.85,146.44l12.9,11.68s-1.35-42.6,1.74-47.41c3.34-5.21,6.49-7.11,10-5.72s15.82,32.74,18.78,48.95c0,0,1,4.12-1.07,4.51,0,0,4.12,13.14,2,15.49a.86.86,0,0,1-1.18-.39s1.35,17.08-15.64,23.53c0,0-1.57-.78.44-2.09,0,0-18.52,8.89-29.24.26S123.73,179,123.73,179Z" transform="translate(-55.54 -56)"/><ellipse class="cls-10" cx="164.04" cy="80.34" rx="0.81" ry="0.79" transform="translate(-58.5 -49.64) rotate(-2.2)"/><ellipse class="cls-10" cx="144.01" cy="81.5" rx="0.81" ry="0.79" transform="matrix(1, -0.04, 0.04, 1, -58.56, -50.41)"/><ellipse class="cls-9" cx="151.35" cy="90.45" rx="0.69" ry="0.68" transform="translate(-58.9 -50.12) rotate(-2.2)"/><line class="cls-16" x1="96.21" y1="102.12" x2="83.31" y2="90.44"/><line class="cls-16" x1="96.21" y1="97.33" x2="96.21" y2="107.35"/><path class="cls-16" d="M147.46,199s-15-.63-23.73-20" transform="translate(-55.54 -56)"/><path class="cls-17" d="M207.66,237s-2.33-6.14-9.48-4.11" transform="translate(-55.54 -56)"/><path class="cls-18" d="M226.63,277a32.44,32.44,0,0,1-.37,14.46.58.58,0,0,0,.59.71h3.53" transform="translate(-55.54 -56)"/><path class="cls-18" d="M213.82,275.72s1,9.15-1.1,15.74a.58.58,0,0,0,.59.71h3.53" transform="translate(-55.54 -56)"/><line class="cls-18" x1="147.52" y1="211.16" x2="146.68" y2="230.24"/><ellipse class="cls-2" cx="202.14" cy="286.88" rx="2.44" ry="1.22" transform="translate(-148.88 420.21) rotate(-87.48)"/><path class="cls-3" d="M207.66,237s4.35-11.6,15.95-2.9S237.14,272,219,285.85c0,0-4.35-11.84-11.36-15s-20.3-14-14.26-26.34S207.66,237,207.66,237Z" transform="translate(-55.54 -56)"/><g class="cls-19"><path class="cls-20" d="M207.66,237s22.39,15,11.27,49.2" transform="translate(-55.54 -56)"/><path class="cls-20" d="M222,264.4a37.11,37.11,0,0,0-7.34,13.49" transform="translate(-55.54 -56)"/><path class="cls-20" d="M210.65,239s12.44-5.24,19.85,4.4" transform="translate(-55.54 -56)"/><path class="cls-20" d="M221,258.16s7.63,4.37,9.86,11.31" transform="translate(-55.54 -56)"/><path class="cls-20" d="M222.11,269.08a17.64,17.64,0,0,1,3.7,10.16" transform="translate(-55.54 -56)"/></g><circle class="cls-9" cx="211.39" cy="247.7" r="1.11" transform="translate(-137.04 49.39) rotate(-23.61)"/><circle class="cls-9" cx="219.97" cy="243.68" r="1.11" transform="translate(-134.72 52.49) rotate(-23.61)"/><path class="cls-18" d="M232.48,255.3s11-11.27-9.75-14.51" transform="translate(-55.54 -56)"/><path class="cls-21" d="M215.79,249.11a2.07,2.07,0,0,1,2.32-1" transform="translate(-55.54 -56)"/><ellipse class="cls-2" cx="221.39" cy="240.79" rx="1.02" ry="2.32" transform="translate(-99.64 375.86) rotate(-83.15)"/><path class="cls-22" d="M552.71,259.73c-.75,3.83-.25,14.27-.25,14.27a.76.76,0,0,1-.76.76h-2.29" transform="translate(-55.54 -56)"/><path class="cls-23" d="M538,214.66s6.13-1.42,8,3.54" transform="translate(-55.54 -56)"/><path class="cls-3" d="M550,262.33c19.2,1.1,25.14-19.84,26.58-25.08s1.73-19.43-11.54-26.83-19,7.78-19,7.78-9-.37-11.65,3.61-5.22,11.42,1.29,17.26,14.91,9.79,15.49,14.21A17.12,17.12,0,0,1,550,262.33Z" transform="translate(-55.54 -56)"/><path class="cls-24" d="M546,218.21s27.11,18.74,4.34,43.66" transform="translate(-55.54 -56)"/><circle class="cls-9" cx="548.25" cy="227.87" r="1.15" transform="translate(-101 170.01) rotate(-22.39)"/><path class="cls-25" d="M553.12,230.39a4.45,4.45,0,0,1,2.89-1.47" transform="translate(-55.54 -56)"/><path class="cls-24" d="M551.16,253.29s5.8-4.06,6.81-3.95" transform="translate(-55.54 -56)"/><path class="cls-24" d="M558.72,235.88s11.5,3.71,13.2,13.14" transform="translate(-55.54 -56)"/><path class="cls-22" d="M575.63,236s5.82,3.91,5.78,7.74c0,2.1-2.09,5.26-7.39,5.58" transform="translate(-55.54 -56)"/><path class="cls-22" d="M539.82,242.45s1.61,8.57-1.34,8.86c-4,.4-8.25-4.7-8.25-4.7" transform="translate(-55.54 -56)"/><ellipse class="cls-2" cx="571.92" cy="250.03" rx="2.44" ry="1.23" transform="translate(-107.57 176.96) rotate(-22.05)"/><path class="cls-22" d="M562.24,258.69c-1.33,4.88,0,16.36,0,16.36a.76.76,0,0,1-.76.76h-2.29" transform="translate(-55.54 -56)"/><line class="cls-25" x1="501.42" y1="167.06" x2="499.63" y2="168.03"/><line class="cls-26" x1="478.01" y1="192.24" x2="472.87" y2="187.75"/><ellipse class="cls-27" cx="524.61" cy="240.59" rx="1.55" ry="5.41" transform="translate(-55.77 424.66) rotate(-49.22)"/><ellipse class="cls-2" cx="530.01" cy="245.36" rx="1.27" ry="2.52" transform="translate(-107.21 241.88) rotate(-30)"/></svg>