<svg id="Слой_1" data-name="Слой 1" xmlns="http://www.w3.org/2000/svg" viewBox="0 0 336.13 210.55">
    <defs>
        <clipPath id="clip-path" transform="translate(-76.84 -52.87)">
            <path d="M159.08 92.89s8.12 7 2.26 12.46c0 0-5.62-3.94-2.26-12.46z" fill="none"/>
        </clipPath>
        <style>
            .cls-15,.cls-16{fill:none;stroke-miterlimit:10}.cls-3{fill:#506336}.cls-15,.cls-16{stroke-linecap:round}.cls-6{fill:#313330}.cls-7{fill:#3a3c39}.cls-9{fill:#513d30}.cls-10{fill:#a7b8bc}.cls-11{fill:#fff}.cls-13{fill:#8c6f60}.cls-15{stroke:#201600;stroke-width:.79px}.cls-16{stroke:#b4c9cc;stroke-width:1.11px}
        </style>
    </defs>
    <path d="M89.27 59.83s.31-5.89-4.83-7.68" stroke-miterlimit="10" stroke="#506336" stroke-width=".83" fill="none"/>
    <path class="cls-3" d="M159.08 92.89s8.12 7 2.26 12.46c0 0-5.62-3.94-2.26-12.46z" transform="translate(-76.84 -52.87)"/>
    <path class="cls-3" d="M161.39 105c.34-.76-5.2-3-10.57 2.39 0-.01 8.18 2.96 10.57-2.39z" transform="translate(-76.84 -52.87)"/>
    <g clip-path="url(#clip-path)">
        <path d="M82.06 39.61a32.63 32.63 0 012.38 12.52" stroke-linecap="round" stroke="#364222" stroke-width=".58" stroke-miterlimit="10" fill="none"/>
    </g>
    <path class="cls-6" d="M297.72 113.59a6.62 6.62 0 015.59-1.9c2.67.39 5.94 2.23 7 2.14s-2.39-6-8.64-6.7-10.34 4.23-10.34 4.23z" transform="translate(-76.84 -52.87)"/>
    <path class="cls-7" d="M293.85 112.28a8.42 8.42 0 017.45-2.74c3.65.53 8.15 2.85 9.65 2.75s-3.37-7.4-11.91-8.38-14.16 5.47-14.16 5.47z" transform="translate(-76.84 -52.87)"/>
    <path class="cls-6" d="M94.26 187s-14.2-2.51-16.7 1.09l15.52 2.73z" transform="translate(-76.84 -52.87)"/>
    <path class="cls-7" d="M92.27 190.5s-13.76-3.74-15.33-2.07 17.19 6.67 17.19 6.67z" transform="translate(-76.84 -52.87)"/>
    <path d="M162.94 253.34c13.75-2.61 40.48-.45 55.09.08 3.68.13 7.53.3 10.64 1.33s5.09 3.25 3.32 4.93c-1.6 1.53-5.36 2-8.68 2.22a539.36 539.36 0 01-103.26-2.13c-2-.24-4.53-.9-4.05-1.93.24-.52 1.19-.85 2.07-1.12a84.63 84.63 0 0117.76-3.19z" transform="translate(-76.84 -52.87)" fill="#b4c9cc"/>
    <path class="cls-9" d="M143.2 209.14c-8.14 5.86-17.06 20.09-17.06 20.09 2.49 12 11.68 27.53 13.48 26.65s2-6.31 2-6.31l20.59-9.31z" transform="translate(-76.84 -52.87)"/>
    <path class="cls-10" d="M412.74 64l-41.48 18.3-11.17-12.75 52.61-5.65a.08.08 0 01.04.1z" transform="translate(-76.84 -52.87)"/>
    <path class="cls-10" d="M362.11 65.87l2.82 3.59 47.86-5.65-50.65 2.05-.03.01z" transform="translate(-76.84 -52.87)"/>
    <path class="cls-11" d="M412.86 63.63l-44.31-8.33-6.45 10.47v.05l50.72-2.06a.06.06 0 00.04-.13zM412.9 63.79l-52.82 5.76-5.73 14 58.58-19.65a.06.06 0 00-.03-.11z" transform="translate(-76.84 -52.87)"/>
    <path d="M232.27 186a69.21 69.21 0 00-1-18.86C229.32 157 226 140 224.39 134.83c-2.33-7.5-3.37-30.42 3.29-42.08 0 0 .06 1.81 1 1.75.69 0 4.17-8.08 1.25-19.33a3.26 3.26 0 002 .68c.92-.17-1.71-10.85-9.71-14.6l-1.83-.42s2.67.25 3.42-.58-8-5.25-16.67-3.75c0 0-5.17-4.42-6.42-3.5s.67 2.92 2.5 3.5c0 0-13.37.5-14.12 4.5 0 0 .88.75 3 0 0 0-10.62 7.13-10 10.38 0 0 .13 1.38 3.13-.62a23.22 23.22 0 00-3.15 11.13c-.1 6.38-7 22.5-24.47 34.88 0 0-14 9-15.12 10.75 0 0-.12 1.25 3.25 0 0 0-22.75 16.5-24.75 27.17 0 0 .38.83 2.69-.79 0 0-6.69 6.63-5.87 10.44 0 0 .19.76 1.69-1.09s-5.86 16.33-19.61 20.75c0 0-9 1.25-9.08 4.83s2.75 7.42 12.5 9.75c0 0 17.38 6.79 36.13-17 0 0-6.21 20.71 12.13 45.21l17.5 25.5a15.11 15.11 0 002.61 3.67c11 2.78 27.72 1.85 27.72 0s-4-3.29-4-3.29l8-19.38c1.35-.24 25.27-5.49 28.87-47.29z" transform="translate(-76.84 -52.87)" fill="#6d5241"/>
    <path class="cls-9" d="M220.31 119.25S243.56 134 248.56 138c0 0 27.67-28.17 37.67-29.17 0 0 10.5 2.09 11.5 4.75s-10.8 24.72-15.92 28.4a.51.51 0 01-.79-.31 4.93 4.93 0 01.38-3.18s-6.4 13.87-9.31 16.51a.62.62 0 01-1-.26 14.62 14.62 0 01-.39-2.38c1-1.94-8.68 17.33-22.92 16.54a30.93 30.93 0 01-21.62-10.37z" transform="translate(-76.84 -52.87)"/>
    <path class="cls-13" d="M232.32 185.38c-1.08 6.92-2.64 21.12-10.15 33.49s-18.8 14.45-18.8 14.45c-17.18-9.43-16.32-33.82-9-46.54 7.52-13.08 9.19-38.28 9.19-38.28s2.36-26.11 8.5-32.25c6.75-6.75 10.56 1.25 10.56 1.25l.24 5.33a59.65 59.65 0 001.22 9.58l5.63 26.74s3.54 20.27 2.61 26.23zM228 79.37a.2.2 0 01.26.13c.64 2.53-1.05 9-1.58 8.93s-1-1.26-1-1.26c.29 6.21-4.92 12-5.3 12s-.85-1.14-.85-1.14a11.67 11.67 0 01-3.25 4.52c-2.23-.49-4.32-4.61-4.32-4.61s0 1.53-.69 1.3c-5.16-1.81-9.27-12.09-9.27-12.09a1.53 1.53 0 01-.95 1.33c-1.94-1.26-2.5-8.32-2.62-10.51a.48.48 0 01.58-.5 20.08 20.08 0 007.75.3c3.92-.79 5.15-5 1.77-7.29-2.66-1.82-6.74-.53-8.35.1a.26.26 0 01-.31-.38c1.17-1.76 4.16-6.36 16.45-5 0 0 8.49.44 11.48 6.88a.16.16 0 01-.19.23c-.78-.22-2.72-.67-4 0-1.48.75-2.62 4.43.73 6.3 1.95 1.09 3.19.9 3.66.76z" transform="translate(-76.84 -52.87)"/>
    <path d="M62.6 128.76s14-22.29 22.23-27.12" stroke="#313330" stroke-width=".77" stroke-linecap="round" stroke-miterlimit="10" fill="none"/>
    <path class="cls-6" d="M220.63 75.95a2 2 0 00-1.93-1.81l-1.8-.07-1.8-.07a2 2 0 00-2.1 1.67 2.78 2.78 0 001.21 2.6l2.13 1.57a.53.53 0 00.6 0l2.24-1.41a2.78 2.78 0 001.45-2.48z" transform="translate(-76.84 -52.87)"/>
    <path class="cls-15" d="M203.53 73.68s1.24-2.4 3.73-.42M227.4 75.45s-1.13-2.46-3.7-.59M219.4 81.42a2.84 2.84 0 01-5.39-.2" transform="translate(-76.84 -52.87)"/>
    <path class="cls-6" d="M302.12 101.85c.55-.23 1.33.46 1.09 1-1.58 3.24-7.11 8.82-9.16 10.83a1.47 1.47 0 01-1.84.14 7.33 7.33 0 01-1.29-1 3.91 3.91 0 01-.8-2.4 1.41 1.41 0 01.47-1.15 50 50 0 0111.53-7.42z" transform="translate(-76.84 -52.87)"/>
    <path class="cls-16" d="M250.57 30.14l18.21-3.74M243.99 36.27l17.9-5.05"/>
</svg>
