<svg version="1.1" id="Слой_2" xmlns="http://www.w3.org/2000/svg" xmlns:xlink="http://www.w3.org/1999/xlink" x="0" y="0" viewBox="0 0 1034 547.1" xml:space="preserve">
  <style>
    .st0{fill:#506336}.st1{fill:#568291}.st2{fill:#9ab7c1}.st3{fill:#d6e2ea}.st5,.st7,.st8{fill:#d6e2ea;stroke:#9ab7c1;stroke-miterlimit:10}.st7,.st8{stroke:#568291}.st8{fill:none;stroke:#506336;stroke-width:2.14;stroke-linecap:round}.st9{fill:#6d5241}.st10{fill:#513d30}.st11{fill:none;stroke:#506336;stroke-width:2.28;stroke-linecap:round;stroke-miterlimit:10}.st12{fill:#798e44}.st14,.st18{fill:none;stroke:#91a553;stroke-width:1.72;stroke-linecap:round;stroke-miterlimit:10}.st18{stroke-width:1.71}.st21{fill:#313330}.st26{fill:#446577}.st28{fill:#8c6f60}.st30{fill:none;stroke:#313330;stroke-linecap:round;stroke-miterlimit:10}.st31{fill:#201600}.st35{fill:none;stroke:#aeb9c1;stroke-linecap:round;stroke-miterlimit:10}
  </style>
  <path class="st0" d="M52.4 505.7c-14.2 0-28.6-2.3-40.6-9C5.3 493-5.7 480.9 3.6 471c0 0 10.5-12.1 42.6 17.4 0 0-15-15.6-7.3-17.7s15 9.2 15 9.2-30.8-56.8-1.6-56 47 56.4 47 56.4-6.9-34.8 14.6-28.7 18.2 32.3 18.2 32.3 5.3-22.4 15.8-16.4-3.2 24-3.2 24 24.7-27.2 33.6-10.2c4.5 8.5-1.8 14.6-9.2 18.6-7.5 3.9-15.9 5.9-24.3 5.8H52.4zM234.1 506.1c-13.3 0-26.9-2.2-38.1-8.5-6.2-3.5-16.6-14.8-7.8-24.2 0 0 9.9-11.3 40 16.3 0 0-14.1-14.7-6.9-16.7s14.1 8.7 14.1 8.7-29-53.4-1.5-52.7 44.2 53 44.2 53-6.5-32.7 13.7-27 17.1 30.3 17.1 30.3 5-21 14.9-15.3-3 22.5-3 22.5S344 467 352.4 483c4.2 8-1.7 13.8-8.7 17.5-7.1 3.7-14.9 5.6-22.9 5.5h-86.7z"/>
  <path class="st1" d="M79.7 387.7h200v118h-200z"/>
  <path class="st2" d="M262.7 372.4h-166l-17 15.3h200z"/>
  <path class="st1" d="M111.1 266.2h137.3c1.1 0 2 .9 2 2v90.7c0 1.1-.9 2-2 2H111.1c-1.1 0-2-.9-2-2v-90.7c0-1.1.9-2 2-2z"/>
  <path class="st3" d="M118.9 275.6h121.7c.2 0 .4.2.4.4v75.3c0 .2-.2.4-.4.4H118.9c-.2 0-.3-.2-.3-.4V276c-.1-.3.1-.4.3-.4z"/>
  <path fill="none" stroke="#9ab7c1" stroke-miterlimit="10" d="M131.3 306l33.8 31 18.7-14.1 18.5 13.2 18.8-14.6"/>
  <circle class="st5" cx="164.9" cy="337" r="3"/>
  <circle class="st5" cx="183.6" cy="323.3" r="3"/>
  <circle class="st5" cx="202.4" cy="335.9" r="3"/>
  <circle class="st5" cx="221.1" cy="322" r="3"/>
  <path fill="none" stroke="#568291" stroke-miterlimit="10" d="M131.3 329.7l32.3-28.5 20 12.4 18-12.4h2.2l20.4-10.4"/>
  <circle class="st7" cx="163.6" cy="301.2" r="3"/>
  <circle class="st7" cx="183.6" cy="313.6" r="3"/>
  <circle class="st7" cx="202.4" cy="301.4" r="3"/>
  <circle class="st7" cx="224.2" cy="290.8" r="3"/>
  <path class="st2" d="M131 284.3h23.4v1.2H131z"/>
  <path class="st1" d="M126.7 282.4h3v3h-3z"/>
  <path class="st2" d="M131 289.1h23.4v1.2H131zM126.7 287.2h3v3h-3z"/>
  <path class="st8" d="M130.9 368.7s-3.1 25.9.2 26.9c3.3 1 6-11 6-11M216.8 366.4s4.3 28.3 1 29.3-6-11-6-11"/>
  <path class="st9" d="M144.4 447.4h62.5v7h-62.5z"/>
  <path class="st10" d="M160.4 454.8l-5.9 60.6h-3.7l3.9-61.1zM190.8 454.8l5.9 60.6h3.7l-3.9-61.1z"/>
  <path class="st11" d="M159.1 411.8V446c0 .3.2.5.5.5h4.3M186.9 411.8V446c0 .3.2.5.5.5h5.2"/>
  <path class="st12" d="M174.3 320.4s27.8-16.4 40.4 8-2.5 57.5-8.6 67-31.7 35.4-31.7 35.4l-22.5-23c-10.4-10.4-17.8-23.3-21.7-37.5-2-7.5-3-15.7-1.5-23.2 3.8-19.4 11-30.8 20.9-30.5 0 0 15.9-3 24.7 3.8z"/>
  <defs>
    <path id="SVGID_1_" d="M174.9 320.5s27.8-16.5 40.4 8c12.6 24.5-4.2 59-10.3 68.6-6.1 9.6-30 34.4-30 34.4l-22.6-23.1c-10.4-10.5-17.8-23.5-21.7-37.7-2-7.5-3-15.8-1.5-23.4 3.8-19.5 11-31 20.9-30.6 0-.1 16-3.1 24.8 3.8z"/>
  </defs>
  <clipPath id="SVGID_2_">
    <use xlink:href="#SVGID_1_" overflow="visible"/>
  </clipPath>
  <g clip-path="url(#SVGID_2_)">
    <path class="st14" d="M185.2 422.2s-4.3-12.7-11.6-19.6M174.9 318.2s-4.4 18.2 0 118M172.9 387.4s-15.6 13.4-18.5 26.4M173.7 328.5s31.2 9.6 42.1 41.1M172.9 352.8s-24.5 13.1-34.2 43.2"/>
  </g>
  <path d="M162.5 309.7s10.7-1.1 11.8 10.8" fill="none" stroke="#798e44" stroke-width="2" stroke-linecap="round" stroke-miterlimit="10"/>
  <path d="M371.9 376s-5.5-14.5-22.3-9.7" fill="none" stroke="#798e44" stroke-width="2.56" stroke-linecap="round" stroke-miterlimit="10"/>
  <path class="st8" d="M416.5 470.2s4 17-.9 34.1c-.2.7.3 1.5 1.1 1.6H425.3M386.4 467.1s2.2 21.5-2.6 37.1c-.2.7.3 1.5 1 1.6H393.4"/>
  <path class="st12" d="M371.9 376s10.2-27.3 37.6-6.8c27.3 20.5 31.9 89.1-10.8 121.8 0 0-10.2-27.9-26.8-35.3s-47.8-33-33.6-62 33.6-17.7 33.6-17.7z"/>
  <defs>
    <path id="SVGID_3_" d="M371.5 376s10.2-27.3 37.6-6.8c27.3 20.5 31.9 89.1-10.8 121.8 0 0-10.2-27.9-26.8-35.3s-47.8-33-33.6-62 33.6-17.7 33.6-17.7z"/>
  </defs>
  <clipPath id="SVGID_4_">
    <use xlink:href="#SVGID_3_" overflow="visible"/>
  </clipPath>
  <g clip-path="url(#SVGID_4_)">
    <path class="st18" d="M371.5 376s52.7 35.3 26.6 115.9M405.2 440.5c-7.9 9.3-13.8 20.1-17.3 31.8M378.5 380.7s29.3-12.3 46.8 10.4M403 425.8s18 10.3 23.2 26.6M405.5 451.5c5.3 6.9 8.4 15.2 8.7 23.9"/>
  </g>
  <path class="st3" d="M390.6 430.1l4.9 20.3 16.5-2v-22.1z"/>
  <path class="st8" d="M360.7 448.1s-7 25.6 5.5 22 23-31.5 27.2-32"/>
  <ellipse transform="rotate(-30 394.064 438.124)" class="st0" cx="394.1" cy="438.1" rx="4.9" ry="2.7"/>
  <ellipse transform="rotate(-60 409.955 436.63)" class="st0" cx="410" cy="436.6" rx="2.7" ry="4.9"/>
  <path d="M412.9 438.1s8.8 19 13.2 19c5.4 0 7.5-15.5 4.2-27" fill="none" stroke="#506336" stroke-width="2.1" stroke-linecap="round" stroke-miterlimit="10"/>
  <path class="st10" d="M359.8 412.5s-14 10.2-18.3 17.7c-.1.1-.1.2 0 .3l2 2.8c.1.1.3.2.4.1l.1-.1c1.5-1.8 10.1-12 17.1-16.7l-1.3-4.1zM402.1 391.1s13.4-6.5 20.4-6.7c.1 0 .2.1.2.1l.9 2.7c0 .2 0 .3-.2.4-2 .4-12.8 2.8-19.2 6.2l-2.1-2.7z"/>
  <path d="M390 411.4s5 1.4 7.1-3.1" fill="none" stroke="#313330" stroke-width="1.5" stroke-linecap="round" stroke-miterlimit="10"/>
  <path class="st10" d="M378.9 389.3s-14.8 7.7-18.2 15.4c0 0-2.5 6.3.4 11.9 3.4 6.5 10.2 6.8 15.5 4 2.6-1.5 4.8-3.6 6.3-6.2v.5l-4-25.6z"/>
  <path class="st9" d="M402.7 382.3c-7.8-1.6-21.8 5.8-21.8 5.8s-14.2 7-17.5 14.2c0 0-3.1 5.6-.4 11 3.1 6.2 9 7.7 15.7 4.3 2.2-1.1 4.1-2.9 5.3-5 0 0 3.7-5.1 6.2-6.2h.1c2.3-1.3 8.5-1.4 8.5-1.4 2.5.2 5-.2 7.2-1.4 6.8-3.4 8.9-9.1 5.8-15.3-2.7-5.2-9.1-6-9.1-6z"/>
  <path class="st3" d="M401.4 384.3c-6.8-1-19.5 5.7-19.5 5.7s-12.9 6.4-16 12.5c0 0-3 4.8-.7 9.2 2.5 5 7.7 6.1 13.8 3 2-1 3.7-2.5 4.9-4.4 0 0 3.5-4.4 5.7-5.4h.1c2.1-1.2 7.6-1.4 7.6-1.4 2.2.1 4.4-.4 6.4-1.4 6.1-3.1 8.2-7.9 5.7-12.9-2.4-4.5-8-4.9-8-4.9z"/>
  <circle class="st21" cx="378.1" cy="404.9" r="1.9"/>
  <circle class="st21" cx="400.5" cy="394" r="1.9"/>
  <path class="st12" d="M1033.6 492.7c-4.8-11.7-19.9-8-19.9-8s21.5-31.7 6.2-42.6-43.9 10.5-43.9 10.5 29.3-69.8 5.7-96.8-56.7 19.8-56.7 19.8 6.9-33.3-3.6-45.8-38.8 22-38.8 22l-6.8 44.2-211.7-5.2s-31.3-46.4-60.1-26.3c-28.8 20.1 8.9 59.4 8.9 59.4s-25.2-10.7-44.3-3.2-1.7 25-1.7 25-51.3-17.6-69.4 21.9c-17.4 37.9 59.9 26.4 59.9 26.4-13.9 10.3 7.8 11.5 7.8 11.5l315.8.6.1-1.1c33.3.3 94.4.8 106.5-.3 16.6-1.5 50.8-.2 46-12z"/>
  <path d="M960.9 501.3c2.8-2.5 4.5-5.6 4.5-9 0-7.1-7.5-13.1-17.5-14.7 1.7-2.9 2.6-6.1 2.6-9.5 0-11.6-10.7-21-23.8-21s-23.8 9.4-23.8 21c0 3.5 1 6.9 2.8 9.8-2.7-.5-5.4-.8-8.2-.8-9.7 0-18.3 3.1-23.6 7.9-3.5.9-6.7 2.6-9.4 4.9v-15.2L752.6 477v12.9c-4.1-3.7-10.7-6.1-18.1-6.1-5.1-.1-10.2 1.2-14.7 3.6-.1-1.9-.3-3.8-.7-5.6-3-14.2-14.7-24-26-21.9-6.7 1.2-11.8 6.4-14.2 13.4-2.5-.5-5.2-.6-7.7-.1-12.3 2.3-19.8 15.6-16.7 29.8 2.5 11.8 11.6 20.5 21.6 21.8-1.1.8-1.7 2-1.8 3.3 0 4 7.3 7.2 16.2 7.2 2.4 0 4.9-.2 7.2-.8-.3.6-.5 1.4-.5 2.1 0 5.7 11.1 10.3 24.8 10.3h211.3c9.5 0 17.4-4.6 20-11 2.1.4 4.2.6 6.4.6 13.4 0 24.3-8 24.3-17.8-.2-9.2-10.4-16.9-23.1-17.4z" fill="#e2e2e2"/>
  <path d="M618.1 222.1c2.2-2.1-6.6-11.2-15-10.3" fill="none" stroke="#506336" stroke-width="1.77" stroke-miterlimit="10"/>
  <path class="st0" d="M576.8 210.4s17 15.4 27.1 1.5c0 0-9.9-10.9-27.1-1.5z"/>
  <path class="st0" d="M603.1 212.1c-1.5.9-7.8-10.2 2.2-23.1 0 0 8.6 16.6-2.2 23.1z"/>
  <defs>
    <path id="SVGID_5_" d="M576.8 210.4s17 15.4 27.1 1.5c0 0-9.9-10.9-27.1-1.5z"/>
  </defs>
  <clipPath id="SVGID_6_">
    <use xlink:href="#SVGID_5_" overflow="visible"/>
  </clipPath>
  <g clip-path="url(#SVGID_6_)">
    <path d="M575.9 210.2c8.9 2.4 18.2 2.9 27.3 1.7" fill="none" stroke="#364222" stroke-width="1.23" stroke-linecap="round" stroke-miterlimit="10"/>
  </g>
  <path class="st3" d="M898.8 353.6c-1.5 10.2-3.3 20.3-5.2 30.1-1 4.8-1.9 9.5-3 14.1-2 9-4.1 17.8-6.5 26.3-14.4 11.2-43.3 18.7-76.4 18.4s-61.9-8.2-76.1-19.7c-2.2-8.6-4.2-17.3-6-26.4-.9-4.5-1.8-9.2-2.7-13.8v-.2c-1.8-9.9-3.4-20-4.7-30.3-10.3-78.4-5.4-149.8 10.8-195.1 0 0 14.4-45.9 41.2-87.6 13.4 3 27.1 4.5 40.8 4.6 13.4.2 26.7-1.1 39.8-3.7 25.5 41.8 40.7 88.1 40.7 88.1 15.2 45.5 19 117 7.3 195.2z"/>
  <path class="st26" d="M884.1 424c-1.7 6.1-3.4 12.1-5.2 18-3.9 12.8-8.2 24.8-12.7 36.1-13.5 10.3-35.1 16.8-59.2 16.6-12 0-24-1.9-35.5-5.6-2.4-.8-4.8-1.7-7.2-2.7-5.5-2.3-10.8-5.2-15.6-8.8 0-.1-.1-.2-.1-.2-4.4-11.6-8.6-24.1-12.4-37.3-1.5-5.2-3-10.6-4.3-16-.1-.4-.2-.9-.3-1.4.3.3.7.5 1 .8 6.7 5.1 16.4 9.5 28 12.7 15.4 4.1 31.2 6.2 47.1 6.2 33.2.3 62-7.1 76.4-18.4zM851.2 70.3c-13.1 2.6-26.5 3.8-39.8 3.7-13.7 0-27.4-1.6-40.8-4.6 11.5-17.9 25.3-35.1 41.3-47.6 14.7 12.3 28 30 39.3 48.5z"/>
  <path class="st2" d="M748.5 477.4c-7 4.4-12.8 15.6-15.8 30.2-.3 1.3-1.5 2.1-2.8 1.9-.6-.1-1.1-.4-1.4-.9-6.7-8.6-11.1-23.8-11-41 .2-19.3 6-35.8 14.2-43.5 1.4 5.4 2.8 10.8 4.3 16 3.9 13.2 8.1 25.7 12.5 37.3zM866.3 478.4c6.9 4.5 12.5 15.8 15.2 30.5.2 1.3 1.5 2.2 2.8 1.9.6-.1 1.1-.4 1.4-.8 6.9-8.5 11.5-23.6 11.7-40.8.2-19.3-5.4-35.9-13.5-43.8-1.5 5.4-3 10.8-4.6 16-4.1 13.1-8.4 25.4-13 37zM818.7 486.2c-.1 14.6-1.8 27.8-4.5 36.8-.3 1.1-1.5 1.8-2.6 1.5-.7-.2-1.3-.8-1.5-1.5-2.5-9.1-4-22.2-3.8-36.8.2-18.2 2.8-34.2 6.6-42.7 3.6 8.5 6 24.5 5.8 42.7z"/>
  <path d="M813.4 74s26.5 184.4-.1 368.4" fill="none" stroke="#9ab7c1" stroke-width="1.29" stroke-miterlimit="10"/>
  <circle class="st26" cx="833.7" cy="432.4" r="3.1"/>
  <circle class="st26" cx="870.9" cy="422.7" r="3.1"/>
  <circle class="st26" cx="794.9" cy="432.1" r="3.1"/>
  <circle class="st26" cx="750.1" cy="424.3" r="3.1"/>
  <circle class="st2" cx="834.1" cy="290.3" r="3.9"/>
  <circle class="st2" cx="830.9" cy="203" r="3.9"/>
  <circle class="st2" cx="826.4" cy="116.3" r="3.9"/>
  <circle class="st2" cx="829.4" cy="376.5" r="3.9"/>
  <path class="st9" d="M674.5 76.7C656.2 78.1 648.2 87 648.2 87c-14.1 10.5-15.2 39.1-15.2 39.1.4 5.2.3 10.4-.4 15.6-1.1 9.6-2.2 24.7-2.2 24.7-1.2 5.9-2.5 19.8-4.7 25.5-4.5 11.8-9.7 24-15.2 36.1-10.3 22.6-27 64.3-15.5 50.5 0 0-11.8 60.8-9.2 61 1.5.1 2.8-.8 3.3-2.1 0 0 2.3 46.3 11.5 60 0 0 3.6-3.5 2-8.1 0 0 14.2 29.4 49.7 40.3 26.9 8.2 92.4 7 129.7-22.2 0 0 3.7-38.3-2.3-50.2-.5-1-1.6-1.4-2.6-1-1.5.6-3.5 2.2-4.9 6.2L731.3 352s3.5-16.4-15-82.8c0 0-7.6-52.9 5.5-91.4.9-2.5-1.2-18.5.2-22.9 1.7-5.4 1.4-10.5 2.4-17.8 1.2-8.7.6-17.6-1.5-26.1-1.3-9.4-5.9-18-13-24.3-13.2-8.3-20-11.1-35.4-10z"/>
  <path class="st28" d="M761.2 359.5l-29.8-7.4s-2.2-28-5-42.4-8.6-22-15.9-45-9.3-51.7-6.3-67 17.7-19.8 17.7-19.8 1.3 26.5 4.3 39.2 22.7 47.7 25 53.7 16.3 27 15.3 54.3-5.3 34.4-5.3 34.4z"/>
  <path class="st26" d="M628.7 110.4v39.7c-5.6 0-10.2-4.6-10.2-10.2v-19.3c0-5.7 4.6-10.2 10.2-10.2zM727.1 150.1v-39.7c5.6 0 10.2 4.6 10.2 10.2v19.3c0 5.6-4.6 10.2-10.2 10.2z"/>
  <path class="st21" d="M852.5 250.5s11.8 23 19.7 22.7l-13-25.1-6.7 2.4z"/>
  <path d="M859.6 249.6s9.6 23.7 13.7 24.2-9.2-31.8-9.2-31.8l-4.5 7.6z" fill="#3a3c39"/>
  <path class="st9" d="M684.5 211.4s43.7 1.3 78-5.3 59.6-5.4 72.2-1c10.8 3.8 29.1 23.6 29.5 34.3 0 0 1.3 8.4 0 10.4-.7 1.1-3.8 2.5-6.6 3.7-2.6 1.1-5.6.8-8-.8-4.8-3.3-14.6-8.5-29-8.2-21 .3-45.9 13.3-45.9 13.3s3 1.9 0 4.9-20 2.5-20 2.5 3.5 3-1 5-37 4.2-65.8 2c0 0 2.2 2.2.5 3.8s-17.2 0-19-2.2"/>
  <path class="st30" d="M713.4 273.1c-8.3 0-17.1-.3-25.5-.9 0 0 2.2 2.2.5 3.8s-17.2 0-19-2.2M684.5 211.4s7.3.2 18.3 0"/>
  <path class="st28" d="M712.7 124.5c-5.5-.7-10.9-1.9-16.1-3.6-5.4-1.8-6.8-5.1-6.5-7.4.5-2.9 3-5.2 5.9-5.4 7.3-.7 13.2 5.3 16.1 9 .2.2.5.2.7.1.1-.1.2-.3.2-.5-.9-5.4-4-10.1-8.6-13.1-5-3.3-12.9-5.9-25.1-6.1v-.1c-12.2-.6-20.2 1.5-25.5 4.4-4.7 2.7-8.1 7.2-9.4 12.4-.1.3.1.5.4.6.2 0 .4 0 .5-.2 3.1-3.5 9.4-9.1 16.7-7.9 3 .4 5.3 2.8 5.6 5.8.2 2.4-1.5 5.5-7 7-5.3 1.4-10.8 2.2-16.3 2.5-.2 0-.4.2-.4.4.5 11.2 6.7 19.6 7.3 18.7s.5-3.5.5-3.5c4.8 10.6 12.5 18.8 13.6 18.6s1.4-2.7 1.4-2.7 1.6 4.5 5 6c2.4 1 4.6 3.7 5.3 4.6.1.1.2.1.3 0 1.6-1.8 3.5-3.2 5.7-4.2 3.6-1.3 5.4-5.7 5.4-5.7s.2 2.4 1.2 2.8 9.2-7.3 14.8-17.6c0 0-.3 2.6.2 3.6s7.3-7 8.5-18.2c0-.1-.2-.2-.4-.3z"/>
  <path class="st21" d="M687.4 116.4c-.4-2.2-2.3-3.8-4.5-3.7h-8.2c-2.2 0-4.1 1.5-4.5 3.7-.2 1.6.3 3.5 3 5.4l5 3.2c.4.3.9.3 1.4 0l5-3.2c2.5-2 3.1-3.9 2.8-5.4z"/>
  <circle class="st31" cx="696.2" cy="114" r="1.6"/>
  <circle class="st31" cx="661.2" cy="114" r="1.6"/>
  <path d="M683.2 127.2c-.8 2.6-3.6 4.1-6.2 3.3-1.6-.5-2.8-1.7-3.3-3.3" fill="none" stroke="#201600" stroke-width="1.05" stroke-linecap="round" stroke-miterlimit="10"/>
  <path class="st2" d="M677.7 71.1c-28.4 0-51.5 23.1-51.5 51.5v47.8s15.2 4 51.5 4.1c38 .1 51.5-4.1 51.5-4.1v-47.8c0-28.5-23-51.5-51.5-51.5zm34.4 66c0 5.8-4.7 10.5-10.5 10.5h-47.5c-5.8 0-10.5-4.7-10.5-10.5V109c0-5.8 4.6-10.5 10.4-10.5h47.6c5.8 0 10.5 4.7 10.5 10.5v28.1z"/>
  <path d="M626.2 163.4s15.2 4 51.5 4.1c38 .1 51.5-4.1 51.5-4.1" fill="none" stroke="#446577" stroke-miterlimit="10"/>
  <path d="M650.2 97.4h54.3c4.8 0 8.7 3.9 8.7 8.7v33.7c0 4.8-3.9 8.6-8.7 8.6h-54.3c-4.8 0-8.7-3.9-8.7-8.6v-33.7c0-4.8 3.9-8.7 8.7-8.7z" opacity=".18" fill="#d6e2ea"/>
  <path class="st26" d="M703.5 94.6H652c-6.5 0-11.7 5.3-11.7 11.7v32.8c0 6.5 5.3 11.7 11.7 11.7h51.5c6.5 0 11.7-5.3 11.7-11.7v-32.8c0-6.4-5.2-11.7-11.7-11.7zm8.5 42.2c0 5.8-4.7 10.5-10.5 10.5H654c-5.8 0-10.5-4.7-10.5-10.5v-28.1c0-5.8 4.7-10.5 10.5-10.5h47.5c5.8 0 10.5 4.7 10.5 10.5v28.1z"/>
  <path class="st35" d="M678.7 473.5s11.2 3.9 13.8 14.6"/>
  <path d="M691 484s6.9-8.2 15.9-3.2" fill="none" stroke="#aeb9c1" stroke-width=".75" stroke-linecap="round" stroke-miterlimit="10"/>
  <path class="st35" d="M702.6 528.1c3.1-4.2 9.5-7 16.8-7 4 0 7.9.9 11.4 2.7"/>
  <path class="st35" d="M729.5 526.3c3.5-9.6 14.2-14.5 23.8-11 5.1 1.9 9.1 5.9 11 11M960.9 501.3s-16 .4-22.3 8.3"/>
  <path class="st35" d="M943.8 505.4s-8.9-7.3-21.9-3c-5.9 2.1-10.8 6.3-13.7 11.8"/>
</svg>