<svg fill="none" xmlns="http://www.w3.org/2000/svg" viewBox="0 0 36 36">
  <path d="M14.565 16.935a1.506 1.506 0 00-2.13 2.13l4.5 4.5A1.5 1.5 0 0018 24a1.5 1.5 0 001.08-.51l10.5-12a1.5 1.5 0 00-2.25-1.98L18 20.31l-3.435-3.375z" fill="#47B4A2"/>
  <path d="M31.5 16.5A1.5 1.5 0 0030 18a12 12 0 01-12 12A12 12 0 019.495 9.54 11.895 11.895 0 0118 6c.96.006 1.915.117 2.85.33a1.5 1.5 0 10.705-2.91A15.81 15.81 0 0018 3 15 15 0 007.5 28.635 14.895 14.895 0 0018 33a15 15 0 0015-15 1.5 1.5 0 00-1.5-1.5z" fill="#47B4A2"/>
</svg>
