<svg width="20" height="23" xmlns="http://www.w3.org/2000/svg"><path d="M17.836 3.273h-1.448c-.03 0-.057.01-.085.017V1.798C16.303.807 15.463 0 14.43 0H1.874C.841 0 0 .807 0 1.798v16.77c0 .99.84 1.797 1.874 1.797h2.202v.812c0 .956.808 1.734 1.802 1.734h11.958c.994 0 1.802-.778 1.802-1.734V5.007c0-.956-.808-1.734-1.802-1.734zM.74 18.567V1.798c0-.59.508-1.07 1.133-1.07h12.555c.625 0 1.133.48 1.133 1.07v16.77c0 .59-.508 1.07-1.133 1.07H1.874c-.625 0-1.133-.48-1.133-1.07zm18.156 2.61c0 .555-.476 1.007-1.061 1.007H5.878c-.585 0-1.061-.452-1.061-1.007v-.812h9.612c1.034 0 1.874-.806 1.874-1.798V3.983c.028.007.055.017.085.017h1.448c.585 0 1.06.452 1.06 1.007v16.17z" fill="#FFF" fill-rule="nonzero"/></svg>
