<?xml version="1.0" encoding="utf-8"?>
<!-- Generator: Adobe Illustrator 24.1.0, SVG Export Plug-In . SVG Version: 6.00 Build 0)  -->
<svg version="1.2" baseProfile="tiny" id="Layer_1" xmlns="http://www.w3.org/2000/svg" xmlns:xlink="http://www.w3.org/1999/xlink"
	 x="0px" y="0px" viewBox="0 0 227.4 77" xml:space="preserve">
<desc>Created with Sketch.</desc>
<g id="Page-1">
	<g id="logo2" transform="translate(-462.000000, -369.000000)">
		<g id="Group" transform="translate(462.500000, 369.500000)">
			<rect id="Rectangle" fill-rule="evenodd" fill="#F5F5F5" width="76" height="76"/>
			<g id="Group-7-Copy-6" transform="translate(13.000000, 13.500000)">
				<g id="Group-4">
					
						<g id="Group-5" transform="translate(26.000000, 24.500000) scale(-1, 1) translate(-26.000000, -24.500000) translate(2.000000, 0.000000)">
						<g id="sign" transform="translate(24.000000, 24.500000) scale(-1, 1) translate(-24.000000, -24.500000) ">
							<path id="Combined-Shape" fill-rule="evenodd" fill="#061D96" d="M0.2,0.1L0.2,0.1c26.3,0,47.6,21.3,47.6,47.6v0.5h-15
								c0-0.2,0-0.3,0-0.5c0-18-14.6-32.7-32.6-32.7L0.2,0.1z"/>
							<path id="Combined-Shape_1_" fill-rule="evenodd" fill="#00D0FF" d="M0.2,19.4L0.2,19.4c15.6,0,28.3,12.7,28.3,28.3v0.5h-15
								c0-0.2,0-0.3,0-0.5c0-7.4-6-13.4-13.4-13.4L0.2,19.4z"/>
							<path id="Combined-Shape_2_" fill-rule="evenodd" fill="#FFFFFF" d="M0.2,26.6c11.7,0,21.1,9.5,21.1,21.1c0,0.2,0,0.3,0,0.5
								h-0.5c0-0.2,0-0.3,0-0.5c0-11.4-9.2-20.6-20.6-20.6L0.2,26.6z"/>
							<path id="Combined-Shape_3_" fill-rule="evenodd" fill="#FFFFFF" d="M0.2,7.4L0.2,7.4c22.3,0,40.4,18.1,40.4,40.4v0.5h-0.5
								c0-0.2,0-0.3,0-0.5c0-22-17.9-39.9-39.9-39.9L0.2,7.4z"/>
						</g>
					</g>
					<path id="Rectangle_1_" fill-rule="evenodd" fill="#061D96" d="M28,31.3L4,48.2c-1.9,0-2.8,0-2.8,0s0.4-0.9,1.2-2.6L28,31.3z"
						/>
					<path id="METRICS" fill="#FFFFFF" d="M95.3,48.3h-4.5V36l-4.3,12.3h-3.4L78.7,36v12.3h-4.5V28.4h5.3l5.3,13.8l5.3-13.8h5.2
						V48.3z M103.3,32.1v4.5h7.5v3.6h-7.5v4.4h7.5v3.7H98.7V28.4h12.1v3.7H103.3z M116.9,32.4h-4.5v-4H126v4h-4.5v15.9h-4.6V32.4z
						 M135.6,39.1c0.5,0,0.9-0.1,1.3-0.3c0.4-0.2,0.7-0.4,1-0.8c0.3-0.3,0.5-0.7,0.6-1.1c0.2-0.4,0.2-0.9,0.2-1.3
						c0-0.5-0.1-0.9-0.2-1.3c-0.2-0.4-0.4-0.8-0.6-1.1c-0.3-0.3-0.6-0.6-1-0.8s-0.8-0.3-1.3-0.3h-3.2V39L135.6,39.1L135.6,39.1z
						 M127.9,28.4h8.4c1.1,0,2.1,0.2,3,0.6s1.7,0.9,2.3,1.6s1.1,1.4,1.5,2.3c0.3,0.9,0.5,1.8,0.5,2.8c0,1.4-0.3,2.7-1,3.8
						s-1.7,2-2.9,2.6l4,6.3h-5.3l-3.5-5.5h-2.2v5.5h-4.6v-20H127.9z M146,28.4h4.7v19.9H146V28.4z M173.5,41.2
						c-0.2,1.1-0.6,2.1-1.1,3s-1.2,1.7-2.1,2.4c-0.9,0.7-1.8,1.2-3,1.6c-1.1,0.4-2.4,0.6-3.8,0.6c-1.7,0-3.2-0.3-4.5-0.9
						c-1.3-0.6-2.4-1.3-3.4-2.3c-0.9-1-1.6-2.1-2.1-3.3c-0.5-1.3-0.7-2.6-0.7-4s0.2-2.7,0.7-3.9c0.5-1.3,1.2-2.4,2.1-3.3
						c0.9-1,2-1.7,3.3-2.3c1.3-0.6,2.7-0.9,4.4-0.9c1.5,0,2.9,0.2,4.1,0.7c1.2,0.4,2.2,1,3.1,1.8c0.8,0.7,1.5,1.6,2,2.6
						s0.8,2.1,1,3.2h-4.8c-0.1-0.6-0.3-1.1-0.6-1.6s-0.6-0.9-1.1-1.3c-0.4-0.4-0.9-0.7-1.5-0.9s-1.2-0.3-1.9-0.3
						c-1,0-1.8,0.2-2.6,0.5c-0.7,0.4-1.4,0.8-1.9,1.4c-0.5,0.6-0.9,1.2-1.2,2s-0.4,1.5-0.4,2.4s0.1,1.7,0.4,2.5
						c0.3,0.8,0.7,1.4,1.2,2s1.2,1,2,1.4c0.8,0.3,1.7,0.5,2.7,0.5c0.6,0,1.1-0.1,1.6-0.3s1-0.4,1.4-0.7s0.8-0.7,1.1-1.1
						s0.5-0.9,0.7-1.4h4.9V41.2z M179.6,41.7c0,1.1,0.3,1.9,0.9,2.5c0.6,0.6,1.4,0.9,2.3,0.9c0.7,0,1.4-0.2,1.9-0.6
						c0.5-0.4,0.8-1,0.8-1.7c0-0.4-0.1-0.7-0.2-1c-0.2-0.3-0.4-0.5-0.7-0.7s-0.6-0.4-1-0.6c-0.4-0.2-0.8-0.3-1.2-0.5
						c-0.9-0.3-1.8-0.7-2.6-1s-1.5-0.8-2.1-1.2c-0.6-0.5-1.1-1.1-1.4-1.7c-0.4-0.7-0.5-1.5-0.5-2.5c0-0.9,0.2-1.7,0.6-2.4
						c0.4-0.7,0.9-1.3,1.5-1.8s1.4-0.8,2.2-1.1s1.7-0.4,2.6-0.4c1.2,0,2.2,0.2,3.1,0.5c0.9,0.3,1.6,0.8,2.2,1.4c0.6,0.6,1,1.3,1.3,2
						c0.3,0.8,0.4,1.6,0.4,2.4H185c0-0.9-0.2-1.6-0.6-2.1c-0.4-0.5-1-0.8-1.8-0.8c-0.7,0-1.2,0.2-1.7,0.5s-0.7,0.9-0.7,1.5
						c0,0.7,0.3,1.2,0.8,1.6c0.5,0.4,1.2,0.7,2.1,1c0.8,0.3,1.6,0.6,2.5,0.9c0.8,0.3,1.6,0.7,2.2,1.2c0.7,0.5,1.2,1.1,1.6,1.8
						c0.4,0.7,0.6,1.5,0.6,2.5s-0.2,1.9-0.6,2.7c-0.4,0.8-0.9,1.5-1.5,2c-0.7,0.5-1.4,0.9-2.4,1.2c-0.9,0.3-1.9,0.4-3,0.4
						s-2.1-0.2-3-0.5s-1.7-0.8-2.4-1.4c-0.7-0.6-1.2-1.3-1.6-2.2c-0.4-0.9-0.6-1.9-0.6-3h4.7V41.7z"/>
					<path id="Combined-Shape_4_" fill="#FFFFFF" d="M82.6,0c1.1,0,2.1,0.2,3,0.6s1.7,0.9,2.3,1.6c0.6,0.7,1.1,1.4,1.5,2.3
						c0.3,0.9,0.5,1.8,0.5,2.8c0,1.4-0.3,2.7-1,3.8s-1.7,2-2.9,2.6l4,6.3h-5.3L81,14.4h-2.2v5.5h-4.6V0H82.6z M82,3.8h-3.2v6.9H82
						c0.5,0,0.9-0.1,1.3-0.3s0.7-0.4,1-0.8c0.3-0.3,0.5-0.7,0.6-1.1c0.2-0.4,0.2-0.9,0.2-1.3c0-0.5-0.1-0.9-0.2-1.3
						c-0.2-0.4-0.4-0.8-0.6-1.1c-0.3-0.3-0.6-0.6-1-0.8C82.9,3.9,82.5,3.8,82,3.8z"/>
					<polygon id="Path" fill="#FFFFFF" points="97.9,3.7 97.9,8.2 105.5,8.2 105.5,11.8 97.9,11.8 97.9,16.2 105.5,16.2 105.5,19.9 
						93.3,19.9 93.3,0 105.5,0 105.5,3.7 					"/>
					<path id="Shape" fill="#FFFFFF" d="M126.6,17.5c0,0.1-0.1,0.1-0.3,0.3c-0.4,0.4-0.9,0.7-1.3,1c-1.7,1.1-3.7,1.8-5.9,1.8
						c-2,0-3.8-0.5-5.4-1.4c-0.4-0.2-0.7-0.4-1-0.7c-0.5-0.4-0.9-0.8-1.3-1.2c-0.9-1-1.6-2.1-2.1-3.3c-0.5-1.3-0.7-2.6-0.7-3.9
						s0.2-2.7,0.7-3.9s1.2-2.4,2.1-3.3c0.9-1,2-1.7,3.3-2.3s2.8-0.9,4.4-0.9s3.1,0.3,4.4,0.9s2.4,1.3,3.3,2.3s1.6,2.1,2.1,3.3
						s0.7,2.6,0.7,3.9c0,1-0.1,2-0.4,2.9c-0.3,0.9-0.6,1.8-1.1,2.6C127.7,16.2,127.2,16.9,126.6,17.5L126.6,17.5z M119.1,16.3
						c0.9,0,1.7-0.2,2.4-0.5s1.3-0.8,1.8-1.4c0.5-0.6,0.9-1.3,1.2-2c0.3-0.8,0.4-1.5,0.4-2.4s-0.1-1.6-0.4-2.4s-0.6-1.4-1.2-2
						s-1.1-1.1-1.8-1.4c-0.7-0.4-1.5-0.5-2.4-0.5s-1.7,0.2-2.4,0.5c-0.7,0.4-1.3,0.8-1.8,1.4s-0.9,1.3-1.2,2
						c-0.3,0.8-0.4,1.5-0.4,2.4s0.1,1.6,0.4,2.4c0.3,0.8,0.6,1.4,1.2,2c0.5,0.6,1.1,1.1,1.8,1.4S118.2,16.3,119.1,16.3z"/>
					<rect id="Rectangle_2_" x="118.5" y="16.3" fill-rule="evenodd" fill="#FFFFFF" width="11.4" height="4.2"/>
					<path id="Path_1_" fill="#FFFFFF" d="M132.7,0h4.6v13.1c0,0.5,0.1,0.9,0.2,1.3c0.2,0.4,0.4,0.8,0.6,1.1c0.3,0.3,0.6,0.5,1,0.7
						s0.8,0.3,1.3,0.3s0.9-0.1,1.3-0.3c0.4-0.2,0.7-0.4,1-0.7s0.5-0.7,0.6-1.1c0.2-0.4,0.2-0.8,0.2-1.3V0h4.6v13.1
						c0,1-0.2,2-0.5,2.9c-0.4,0.9-0.9,1.7-1.5,2.3c-0.7,0.7-1.5,1.2-2.4,1.5c-1,0.4-2,0.6-3.2,0.6s-2.3-0.2-3.2-0.6
						s-1.8-0.9-2.4-1.5c-0.7-0.7-1.2-1.4-1.5-2.3c-0.4-0.9-0.5-1.8-0.5-2.9V0H132.7z"/>
					<polygon id="Path_2_" fill="#FFFFFF" points="156.7,3.7 156.7,8.2 164.3,8.2 164.3,11.8 156.7,11.8 156.7,16.2 164.3,16.2 
						164.3,19.9 152.1,19.9 152.1,0 164.3,0 164.3,3.7 					"/>
					<path id="Path_3_" fill="#FFFFFF" d="M172.2,13.3c0,1.1,0.3,1.9,0.9,2.5c0.6,0.6,1.4,0.9,2.3,0.9c0.7,0,1.4-0.2,1.9-0.6
						s0.8-1,0.8-1.7c0-0.4-0.1-0.7-0.2-1c-0.2-0.3-0.4-0.5-0.7-0.7s-0.6-0.4-1-0.6c-0.4-0.2-0.8-0.3-1.2-0.5c-0.9-0.3-1.8-0.7-2.6-1
						s-1.5-0.8-2.1-1.2c-0.6-0.5-1.1-1.1-1.4-1.7c-0.4-0.7-0.5-1.5-0.5-2.5c0-0.9,0.2-1.7,0.6-2.4c0.4-0.7,0.9-1.3,1.5-1.8
						s1.4-0.8,2.2-1.1s1.7-0.4,2.6-0.4c1.2,0,2.2,0.2,3.1,0.5c0.9,0.3,1.6,0.8,2.2,1.4c0.6,0.6,1,1.3,1.3,2s0.4,1.6,0.4,2.4h-4.6
						c0-0.9-0.2-1.6-0.6-2.1c-0.4-0.5-1-0.8-1.8-0.8c-0.7,0-1.2,0.2-1.7,0.5s-0.7,0.9-0.7,1.5c0,0.7,0.3,1.2,0.8,1.6s1.2,0.7,2.1,1
						c0.8,0.3,1.6,0.6,2.5,0.9c0.8,0.3,1.6,0.7,2.2,1.2c0.7,0.5,1.2,1.1,1.6,1.8c0.4,0.7,0.6,1.5,0.6,2.5s-0.2,1.9-0.6,2.7
						c-0.4,0.8-0.9,1.5-1.5,2c-0.7,0.5-1.4,0.9-2.4,1.2c-0.9,0.3-1.9,0.4-3,0.4s-2.1-0.2-3-0.5s-1.7-0.8-2.4-1.4s-1.2-1.3-1.6-2.2
						c-0.4-0.9-0.6-1.9-0.6-3h4.6V13.3z"/>
				</g>
			</g>
			<rect id="Rectangle_3_" x="206.2" y="56.3" fill-rule="evenodd" fill="#061D96" width="6" height="6"/>
		</g>
	</g>
</g>
<polygon fill="#FFFFFF" points="202.7,18 198.2,18 198.2,14 211.8,14 211.8,18 207.3,18 207.3,33.9 202.7,33.9 "/>
</svg>
