<svg fill="none" xmlns="http://www.w3.org/2000/svg" viewBox="0 0 36 36">
  <path d="M31.5 16.5A1.5 1.5 0 0030 18a12 12 0 01-12 12A12 12 0 019.495 9.54 11.895 11.895 0 0118 6c.96.006 1.915.117 2.85.33a1.5 1.5 0 10.705-2.91A15.81 15.81 0 0018 3 15 15 0 007.5 28.635 14.895 14.895 0 0018 33a15 15 0 0015-15 1.5 1.5 0 00-1.5-1.5z" fill="#DF2250"/>
  <path d="M32.065 3.935a1.5 1.5 0 00-2.13 0L18 15.885l-1.935-1.95a1.506 1.506 0 00-2.13 2.13L15.885 18l-1.95 1.935a1.5 1.5 0 000 2.13 1.5 1.5 0 002.13 0L18 20.115l1.935 1.95a1.5 1.5 0 002.13 0 1.498 1.498 0 000-2.13L20.115 18l11.95-11.935a1.499 1.499 0 000-2.13z" fill="#DF2250"/>
</svg>
